<?xml version="1.0" encoding="UTF-8" standalone="no"?>
<!DOCTYPE svg PUBLIC "-//W3C//DTD SVG 1.1//EN" "http://www.w3.org/Graphics/SVG/1.1/DTD/svg11.dtd">
<svg xmlns="http://www.w3.org/2000/svg" xmlns:xlink="http://www.w3.org/1999/xlink" version="1.1" width="445.74989pt" height="205.20201pt" viewBox="0 0 445.74989 205.20201">
<g enable-background="new">
<path transform="matrix(1,0,0,-1,9.385902,52.140707)" stroke-width=".398" stroke-linecap="butt" stroke-miterlimit="10" stroke-linejoin="miter" fill="none" stroke="#000000" d="M 0 0 L 137.427 0 "/>
<path transform="matrix(1,0,0,-1,148.80503,52.140657)" d="M 0 0 L -3.188 1.594 L -1.993 0 L -3.188 -1.594 "/>
<path transform="matrix(1,0,0,-1,9.385902,77.531009)" stroke-width=".398" stroke-linecap="butt" stroke-miterlimit="10" stroke-linejoin="miter" fill="none" stroke="#000000" d="M 0 0 L 0 66.561 "/>
<path transform="matrix(0,-1,-1,-0,9.385902,8.977104)" d="M 0 0 L -3.188 1.594 L -1.993 0 L -3.188 -1.594 "/>
<clipPath id="cp0">
<path transform="matrix(1,0,0,-1,9.385902,77.531009)" d="M 0 0 L 139.419 0 L 139.419 68.554 L 0 68.554 Z "/>
</clipPath>
<g clip-path="url(#cp0)">
<path transform="matrix(1,0,0,-1,9.385902,52.140707)" stroke-width=".398" stroke-linecap="butt" stroke-miterlimit="10" stroke-linejoin="miter" fill="none" stroke="#000000" d="M 0 0 L 1.408 1.878 L 2.817 3.746 L 4.225 5.593 L 5.633 7.41 L 7.041 9.186 L 8.45 10.912 L 9.858 12.578 L 11.266 14.175 L 12.674 15.695 L 14.083 17.127 L 15.491 18.467 L 16.899 19.706 L 18.307 20.836 L 19.716 21.852 L 21.124 22.748 L 22.532 23.521 L 23.941 24.164 L 25.349 24.673 L 26.757 25.049 L 28.165 25.287 L 29.574 25.387 L 30.982 25.346 L 32.39 25.168 L 33.798 24.852 L 35.207 24.399 L 36.615 23.812 L 38.023 23.095 L 39.431 22.251 L 40.84 21.286 L 42.248 20.204 L 43.656 19.01 L 45.065 17.714 L 46.473 16.32 L 47.881 14.837 L 49.289 13.272 L 50.698 11.634 L 52.106 9.933 L 53.514 8.177 L 54.922 6.377 L 56.331 4.541 L 57.739 2.681 L 59.147 .805 L 60.555 -1.073 L 61.964 -2.947 L 63.372 -4.804 L 64.78 -6.636 L 66.188 -8.43 L 67.597 -10.179 L 69.005 -11.872 L 70.413 -13.5 L 71.822 -15.053 L 73.23 -16.524 L 74.638 -17.905 L 76.046 -19.188 L 77.455 -20.365 L 78.863 -21.43 L 80.271 -22.379 L 81.679 -23.205 L 83.088 -23.904 L 84.496 -24.471 L 85.904 -24.905 L 87.313 -25.202 L 88.721 -25.361 L 90.129 -25.38 L 91.537 -25.261 L 92.946 -25.004 L 94.354 -24.609 L 95.762 -24.08 L 97.17 -23.418 L 98.579 -22.629 L 99.987 -21.715 L 101.395 -20.682 L 102.803 -19.536 L 104.212 -18.283 L 105.62 -16.929 L 107.028 -15.483 L 108.436 -13.952 L 109.845 -12.345 L 111.253 -10.67 L 112.661 -8.936 L 114.07 -7.153 L 115.478 -5.332 L 116.886 -3.481 L 118.294 -1.611 L 119.703 .267 L 121.111 2.145 L 122.519 4.011 L 123.927 5.854 L 125.336 7.665 L 126.744 9.435 L 128.152 11.153 L 129.56 12.81 L 130.969 14.396 L 132.377 15.904 L 133.785 17.325 L 135.194 18.649 L 136.602 19.873 L 138.01 20.988 L 139.418 21.988 "/>
</g>
<text xml:space="preserve" transform="matrix(1 0 -0 1 -67.7461 419.704)" font-size="8.966" font-family="CMMI9" font-style="italic"><tspan y="-371.083" x="209.702">t</tspan><tspan y="-400.48103" x="80.65199">x</tspan></text>
<text xml:space="preserve" transform="matrix(1 0 -0 1 -67.7461 419.704)" font-size="8.966" font-family="CMR9"><tspan y="-400.48103" x="85.87917">(</tspan></text>
<text xml:space="preserve" transform="matrix(1 0 -0 1 -67.7461 419.704)" font-size="8.966" font-family="CMMI9" font-style="italic"><tspan y="-400.48103" x="89.465579">t</tspan></text>
<text xml:space="preserve" transform="matrix(1 0 -0 1 -67.7461 419.704)" font-size="8.966" font-family="CMR9"><tspan y="-400.48103" x="92.79196">)</tspan><tspan y="-328.325" x="83.12399 86.710399 91.31892">(a)</tspan></text>
<text xml:space="preserve" transform="matrix(1 0 -0 1 -67.7461 419.704)" font-size="8.966" font-family="CMMI9" font-style="italic"><tspan y="-328.325" x="97.97099">x</tspan></text>
<text xml:space="preserve" transform="matrix(1 0 -0 1 -67.7461 419.704)" font-size="8.966" font-family="CMR9"><tspan y="-328.325" x="103.19817">(</tspan></text>
<text xml:space="preserve" transform="matrix(1 0 -0 1 -67.7461 419.704)" font-size="8.966" font-family="CMMI9" font-style="italic"><tspan y="-328.325" x="106.78458">t</tspan></text>
<text xml:space="preserve" transform="matrix(1 0 -0 1 -67.7461 419.704)" font-size="8.966" font-family="CMR9"><tspan y="-328.325" x="110.11096 113.697368 120.35906 124.45653 129.06505 133.92464 137.51103 140.0753 144.9439 150.06348 154.672 159.79158 163.4228 166.49814 170.08454 172.6488 180.32367 187.49649 191.12772 193.69199 198.3005 203.42009 208.02861">):continuous-timesignal</tspan></text>
<path transform="matrix(1,0,0,-1,224.33469,54.26671)" stroke-width=".199" stroke-linecap="butt" stroke-miterlimit="10" stroke-linejoin="miter" fill="none" stroke="#929292" d="M 0 0 L 0 4.252 M 26.514 0 L 26.514 4.252 "/>
<path transform="matrix(1,0,0,-1,235.46559,26.750306)" stroke-width=".199" stroke-linecap="butt" stroke-miterlimit="10" stroke-linejoin="miter" fill="none" stroke="#929292" d="M 0 0 L 4.252 0 "/>
<path transform="matrix(1,0,0,-1,197.82089,52.140707)" stroke-width=".398" stroke-linecap="butt" stroke-miterlimit="10" stroke-linejoin="miter" fill="none" stroke="#000000" d="M 0 0 L 236.631 0 "/>
<path transform="matrix(1,0,0,-1,436.4448,52.140657)" d="M 0 0 L -3.188 1.594 L -1.993 0 L -3.188 -1.594 "/>
<path transform="matrix(1,0,0,-1,237.59149,77.531009)" stroke-width=".398" stroke-linecap="butt" stroke-miterlimit="10" stroke-linejoin="miter" fill="none" stroke="#000000" d="M 0 0 L 0 66.561 "/>
<path transform="matrix(0,-1,-1,-0,237.59156,8.977104)" d="M 0 0 L -3.188 1.594 L -1.993 0 L -3.188 -1.594 "/>
<text xml:space="preserve" transform="matrix(1 0 -0 1 -67.7461 419.704)" font-size="8.966" font-family="CMSY9" font-style="italic"><tspan y="-354.246" x="282.112">&#x2212;</tspan></text>
<text xml:space="preserve" transform="matrix(1 0 -0 1 -67.7461 419.704)" font-size="8.966" font-family="CMMI9" font-style="italic"><tspan y="-354.246" x="289.27586">&#x03c9;</tspan></text>
<text xml:space="preserve" transform="matrix(1 0 -0 1 -67.7461 419.704)" font-size="5.978" font-family="CMMI6" font-style="italic"><tspan y="-353.25" x="295.013">m</tspan></text>
<text xml:space="preserve" transform="matrix(1 0 -0 1 -67.7461 419.704)" font-size="8.966" font-family="CMMI9" font-style="italic"><tspan y="-354.246" x="312.21">&#x03c9;</tspan></text>
<text xml:space="preserve" transform="matrix(1 0 -0 1 -67.7461 419.704)" font-size="5.978" font-family="CMMI6" font-style="italic"><tspan y="-353.25" x="317.943">m</tspan></text>
<text xml:space="preserve" transform="matrix(1 0 -0 1 -67.7461 419.704)" font-size="8.966" font-family="CMR9"><tspan y="-390.761" x="298.405">1</tspan></text>
<clipPath id="cp1">
<path transform="matrix(1,0,0,-1,197.82089,77.531009)" d="M 0 0 L 238.624 0 L 238.624 68.554 L 0 68.554 Z "/>
</clipPath>
<g clip-path="url(#cp1)">
<path transform="matrix(1,0,0,-1,224.33469,52.140707)" stroke-width=".797" stroke-linecap="butt" stroke-miterlimit="10" stroke-linejoin="miter" fill="none" stroke="#000000" d="M 0 0 L 0 25.39 M 26.514 0 L 26.514 25.39 "/>
</g>
<path transform="matrix(1,0,0,-1,225.33089,26.750306)" d="M 0 0 C 0 .55 -.446 .996 -.996 .996 C -1.547 .996 -1.993 .55 -1.993 0 C -1.993 -.55 -1.547 -.996 -.996 -.996 C -.446 -.996 0 -.55 0 0 Z "/>
<path transform="matrix(1,0,0,-1,225.33089,26.750306)" stroke-width=".797" stroke-linecap="butt" stroke-miterlimit="10" stroke-linejoin="miter" fill="none" stroke="#000000" d="M 0 0 C 0 .55 -.446 .996 -.996 .996 C -1.547 .996 -1.993 .55 -1.993 0 C -1.993 -.55 -1.547 -.996 -.996 -.996 C -.446 -.996 0 -.55 0 0 Z "/>
<path transform="matrix(1,0,0,-1,251.8447,26.750306)" d="M 0 0 C 0 .55 -.446 .996 -.996 .996 C -1.547 .996 -1.993 .55 -1.993 0 C -1.993 -.55 -1.547 -.996 -.996 -.996 C -.446 -.996 0 -.55 0 0 Z "/>
<path transform="matrix(1,0,0,-1,251.8447,26.750306)" stroke-width=".797" stroke-linecap="butt" stroke-miterlimit="10" stroke-linejoin="miter" fill="none" stroke="#000000" d="M 0 0 C 0 .55 -.446 .996 -.996 .996 C -1.547 .996 -1.993 .55 -1.993 0 C -1.993 -.55 -1.547 -.996 -.996 -.996 C -.446 -.996 0 -.55 0 0 Z "/>
<text xml:space="preserve" transform="matrix(1 0 -0 1 -67.7461 419.704)" font-size="8.966" font-family="CMMI9" font-style="italic"><tspan y="-371.083" x="494.613">&#x03c9;</tspan></text>
<text xml:space="preserve" transform="matrix(1 0 -0 1 -67.7461 419.704)" font-size="8.966" font-family="CMSY9" font-style="italic"><tspan y="-400.48103" x="308.857">|</tspan></text>
<text xml:space="preserve" transform="matrix(1 0 -0 1 -67.7461 419.704)" font-size="8.966" font-family="CMMI9" font-style="italic"><tspan y="-400.48103" x="311.42127">X</tspan></text>
<text xml:space="preserve" transform="matrix(1 0 -0 1 -67.7461 419.704)" font-size="8.966" font-family="CMR9"><tspan y="-400.48103" x="319.731">(</tspan></text>
<text xml:space="preserve" transform="matrix(1 0 -0 1 -67.7461 419.704)" font-size="8.966" font-family="CMMI9" font-style="italic"><tspan y="-400.48103" x="323.31739 327.59419">j&#x03c9;</tspan></text>
<text xml:space="preserve" transform="matrix(1 0 -0 1 -67.7461 419.704)" font-size="8.966" font-family="CMR9"><tspan y="-400.48103" x="333.651">)</tspan></text>
<text xml:space="preserve" transform="matrix(1 0 -0 1 -67.7461 419.704)" font-size="8.966" font-family="CMSY9" font-style="italic"><tspan y="-400.48103" x="337.2374">|</tspan></text>
<text xml:space="preserve" transform="matrix(1 0 -0 1 -67.7461 419.704)" font-size="8.966" font-family="CMR9"><tspan y="-328.325" x="271.988 275.5744 280.694 287.35578 292.47538 297.84596 301.94343 306.0409 309.6273 313.23164 318.35124 329.11048 333.719 339.6007 343.1871 348.3067 355.47956 360.08808 363.6924 366.25669 370.8652 373.42948 378.54908 383.1576 388.78825 392.8857 397.49424 402.36274 405.94914 408.5134 413.37303 418.4926 423.10115 428.22074 431.85197 434.9273 438.5137 441.07798 448.76185 455.9347 459.56593 462.1302 466.7297 471.8493 476.45783">(b)Spectrumoftheoriginalcontinuous-timesignal</tspan></text>
<text xml:space="preserve" transform="matrix(1 0 -0 1 -67.7461 419.704)" font-size="8.966" font-family="CMMI9" font-style="italic"><tspan y="-328.325" x="482.048">x</tspan></text>
<text xml:space="preserve" transform="matrix(1 0 -0 1 -67.7461 419.704)" font-size="8.966" font-family="CMR9"><tspan y="-328.325" x="487.27519">(</tspan></text>
<text xml:space="preserve" transform="matrix(1 0 -0 1 -67.7461 419.704)" font-size="8.966" font-family="CMMI9" font-style="italic"><tspan y="-328.325" x="490.86158">t</tspan></text>
<text xml:space="preserve" transform="matrix(1 0 -0 1 -67.7461 419.704)" font-size="8.966" font-family="CMR9"><tspan y="-328.325" x="494.18797">)</tspan></text>
<path transform="matrix(1,0,0,-1,9.385902,157.4087)" stroke-width=".398" stroke-linecap="butt" stroke-miterlimit="10" stroke-linejoin="miter" fill="none" stroke="#000000" d="M 0 0 L 137.427 0 "/>
<path transform="matrix(1,0,0,-1,148.80503,157.40866)" d="M 0 0 L -3.188 1.594 L -1.993 0 L -3.188 -1.594 "/>
<path transform="matrix(1,0,0,-1,9.385902,182.79901)" stroke-width=".398" stroke-linecap="butt" stroke-miterlimit="10" stroke-linejoin="miter" fill="none" stroke="#000000" d="M 0 0 L 0 66.561 "/>
<path transform="matrix(0,-1,-1,-0,9.385902,114.24511)" d="M 0 0 L -3.188 1.594 L -1.993 0 L -3.188 -1.594 "/>
<clipPath id="cp2">
<path transform="matrix(1,0,0,-1,9.385902,182.79901)" d="M 0 0 L 139.419 0 L 139.419 68.554 L 0 68.554 Z "/>
</clipPath>
<g clip-path="url(#cp2)">
<path transform="matrix(1,0,0,-1,9.385902,157.4087)" stroke-width=".398" stroke-linecap="butt" stroke-miterlimit="10" stroke-linejoin="miter" fill="none" stroke="#ffffff" d="M 0 0 L .14 1.861 L .279 3.712 L .419 5.544 L .558 7.345 L .698 9.108 L .837 10.82 L .977 12.475 L 1.116 14.062 L 1.256 15.574 L 1.396 17.003 L 1.535 18.339 L 1.675 19.577 L 1.814 20.71 L 1.954 21.731 L 2.093 22.635 L 2.233 23.417 L 2.373 24.073 L 2.512 24.6 L 2.652 24.995 L 2.791 25.254 L 2.931 25.378 L 3.07 25.365 L 3.21 25.216 L 3.349 24.931 L 3.489 24.512 L 3.629 23.961 L 3.768 23.28 L 3.908 22.476 L 4.047 21.549 L 4.187 20.507 L 4.326 19.354 L 4.466 18.097 L 4.606 16.743 L 4.745 15.299 L 4.885 13.772 L 5.024 12.171 L 5.164 10.505 L 5.303 8.782 L 5.443 7.012 L 5.582 5.204 L 5.722 3.368 L 5.862 1.514 L 6.001 -.348 L 6.141 -2.208 L 6.28 -4.056 L 6.42 -5.883 L 6.559 -7.678 L 6.699 -9.431 L 6.839 -11.134 L 6.978 -12.777 L 7.118 -14.351 L 7.257 -15.848 L 7.397 -17.26 L 7.536 -18.579 L 7.676 -19.797 L 7.815 -20.909 L 7.955 -21.909 L 8.095 -22.79 L 8.234 -23.55 L 8.374 -24.182 L 8.513 -24.684 L 8.653 -25.053 L 8.792 -25.288 L 8.932 -25.387 L 9.071 -25.348 L 9.211 -25.173 L 9.351 -24.863 L 9.49 -24.419 L 9.63 -23.844 L 9.769 -23.14 L 9.909 -22.311 L 10.048 -21.363 L 10.188 -20.3 L 10.328 -19.127 L 10.467 -17.851 L 10.607 -16.48 L 10.746 -15.019 L 10.886 -13.479 L 11.025 -11.865 L 11.165 -10.187 L 11.304 -8.455 L 11.444 -6.677 L 11.584 -4.863 L 11.723 -3.023 L 11.863 -1.167 L 12.002 .695 L 12.142 2.554 L 12.281 4.399 L 12.421 6.22 L 12.561 8.008 L 12.7 9.753 L 12.84 11.446 L 12.979 13.077 L 13.119 14.636 L 13.258 16.118 L 13.398 17.513 L 13.537 18.813 L 13.677 20.013 L 13.817 21.104 L 13.956 22.082 L 14.096 22.941 L 14.235 23.677 L 14.375 24.286 L 14.514 24.763 L 14.654 25.107 L 14.794 25.316 L 14.933 25.39 L 15.073 25.326 L 15.212 25.125 L 15.352 24.79 L 15.491 24.321 L 15.631 23.722 L 15.77 22.995 L 15.91 22.143 L 16.05 21.173 L 16.189 20.089 L 16.329 18.897 L 16.468 17.603 L 16.608 16.214 L 16.747 14.738 L 16.887 13.183 L 17.027 11.556 L 17.166 9.868 L 17.306 8.126 L 17.445 6.341 L 17.585 4.521 L 17.724 2.677 L 17.864 .819 L 18.003 -1.043 L 18.143 -2.9 L 18.283 -4.741 L 18.422 -6.557 L 18.562 -8.338 L 18.701 -10.073 L 18.841 -11.754 L 18.98 -13.374 L 19.12 -14.92 L 19.26 -16.385 L 19.399 -17.763 L 19.539 -19.045 L 19.678 -20.225 L 19.818 -21.296 L 19.957 -22.252 L 20.097 -23.088 L 20.236 -23.8 L 20.376 -24.385 L 20.516 -24.838 L 20.655 -25.156 L 20.795 -25.34 L 20.934 -25.388 L 21.074 -25.298 L 21.213 -25.073 L 21.353 -24.712 L 21.493 -24.219 L 21.632 -23.595 L 21.772 -22.844 L 21.911 -21.971 L 22.051 -20.979 L 22.19 -19.874 L 22.33 -18.662 L 22.469 -17.351 L 22.609 -15.945 L 22.749 -14.453 L 22.888 -12.884 L 23.028 -11.245 L 23.167 -9.546 L 23.307 -7.796 L 23.446 -6.003 L 23.586 -4.179 L 23.726 -2.331 L 23.865 -.472 L 24.005 1.39 L 24.144 3.245 L 24.284 5.083 L 24.423 6.893 L 24.563 8.666 L 24.702 10.391 L 24.842 12.062 L 24.982 13.668 L 25.121 15.199 L 25.261 16.65 L 25.4 18.01 L 25.54 19.273 L 25.679 20.433 L 25.819 21.483 L 25.959 22.418 L 26.098 23.231 L 26.238 23.919 L 26.377 24.479 L 26.517 24.907 L 26.656 25.202 L 26.796 25.359 L 26.935 25.381 L 27.075 25.266 L 27.215 25.016 L 27.354 24.631 L 27.494 24.113 L 27.633 23.464 L 27.773 22.691 L 27.912 21.795 L 28.052 20.781 L 28.191 19.656 L 28.331 18.425 L 28.471 17.094 L 28.61 15.673 L 28.75 14.166 L 28.889 12.583 L 29.029 10.932 L 29.168 9.223 L 29.308 7.464 L 29.448 5.665 L 29.587 3.835 L 29.727 1.985 L 29.866 .124 L 30.006 -1.738 L 30.145 -3.59 L 30.285 -5.422 L 30.424 -7.227 L 30.564 -8.991 L 30.704 -10.708 L 30.843 -12.367 L 30.983 -13.959 L 31.122 -15.476 L 31.262 -16.91 L 31.401 -18.254 L 31.541 -19.498 L 31.681 -20.637 L 31.82 -21.666 L 31.96 -22.578 L 32.099 -23.37 L 32.239 -24.034 L 32.378 -24.569 L 32.518 -24.972 L 32.657 -25.241 L 32.797 -25.374 L 32.937 -25.37 L 33.076 -25.23 L 33.216 -24.954 L 33.355 -24.544 L 33.495 -24.002 L 33.634 -23.33 L 33.774 -22.532 L 33.914 -21.614 L 34.053 -20.58 L 34.193 -19.434 L 34.332 -18.184 L 34.472 -16.836 L 34.611 -15.397 L 34.751 -13.876 L 34.89 -12.281 L 35.03 -10.618 L 35.17 -8.898 L 35.309 -7.13 L 35.449 -5.325 L 35.588 -3.491 L 35.728 -1.638 L 35.867 .224 L 36.007 2.084 L 36.147 3.933 L 36.286 5.762 L 36.426 7.559 L 36.565 9.315 L 36.705 11.022 L 36.844 12.67 L 36.984 14.248 L 37.123 15.751 L 37.263 17.168 L 37.403 18.494 L 37.542 19.72 L 37.682 20.838 L 37.821 21.846 L 37.961 22.735 L 38.1 23.502 L 38.24 24.144 L 38.38 24.655 L 38.519 25.032 L 38.659 25.276 L 38.798 25.384 L 38.938 25.355 L 39.077 25.189 L 39.217 24.888 L 39.356 24.452 L 39.496 23.886 L 39.636 23.191 L 39.775 22.37 L 39.915 21.429 L 40.054 20.374 L 40.194 19.209 L 40.333 17.94 L 40.473 16.574 L 40.612 15.119 L 40.752 13.584 L 40.892 11.974 L 41.031 10.301 L 41.171 8.572 L 41.31 6.796 L 41.45 4.985 L 41.589 3.146 L 41.729 1.291 L 41.869 -.571 L 42.008 -2.43 L 42.148 -4.277 L 42.287 -6.1 L 42.427 -7.891 L 42.566 -9.639 L 42.706 -11.335 L 42.845 -12.97 L 42.985 -14.535 L 43.125 -16.022 L 43.264 -17.423 L 43.404 -18.73 L 43.543 -19.936 L 43.683 -21.035 L 43.822 -22.021 L 43.962 -22.888 L 44.102 -23.632 L 44.241 -24.249 L 44.381 -24.736 L 44.52 -25.088 L 44.66 -25.306 L 44.799 -25.388 L 44.939 -25.334 L 45.078 -25.143 L 45.218 -24.817 L 45.358 -24.356 L 45.497 -23.765 L 45.637 -23.046 L 45.776 -22.205 L 45.916 -21.242 L 46.055 -20.164 L 46.195 -18.979 L 46.335 -17.692 L 46.474 -16.31 L 46.614 -14.838 L 46.753 -13.288 L 46.893 -11.666 L 47.032 -9.982 L 47.172 -8.243 L 47.311 -6.46 L 47.451 -4.643 L 47.591 -2.8 L 47.73 -.943 L 47.87 .919 L 48.009 2.776 L 48.149 4.619 L 48.288 6.437 L 48.428 8.22 L 48.568 9.96 L 48.707 11.645 L 48.847 13.267 L 48.986 14.819 L 49.126 16.29 L 49.265 17.675 L 49.405 18.963 L 49.544 20.15 L 49.684 21.228 L 49.824 22.192 L 49.963 23.037 L 50.103 23.757 L 50.242 24.349 L 50.382 24.811 L 50.521 25.14 L 50.661 25.332 L 50.8 25.389 L 50.94 25.308 L 51.08 25.092 L 51.219 24.741 L 51.359 24.256 L 51.498 23.641 L 51.638 22.899 L 51.777 22.033 L 51.917 21.05 L 52.057 19.951 L 52.196 18.746 L 52.336 17.44 L 52.475 16.041 L 52.615 14.556 L 52.754 12.991 L 52.894 11.356 L 53.034 9.661 L 53.173 7.914 L 53.313 6.124 L 53.452 4.301 L 53.592 2.454 L 53.731 .595 L 53.871 -1.267 L 54.01 -3.122 L 54.15 -4.961 L 54.29 -6.773 L 54.429 -8.549 L 54.569 -10.279 L 54.708 -11.953 L 54.848 -13.563 L 54.987 -15.1 L 55.127 -16.556 L 55.267 -17.923 L 55.406 -19.193 L 55.546 -20.359 L 55.685 -21.416 L 55.825 -22.359 L 55.964 -23.181 L 56.104 -23.878 L 56.243 -24.446 L 56.383 -24.883 L 56.523 -25.186 L 56.662 -25.354 L 56.802 -25.385 L 56.941 -25.278 L 57.081 -25.037 L 57.22 -24.66 L 57.36 -24.152 L 57.499 -23.512 L 57.639 -22.746 L 57.779 -21.858 L 57.918 -20.852 L 58.058 -19.735 L 58.197 -18.51 L 58.337 -17.186 L 58.476 -15.77 L 58.616 -14.269 L 58.756 -12.691 L 58.895 -11.044 L 59.035 -9.338 L 59.174 -7.582 L 59.314 -5.786 L 59.453 -3.957 L 59.593 -2.108 L 59.732 -.248 L 59.872 1.613 L 60.012 3.467 L 60.151 5.301 L 60.291 7.107 L 60.43 8.875 L 60.57 10.595 L 60.709 12.259 L 60.849 13.856 L 60.989 15.378 L 61.128 16.818 L 61.268 18.167 L 61.407 19.418 L 61.547 20.566 L 61.686 21.602 L 61.826 22.521 L 61.965 23.32 L 62.105 23.994 L 62.245 24.538 L 62.384 24.95 L 62.524 25.227 L 62.663 25.369 L 62.803 25.375 L 62.942 25.244 L 63.082 24.976 L 63.222 24.575 L 63.361 24.041 L 63.501 23.379 L 63.64 22.59 L 63.78 21.679 L 63.919 20.652 L 64.059 19.513 L 64.198 18.271 L 64.338 16.928 L 64.478 15.496 L 64.617 13.979 L 64.757 12.388 L 64.896 10.73 L 65.036 9.014 L 65.175 7.25 L 65.315 5.446 L 65.455 3.614 L 65.594 1.762 L 65.734 -.1 L 65.873 -1.961 L 66.013 -3.811 L 66.152 -5.641 L 66.292 -7.441 L 66.431 -9.2 L 66.571 -10.91 L 66.711 -12.562 L 66.85 -14.146 L 66.99 -15.653 L 67.129 -17.077 L 67.269 -18.408 L 67.408 -19.64 L 67.548 -20.768 L 67.688 -21.783 L 67.827 -22.68 L 67.967 -23.456 L 68.106 -24.105 L 68.246 -24.625 L 68.385 -25.012 L 68.525 -25.264 L 68.664 -25.38 L 68.804 -25.361 L 68.944 -25.205 L 69.083 -24.912 L 69.223 -24.485 L 69.362 -23.927 L 69.502 -23.241 L 69.641 -22.43 L 69.781 -21.496 L 69.921 -20.448 L 70.06 -19.289 L 70.2 -18.027 L 70.339 -16.669 L 70.479 -15.219 L 70.618 -13.688 L 70.758 -12.083 L 70.897 -10.414 L 71.037 -8.689 L 71.177 -6.916 L 71.316 -5.106 L 71.456 -3.269 L 71.595 -1.414 L 71.735 .447 L 71.874 2.307 L 72.014 4.154 L 72.153 5.98 L 72.293 7.773 L 72.433 9.524 L 72.572 11.224 L 72.712 12.863 L 72.851 14.433 L 72.991 15.926 L 73.13 17.333 L 73.27 18.646 L 73.41 19.859 L 73.549 20.965 L 73.689 21.959 L 73.828 22.834 L 73.968 23.587 L 74.107 24.211 L 74.247 24.707 L 74.386 25.07 L 74.526 25.296 L 74.666 25.388 L 74.805 25.342 L 74.945 25.159 L 75.084 24.843 L 75.224 24.391 L 75.363 23.809 L 75.503 23.098 L 75.643 22.264 L 75.782 21.309 L 75.922 20.24 L 76.061 19.061 L 76.201 17.78 L 76.34 16.404 L 76.48 14.939 L 76.619 13.394 L 76.759 11.776 L 76.899 10.095 L 77.038 8.361 L 77.178 6.58 L 77.317 4.765 L 77.457 2.924 L 77.596 1.066 L 77.736 -.795 L 77.876 -2.653 L 78.015 -4.497 L 78.155 -6.317 L 78.294 -8.103 L 78.434 -9.845 L 78.573 -11.535 L 78.713 -13.162 L 78.852 -14.718 L 78.992 -16.195 L 79.132 -17.585 L 79.271 -18.881 L 79.411 -20.074 L 79.55 -21.159 L 79.69 -22.131 L 79.829 -22.984 L 79.969 -23.714 L 80.108 -24.314 L 80.248 -24.785 L 80.388 -25.122 L 80.527 -25.324 L 80.667 -25.39 L 80.806 -25.318 L 80.946 -25.11 L 81.085 -24.768 L 81.225 -24.293 L 81.365 -23.686 L 81.504 -22.952 L 81.644 -22.094 L 81.783 -21.117 L 81.923 -20.028 L 82.062 -18.83 L 82.202 -17.53 L 82.341 -16.136 L 82.481 -14.656 L 82.621 -13.097 L 82.76 -11.467 L 82.9 -9.776 L 83.039 -8.031 L 83.179 -6.244 L 83.318 -4.423 L 83.458 -2.578 L 83.598 -.719 L 83.737 1.143 L 83.877 2.999 L 84.016 4.84 L 84.156 6.654 L 84.295 8.432 L 84.435 10.165 L 84.575 11.843 L 84.714 13.458 L 84.854 15 L 84.993 16.461 L 85.133 17.834 L 85.272 19.112 L 85.412 20.286 L 85.551 21.349 L 85.691 22.299 L 85.831 23.13 L 85.97 23.835 L 86.11 24.413 L 86.249 24.858 L 86.389 25.169 L 86.528 25.346 L 86.668 25.387 L 86.807 25.29 L 86.947 25.057 L 87.087 24.689 L 87.226 24.189 L 87.366 23.559 L 87.505 22.801 L 87.645 21.921 L 87.784 20.923 L 87.924 19.812 L 88.064 18.595 L 88.203 17.278 L 88.343 15.867 L 88.482 14.371 L 88.622 12.797 L 88.761 11.156 L 88.901 9.454 L 89.04 7.7 L 89.18 5.906 L 89.32 4.08 L 89.459 2.232 L 89.599 .372 L 89.738 -1.49 L 89.878 -3.344 L 90.017 -5.18 L 90.157 -6.988 L 90.297 -8.759 L 90.436 -10.483 L 90.576 -12.15 L 90.715 -13.752 L 90.855 -15.28 L 90.994 -16.725 L 91.134 -18.08 L 91.273 -19.338 L 91.413 -20.493 L 91.553 -21.537 L 91.692 -22.464 L 91.832 -23.271 L 91.971 -23.953 L 92.111 -24.506 L 92.25 -24.927 L 92.39 -25.213 L 92.53 -25.364 L 92.669 -25.378 L 92.809 -25.257 L 92.948 -24.999 L 93.088 -24.606 L 93.227 -24.081 L 93.367 -23.426 L 93.506 -22.646 L 93.646 -21.744 L 93.786 -20.724 L 93.925 -19.592 L 94.065 -18.356 L 94.204 -17.021 L 94.344 -15.594 L 94.483 -14.083 L 94.623 -12.496 L 94.763 -10.842 L 94.902 -9.13 L 95.042 -7.368 L 95.181 -5.567 L 95.321 -3.736 L 95.46 -1.885 L 95.6 -.024 L 95.739 1.837 L 95.879 3.689 L 96.019 5.52 L 96.158 7.322 L 96.298 9.085 L 96.437 10.799 L 96.577 12.454 L 96.716 14.043 L 96.856 15.556 L 96.996 16.985 L 97.135 18.323 L 97.275 19.561 L 97.414 20.696 L 97.554 21.719 L 97.693 22.625 L 97.833 23.408 L 97.972 24.066 L 98.112 24.594 L 98.252 24.99 L 98.391 25.252 L 98.531 25.377 L 98.67 25.366 L 98.81 25.219 L 98.949 24.936 L 99.089 24.519 L 99.229 23.969 L 99.368 23.29 L 99.508 22.486 L 99.647 21.562 L 99.787 20.521 L 99.926 19.37 L 100.066 18.114 L 100.205 16.761 L 100.345 15.318 L 100.485 13.792 L 100.624 12.192 L 100.764 10.527 L 100.903 8.804 L 101.043 7.035 L 101.182 5.228 L 101.322 3.392 L 101.461 1.538 L 101.601 -.323 L 101.741 -2.183 L 101.88 -4.032 L 102.02 -5.859 L 102.159 -7.654 L 102.299 -9.409 L 102.438 -11.113 L 102.578 -12.756 L 102.718 -14.331 L 102.857 -15.829 L 102.997 -17.242 L 103.136 -18.562 L 103.276 -19.782 L 103.415 -20.896 L 103.555 -21.896 L 103.694 -22.779 L 103.834 -23.541 L 103.974 -24.175 L 104.113 -24.678 L 104.253 -25.049 L 104.392 -25.285 L 104.532 -25.387 L 104.671 -25.349 L 104.811 -25.176 L 104.951 -24.868 L 105.09 -24.425 L 105.23 -23.852 L 105.369 -23.149 L 105.509 -22.322 L 105.648 -21.376 L 105.788 -20.315 L 105.927 -19.144 L 106.067 -17.868 L 106.207 -16.498 L 106.346 -15.039 L 106.486 -13.499 L 106.625 -11.886 L 106.765 -10.209 L 106.904 -8.477 L 107.044 -6.7 L 107.184 -4.887 L 107.323 -3.047 L 107.463 -1.191 L 107.602 .671 L 107.742 2.53 L 107.881 4.375 L 108.021 6.197 L 108.16 7.985 L 108.3 9.731 L 108.44 11.424 L 108.579 13.056 L 108.719 14.617 L 108.858 16.099 L 108.998 17.495 L 109.137 18.797 L 109.277 19.998 L 109.416 21.091 L 109.556 22.07 L 109.696 22.931 L 109.835 23.669 L 109.975 24.279 L 110.114 24.757 L 110.254 25.103 L 110.393 25.314 L 110.533 25.39 L 110.673 25.328 L 110.812 25.129 L 110.952 24.795 L 111.091 24.328 L 111.231 23.731 L 111.37 23.005 L 111.51 22.155 L 111.649 21.186 L 111.789 20.104 L 111.929 18.912 L 112.068 17.62 L 112.208 16.233 L 112.347 14.757 L 112.487 13.203 L 112.626 11.578 L 112.766 9.89 L 112.906 8.149 L 113.045 6.364 L 113.185 4.545 L 113.324 2.701 L 113.464 .843 L 113.603 -1.018 L 113.743 -2.876 L 113.882 -4.717 L 114.022 -6.534 L 114.162 -8.315 L 114.301 -10.051 L 114.441 -11.734 L 114.58 -13.353 L 114.72 -14.9 L 114.859 -16.367 L 114.999 -17.746 L 115.139 -19.029 L 115.278 -20.211 L 115.418 -21.283 L 115.557 -22.24 L 115.697 -23.078 L 115.836 -23.792 L 115.976 -24.378 L 116.115 -24.833 L 116.255 -25.154 L 116.395 -25.339 L 116.534 -25.388 L 116.674 -25.3 L 116.813 -25.078 L 116.953 -24.718 L 117.092 -24.226 L 117.232 -23.604 L 117.372 -22.855 L 117.511 -21.984 L 117.651 -20.993 L 117.79 -19.889 L 117.93 -18.679 L 118.069 -17.368 L 118.209 -15.964 L 118.349 -14.473 L 118.488 -12.905 L 118.628 -11.266 L 118.767 -9.568 L 118.907 -7.819 L 119.046 -6.026 L 119.186 -4.202 L 119.325 -2.355 L 119.465 -.496 L 119.605 1.366 L 119.744 3.221 L 119.884 5.059 L 120.023 6.869 L 120.163 8.643 L 120.302 10.369 L 120.442 12.041 L 120.581 13.647 L 120.721 15.18 L 120.861 16.632 L 121 17.993 L 121.14 19.258 L 121.279 20.419 L 121.419 21.47 L 121.558 22.407 L 121.698 23.221 L 121.838 23.911 L 121.977 24.472 L 122.117 24.903 L 122.256 25.199 L 122.396 25.359 L 122.535 25.381 L 122.675 25.268 L 122.814 25.02 L 122.954 24.637 L 123.094 24.121 L 123.233 23.474 L 123.373 22.701 L 123.512 21.807 L 123.652 20.795 L 123.791 19.671 L 123.931 18.442 L 124.071 17.113 L 124.21 15.691 L 124.35 14.186 L 124.489 12.604 L 124.629 10.954 L 124.768 9.246 L 124.908 7.487 L 125.047 5.688 L 125.187 3.859 L 125.327 2.009 L 125.466 .148 L 125.606 -1.713 L 125.745 -3.566 L 125.885 -5.4 L 126.024 -7.203 L 126.164 -8.969 L 126.303 -10.686 L 126.443 -12.347 L 126.583 -13.939 L 126.722 -15.458 L 126.862 -16.892 L 127.001 -18.237 L 127.141 -19.483 L 127.28 -20.624 L 127.42 -21.653 L 127.56 -22.567 L 127.699 -23.36 L 127.839 -24.026 L 127.978 -24.563 L 128.118 -24.968 L 128.257 -25.239 L 128.397 -25.374 L 128.536 -25.371 L 128.676 -25.233 L 128.816 -24.958 L 128.955 -24.55 L 129.095 -24.01 L 129.234 -23.339 L 129.374 -22.544 L 129.513 -21.626 L 129.653 -20.594 L 129.793 -19.45 L 129.932 -18.201 L 130.072 -16.854 L 130.211 -15.417 L 130.351 -13.897 L 130.49 -12.301 L 130.63 -10.639 L 130.769 -8.921 L 130.909 -7.153 L 131.049 -5.349 L 131.188 -3.515 L 131.328 -1.662 L 131.467 .2 L 131.607 2.06 L 131.746 3.91 L 131.886 5.738 L 132.026 7.536 L 132.165 9.293 L 132.305 11.001 L 132.444 12.649 L 132.584 14.229 L 132.723 15.732 L 132.863 17.15 L 133.002 18.477 L 133.142 19.704 L 133.282 20.825 L 133.421 21.833 L 133.561 22.724 L 133.7 23.494 L 133.84 24.137 L 133.979 24.649 L 134.119 25.029 L 134.259 25.274 L 134.398 25.383 L 134.538 25.356 L 134.677 25.192 L 134.817 24.893 L 134.956 24.459 L 135.096 23.894 L 135.235 23.201 L 135.375 22.382 L 135.515 21.442 L 135.654 20.388 L 135.794 19.224 L 135.933 17.957 L 136.073 16.592 L 136.212 15.139 L 136.352 13.604 L 136.492 11.995 L 136.631 10.323 L 136.771 8.595 L 136.91 6.82 L 137.05 5.009 L 137.189 3.17 L 137.329 1.314 L 137.468 -.547 L 137.608 -2.407 L 137.748 -4.253 L 137.887 -6.076 L 138.027 -7.867 L 138.166 -9.616 L 138.306 -11.313 L 138.445 -12.949 L 138.585 -14.516 L 138.725 -16.004 L 138.864 -17.406 L 139.004 -18.713 L 139.143 -19.921 L 139.283 -21.022 L 139.422 -22.009 "/>
<path transform="matrix(1,0,0,-1,9.385902,157.4087)" stroke-width=".797" stroke-linecap="butt" stroke-miterlimit="10" stroke-linejoin="miter" fill="none" stroke="#000000" d="M 0 0 L 0 25.39 M 11.618 0 L 11.618 25.39 M 23.237 0 L 23.237 25.39 M 34.855 0 L 34.855 25.39 M 46.473 0 L 46.473 25.39 M 58.091 0 L 58.091 25.39 M 69.71 0 L 69.71 25.39 M 81.328 0 L 81.328 25.39 M 92.946 0 L 92.946 25.39 M 104.564 0 L 104.564 25.39 M 116.183 0 L 116.183 25.39 M 127.801 0 L 127.801 25.39 M 139.419 0 L 139.419 25.39 "/>
</g>
<path transform="matrix(1,0,0,-1,10.382202,132.01831)" d="M 0 0 C 0 .55 -.446 .996 -.996 .996 C -1.547 .996 -1.993 .55 -1.993 0 C -1.993 -.55 -1.547 -.996 -.996 -.996 C -.446 -.996 0 -.55 0 0 Z "/>
<path transform="matrix(1,0,0,-1,10.382202,132.01831)" stroke-width=".797" stroke-linecap="butt" stroke-miterlimit="10" stroke-linejoin="miter" fill="none" stroke="#000000" d="M 0 0 C 0 .55 -.446 .996 -.996 .996 C -1.547 .996 -1.993 .55 -1.993 0 C -1.993 -.55 -1.547 -.996 -.996 -.996 C -.446 -.996 0 -.55 0 0 Z "/>
<path transform="matrix(1,0,0,-1,22.000403,132.01831)" d="M 0 0 C 0 .55 -.446 .996 -.996 .996 C -1.547 .996 -1.993 .55 -1.993 0 C -1.993 -.55 -1.547 -.996 -.996 -.996 C -.446 -.996 0 -.55 0 0 Z "/>
<path transform="matrix(1,0,0,-1,22.000403,132.01831)" stroke-width=".797" stroke-linecap="butt" stroke-miterlimit="10" stroke-linejoin="miter" fill="none" stroke="#000000" d="M 0 0 C 0 .55 -.446 .996 -.996 .996 C -1.547 .996 -1.993 .55 -1.993 0 C -1.993 -.55 -1.547 -.996 -.996 -.996 C -.446 -.996 0 -.55 0 0 Z "/>
<path transform="matrix(1,0,0,-1,33.618703,132.01831)" d="M 0 0 C 0 .55 -.446 .996 -.996 .996 C -1.547 .996 -1.993 .55 -1.993 0 C -1.993 -.55 -1.547 -.996 -.996 -.996 C -.446 -.996 0 -.55 0 0 Z "/>
<path transform="matrix(1,0,0,-1,33.618703,132.01831)" stroke-width=".797" stroke-linecap="butt" stroke-miterlimit="10" stroke-linejoin="miter" fill="none" stroke="#000000" d="M 0 0 C 0 .55 -.446 .996 -.996 .996 C -1.547 .996 -1.993 .55 -1.993 0 C -1.993 -.55 -1.547 -.996 -.996 -.996 C -.446 -.996 0 -.55 0 0 Z "/>
<path transform="matrix(1,0,0,-1,45.237005,132.01831)" d="M 0 0 C 0 .55 -.446 .996 -.996 .996 C -1.547 .996 -1.993 .55 -1.993 0 C -1.993 -.55 -1.547 -.996 -.996 -.996 C -.446 -.996 0 -.55 0 0 Z "/>
<path transform="matrix(1,0,0,-1,45.237005,132.01831)" stroke-width=".797" stroke-linecap="butt" stroke-miterlimit="10" stroke-linejoin="miter" fill="none" stroke="#000000" d="M 0 0 C 0 .55 -.446 .996 -.996 .996 C -1.547 .996 -1.993 .55 -1.993 0 C -1.993 -.55 -1.547 -.996 -.996 -.996 C -.446 -.996 0 -.55 0 0 Z "/>
<path transform="matrix(1,0,0,-1,56.8552,132.01831)" d="M 0 0 C 0 .55 -.446 .996 -.996 .996 C -1.547 .996 -1.993 .55 -1.993 0 C -1.993 -.55 -1.547 -.996 -.996 -.996 C -.446 -.996 0 -.55 0 0 Z "/>
<path transform="matrix(1,0,0,-1,56.8552,132.01831)" stroke-width=".797" stroke-linecap="butt" stroke-miterlimit="10" stroke-linejoin="miter" fill="none" stroke="#000000" d="M 0 0 C 0 .55 -.446 .996 -.996 .996 C -1.547 .996 -1.993 .55 -1.993 0 C -1.993 -.55 -1.547 -.996 -.996 -.996 C -.446 -.996 0 -.55 0 0 Z "/>
<path transform="matrix(1,0,0,-1,68.4735,132.01831)" d="M 0 0 C 0 .55 -.446 .996 -.996 .996 C -1.547 .996 -1.993 .55 -1.993 0 C -1.993 -.55 -1.547 -.996 -.996 -.996 C -.446 -.996 0 -.55 0 0 Z "/>
<path transform="matrix(1,0,0,-1,68.4735,132.01831)" stroke-width=".797" stroke-linecap="butt" stroke-miterlimit="10" stroke-linejoin="miter" fill="none" stroke="#000000" d="M 0 0 C 0 .55 -.446 .996 -.996 .996 C -1.547 .996 -1.993 .55 -1.993 0 C -1.993 -.55 -1.547 -.996 -.996 -.996 C -.446 -.996 0 -.55 0 0 Z "/>
<path transform="matrix(1,0,0,-1,80.091808,132.01831)" d="M 0 0 C 0 .55 -.446 .996 -.996 .996 C -1.547 .996 -1.993 .55 -1.993 0 C -1.993 -.55 -1.547 -.996 -.996 -.996 C -.446 -.996 0 -.55 0 0 Z "/>
<path transform="matrix(1,0,0,-1,80.091808,132.01831)" stroke-width=".797" stroke-linecap="butt" stroke-miterlimit="10" stroke-linejoin="miter" fill="none" stroke="#000000" d="M 0 0 C 0 .55 -.446 .996 -.996 .996 C -1.547 .996 -1.993 .55 -1.993 0 C -1.993 -.55 -1.547 -.996 -.996 -.996 C -.446 -.996 0 -.55 0 0 Z "/>
<path transform="matrix(1,0,0,-1,91.71,132.01831)" d="M 0 0 C 0 .55 -.446 .996 -.996 .996 C -1.547 .996 -1.993 .55 -1.993 0 C -1.993 -.55 -1.547 -.996 -.996 -.996 C -.446 -.996 0 -.55 0 0 Z "/>
<path transform="matrix(1,0,0,-1,91.71,132.01831)" stroke-width=".797" stroke-linecap="butt" stroke-miterlimit="10" stroke-linejoin="miter" fill="none" stroke="#000000" d="M 0 0 C 0 .55 -.446 .996 -.996 .996 C -1.547 .996 -1.993 .55 -1.993 0 C -1.993 -.55 -1.547 -.996 -.996 -.996 C -.446 -.996 0 -.55 0 0 Z "/>
<path transform="matrix(1,0,0,-1,103.3283,132.01831)" d="M 0 0 C 0 .55 -.446 .996 -.996 .996 C -1.547 .996 -1.993 .55 -1.993 0 C -1.993 -.55 -1.547 -.996 -.996 -.996 C -.446 -.996 0 -.55 0 0 Z "/>
<path transform="matrix(1,0,0,-1,103.3283,132.01831)" stroke-width=".797" stroke-linecap="butt" stroke-miterlimit="10" stroke-linejoin="miter" fill="none" stroke="#000000" d="M 0 0 C 0 .55 -.446 .996 -.996 .996 C -1.547 .996 -1.993 .55 -1.993 0 C -1.993 -.55 -1.547 -.996 -.996 -.996 C -.446 -.996 0 -.55 0 0 Z "/>
<path transform="matrix(1,0,0,-1,114.9465,132.01831)" d="M 0 0 C 0 .55 -.446 .996 -.996 .996 C -1.547 .996 -1.993 .55 -1.993 0 C -1.993 -.55 -1.547 -.996 -.996 -.996 C -.446 -.996 0 -.55 0 0 Z "/>
<path transform="matrix(1,0,0,-1,114.9465,132.01831)" stroke-width=".797" stroke-linecap="butt" stroke-miterlimit="10" stroke-linejoin="miter" fill="none" stroke="#000000" d="M 0 0 C 0 .55 -.446 .996 -.996 .996 C -1.547 .996 -1.993 .55 -1.993 0 C -1.993 -.55 -1.547 -.996 -.996 -.996 C -.446 -.996 0 -.55 0 0 Z "/>
<path transform="matrix(1,0,0,-1,126.564807,132.01831)" d="M 0 0 C 0 .55 -.446 .996 -.996 .996 C -1.547 .996 -1.993 .55 -1.993 0 C -1.993 -.55 -1.547 -.996 -.996 -.996 C -.446 -.996 0 -.55 0 0 Z "/>
<path transform="matrix(1,0,0,-1,126.564807,132.01831)" stroke-width=".797" stroke-linecap="butt" stroke-miterlimit="10" stroke-linejoin="miter" fill="none" stroke="#000000" d="M 0 0 C 0 .55 -.446 .996 -.996 .996 C -1.547 .996 -1.993 .55 -1.993 0 C -1.993 -.55 -1.547 -.996 -.996 -.996 C -.446 -.996 0 -.55 0 0 Z "/>
<path transform="matrix(1,0,0,-1,138.1831,132.01831)" d="M 0 0 C 0 .55 -.446 .996 -.996 .996 C -1.547 .996 -1.993 .55 -1.993 0 C -1.993 -.55 -1.547 -.996 -.996 -.996 C -.446 -.996 0 -.55 0 0 Z "/>
<path transform="matrix(1,0,0,-1,138.1831,132.01831)" stroke-width=".797" stroke-linecap="butt" stroke-miterlimit="10" stroke-linejoin="miter" fill="none" stroke="#000000" d="M 0 0 C 0 .55 -.446 .996 -.996 .996 C -1.547 .996 -1.993 .55 -1.993 0 C -1.993 -.55 -1.547 -.996 -.996 -.996 C -.446 -.996 0 -.55 0 0 Z "/>
<path transform="matrix(1,0,0,-1,149.8013,132.01831)" d="M 0 0 C 0 .55 -.446 .996 -.996 .996 C -1.547 .996 -1.993 .55 -1.993 0 C -1.993 -.55 -1.547 -.996 -.996 -.996 C -.446 -.996 0 -.55 0 0 Z "/>
<path transform="matrix(1,0,0,-1,149.8013,132.01831)" stroke-width=".797" stroke-linecap="butt" stroke-miterlimit="10" stroke-linejoin="miter" fill="none" stroke="#000000" d="M 0 0 C 0 .55 -.446 .996 -.996 .996 C -1.547 .996 -1.993 .55 -1.993 0 C -1.993 -.55 -1.547 -.996 -.996 -.996 C -.446 -.996 0 -.55 0 0 Z "/>
<text xml:space="preserve" transform="matrix(1 0 -0 1 -67.7461 419.704)" font-size="8.966" font-family="CMMI9" font-style="italic"><tspan y="-265.815" x="209.702">t</tspan><tspan y="-295.213" x="80.65199">s</tspan></text>
<text xml:space="preserve" transform="matrix(1 0 -0 1 -67.7461 419.704)" font-size="8.966" font-family="CMR9"><tspan y="-295.213" x="84.94671">(</tspan></text>
<text xml:space="preserve" transform="matrix(1 0 -0 1 -67.7461 419.704)" font-size="8.966" font-family="CMMI9" font-style="italic"><tspan y="-295.213" x="88.53311">t</tspan></text>
<text xml:space="preserve" transform="matrix(1 0 -0 1 -67.7461 419.704)" font-size="8.966" font-family="CMR9"><tspan y="-295.213" x="91.8595">)</tspan><tspan y="-223.057" x="102.29099 105.877399 109.97486">(c)</tspan></text>
<text xml:space="preserve" transform="matrix(1 0 -0 1 -67.7461 419.704)" font-size="8.966" font-family="CMMI9" font-style="italic"><tspan y="-223.057" x="116.62599">s</tspan></text>
<text xml:space="preserve" transform="matrix(1 0 -0 1 -67.7461 419.704)" font-size="8.966" font-family="CMR9"><tspan y="-223.057" x="120.92071">(</tspan></text>
<text xml:space="preserve" transform="matrix(1 0 -0 1 -67.7461 419.704)" font-size="8.966" font-family="CMMI9" font-style="italic"><tspan y="-223.057" x="124.50711">t</tspan></text>
<text xml:space="preserve" transform="matrix(1 0 -0 1 -67.7461 419.704)" font-size="8.966" font-family="CMR9"><tspan y="-223.057" x="127.833499 131.41989 138.08158 140.64585 148.32971 153.4493 158.56888 161.13315 164.76438 171.92819 175.51459 179.11893 183.72745 186.29172">):impulsetrain</tspan></text>
<path transform="matrix(1,0,0,-1,211.07779,159.53472)" stroke-width=".199" stroke-linecap="butt" stroke-miterlimit="10" stroke-linejoin="miter" fill="none" stroke="#929292" d="M 0 0 L 0 4.252 M 53.028 0 L 53.028 4.252 M 79.541 0 L 79.541 4.252 M 106.055 0 L 106.055 4.252 M 132.569 0 L 132.569 4.252 M 159.083 0 L 159.083 4.252 M 185.596 0 L 185.596 4.252 M 212.11 0 L 212.11 4.252 "/>
<path transform="matrix(1,0,0,-1,235.46559,132.01831)" stroke-width=".199" stroke-linecap="butt" stroke-miterlimit="10" stroke-linejoin="miter" fill="none" stroke="#929292" d="M 0 0 L 4.252 0 "/>
<path transform="matrix(1,0,0,-1,197.82089,157.4087)" stroke-width=".398" stroke-linecap="butt" stroke-miterlimit="10" stroke-linejoin="miter" fill="none" stroke="#000000" d="M 0 0 L 236.631 0 "/>
<path transform="matrix(1,0,0,-1,436.4448,157.40866)" d="M 0 0 L -3.188 1.594 L -1.993 0 L -3.188 -1.594 "/>
<path transform="matrix(1,0,0,-1,237.59149,182.79901)" stroke-width=".398" stroke-linecap="butt" stroke-miterlimit="10" stroke-linejoin="miter" fill="none" stroke="#000000" d="M 0 0 L 0 66.561 "/>
<path transform="matrix(0,-1,-1,-0,237.59156,114.24511)" d="M 0 0 L -3.188 1.594 L -1.993 0 L -3.188 -1.594 "/>
<text xml:space="preserve" transform="matrix(1 0 -0 1 -67.7461 419.704)" font-size="8.966" font-family="CMSY9" font-style="italic"><tspan y="-248.978" x="270.378">&#x2212;</tspan></text>
<text xml:space="preserve" transform="matrix(1 0 -0 1 -67.7461 419.704)" font-size="8.966" font-family="CMMI9" font-style="italic"><tspan y="-248.978" x="277.54185">&#x03c9;</tspan></text>
<text xml:space="preserve" transform="matrix(1 0 -0 1 -67.7461 419.704)" font-size="5.978" font-family="CMMI6" font-style="italic"><tspan y="-247.982" x="283.27799">s</tspan></text>
<text xml:space="preserve" transform="matrix(1 0 -0 1 -67.7461 419.704)" font-size="8.966" font-family="CMMI9" font-style="italic"><tspan y="-248.978" x="326.98799">&#x03c9;</tspan></text>
<text xml:space="preserve" transform="matrix(1 0 -0 1 -67.7461 419.704)" font-size="5.978" font-family="CMMI6" font-style="italic"><tspan y="-247.982" x="332.722">s</tspan></text>
<text xml:space="preserve" transform="matrix(1 0 -0 1 -67.7461 419.704)" font-size="8.966" font-family="CMR9"><tspan y="-248.978" x="351.198">2</tspan></text>
<text xml:space="preserve" transform="matrix(1 0 -0 1 -67.7461 419.704)" font-size="8.966" font-family="CMMI9" font-style="italic"><tspan y="-248.978" x="355.80653">&#x03c9;</tspan></text>
<text xml:space="preserve" transform="matrix(1 0 -0 1 -67.7461 419.704)" font-size="5.978" font-family="CMMI6" font-style="italic"><tspan y="-247.982" x="361.539">s</tspan></text>
<text xml:space="preserve" transform="matrix(1 0 -0 1 -67.7461 419.704)" font-size="8.966" font-family="CMR9"><tspan y="-248.978" x="377.711">3</tspan></text>
<text xml:space="preserve" transform="matrix(1 0 -0 1 -67.7461 419.704)" font-size="8.966" font-family="CMMI9" font-style="italic"><tspan y="-248.978" x="382.31953">&#x03c9;</tspan></text>
<text xml:space="preserve" transform="matrix(1 0 -0 1 -67.7461 419.704)" font-size="5.978" font-family="CMMI6" font-style="italic"><tspan y="-247.982" x="388.052">s</tspan></text>
<text xml:space="preserve" transform="matrix(1 0 -0 1 -67.7461 419.704)" font-size="8.966" font-family="CMR9"><tspan y="-248.978" x="404.225">4</tspan></text>
<text xml:space="preserve" transform="matrix(1 0 -0 1 -67.7461 419.704)" font-size="8.966" font-family="CMMI9" font-style="italic"><tspan y="-248.978" x="408.83354">&#x03c9;</tspan></text>
<text xml:space="preserve" transform="matrix(1 0 -0 1 -67.7461 419.704)" font-size="5.978" font-family="CMMI6" font-style="italic"><tspan y="-247.982" x="414.566">s</tspan></text>
<text xml:space="preserve" transform="matrix(1 0 -0 1 -67.7461 419.704)" font-size="8.966" font-family="CMR9"><tspan y="-248.978" x="430.738">5</tspan></text>
<text xml:space="preserve" transform="matrix(1 0 -0 1 -67.7461 419.704)" font-size="8.966" font-family="CMMI9" font-style="italic"><tspan y="-248.978" x="435.34654">&#x03c9;</tspan></text>
<text xml:space="preserve" transform="matrix(1 0 -0 1 -67.7461 419.704)" font-size="5.978" font-family="CMMI6" font-style="italic"><tspan y="-247.982" x="441.079">s</tspan></text>
<text xml:space="preserve" transform="matrix(1 0 -0 1 -67.7461 419.704)" font-size="8.966" font-family="CMR9"><tspan y="-248.978" x="457.252">6</tspan></text>
<text xml:space="preserve" transform="matrix(1 0 -0 1 -67.7461 419.704)" font-size="8.966" font-family="CMMI9" font-style="italic"><tspan y="-248.978" x="461.86054">&#x03c9;</tspan></text>
<text xml:space="preserve" transform="matrix(1 0 -0 1 -67.7461 419.704)" font-size="5.978" font-family="CMMI6" font-style="italic"><tspan y="-247.982" x="467.59303">s</tspan></text>
<text xml:space="preserve" transform="matrix(1 0 -0 1 -67.7461 419.704)" font-size="8.966" font-family="CMR9"><tspan y="-248.978" x="483.765">7</tspan></text>
<text xml:space="preserve" transform="matrix(1 0 -0 1 -67.7461 419.704)" font-size="8.966" font-family="CMMI9" font-style="italic"><tspan y="-248.978" x="488.37355">&#x03c9;</tspan></text>
<text xml:space="preserve" transform="matrix(1 0 -0 1 -67.7461 419.704)" font-size="5.978" font-family="CMMI6" font-style="italic"><tspan y="-247.982" x="494.10603">s</tspan></text>
<text xml:space="preserve" transform="matrix(1 0 -0 1 -67.7461 419.704)" font-size="5.978" font-family="CMR6"><tspan y="-289.167" x="297.321">1</tspan></text>
<path transform="matrix(1,0,0,-1,228.7319,131.96903)" stroke-width=".379" stroke-linecap="butt" stroke-miterlimit="10" stroke-linejoin="miter" fill="none" stroke="#000000" d="M 0 0 L 5.339 0 "/>
<text xml:space="preserve" transform="matrix(1 0 -0 1 -67.7461 419.704)" font-size="5.978" font-family="CMMI6" font-style="italic"><tspan y="-282.451" x="296.478">T</tspan></text>
<clipPath id="cp3">
<path transform="matrix(1,0,0,-1,197.82089,182.79901)" d="M 0 0 L 238.624 0 L 238.624 68.554 L 0 68.554 Z "/>
</clipPath>
<g clip-path="url(#cp3)">
<path transform="matrix(1,0,0,-1,211.07779,157.4087)" stroke-width=".797" stroke-linecap="butt" stroke-miterlimit="10" stroke-linejoin="miter" fill="none" stroke="#000000" d="M 0 0 L 0 25.39 M 26.514 0 L 26.514 25.39 M 53.028 0 L 53.028 25.39 M 79.541 0 L 79.541 25.39 M 106.055 0 L 106.055 25.39 M 132.569 0 L 132.569 25.39 M 159.083 0 L 159.083 25.39 M 185.596 0 L 185.596 25.39 M 212.11 0 L 212.11 25.39 "/>
</g>
<path transform="matrix(1,0,0,-1,212.0741,132.01831)" d="M 0 0 C 0 .55 -.446 .996 -.996 .996 C -1.547 .996 -1.993 .55 -1.993 0 C -1.993 -.55 -1.547 -.996 -.996 -.996 C -.446 -.996 0 -.55 0 0 Z "/>
<path transform="matrix(1,0,0,-1,212.0741,132.01831)" stroke-width=".797" stroke-linecap="butt" stroke-miterlimit="10" stroke-linejoin="miter" fill="none" stroke="#000000" d="M 0 0 C 0 .55 -.446 .996 -.996 .996 C -1.547 .996 -1.993 .55 -1.993 0 C -1.993 -.55 -1.547 -.996 -.996 -.996 C -.446 -.996 0 -.55 0 0 Z "/>
<path transform="matrix(1,0,0,-1,238.5878,132.01831)" d="M 0 0 C 0 .55 -.446 .996 -.996 .996 C -1.547 .996 -1.993 .55 -1.993 0 C -1.993 -.55 -1.547 -.996 -.996 -.996 C -.446 -.996 0 -.55 0 0 Z "/>
<path transform="matrix(1,0,0,-1,238.5878,132.01831)" stroke-width=".797" stroke-linecap="butt" stroke-miterlimit="10" stroke-linejoin="miter" fill="none" stroke="#000000" d="M 0 0 C 0 .55 -.446 .996 -.996 .996 C -1.547 .996 -1.993 .55 -1.993 0 C -1.993 -.55 -1.547 -.996 -.996 -.996 C -.446 -.996 0 -.55 0 0 Z "/>
<path transform="matrix(1,0,0,-1,265.1016,132.01831)" d="M 0 0 C 0 .55 -.446 .996 -.996 .996 C -1.547 .996 -1.993 .55 -1.993 0 C -1.993 -.55 -1.547 -.996 -.996 -.996 C -.446 -.996 0 -.55 0 0 Z "/>
<path transform="matrix(1,0,0,-1,265.1016,132.01831)" stroke-width=".797" stroke-linecap="butt" stroke-miterlimit="10" stroke-linejoin="miter" fill="none" stroke="#000000" d="M 0 0 C 0 .55 -.446 .996 -.996 .996 C -1.547 .996 -1.993 .55 -1.993 0 C -1.993 -.55 -1.547 -.996 -.996 -.996 C -.446 -.996 0 -.55 0 0 Z "/>
<path transform="matrix(1,0,0,-1,291.6154,132.01831)" d="M 0 0 C 0 .55 -.446 .996 -.996 .996 C -1.546 .996 -1.993 .55 -1.993 0 C -1.993 -.55 -1.546 -.996 -.996 -.996 C -.446 -.996 0 -.55 0 0 Z "/>
<path transform="matrix(1,0,0,-1,291.6154,132.01831)" stroke-width=".797" stroke-linecap="butt" stroke-miterlimit="10" stroke-linejoin="miter" fill="none" stroke="#000000" d="M 0 0 C 0 .55 -.446 .996 -.996 .996 C -1.546 .996 -1.993 .55 -1.993 0 C -1.993 -.55 -1.546 -.996 -.996 -.996 C -.446 -.996 0 -.55 0 0 Z "/>
<path transform="matrix(1,0,0,-1,318.1291,132.01831)" d="M 0 0 C 0 .55 -.446 .996 -.996 .996 C -1.547 .996 -1.993 .55 -1.993 0 C -1.993 -.55 -1.547 -.996 -.996 -.996 C -.446 -.996 0 -.55 0 0 Z "/>
<path transform="matrix(1,0,0,-1,318.1291,132.01831)" stroke-width=".797" stroke-linecap="butt" stroke-miterlimit="10" stroke-linejoin="miter" fill="none" stroke="#000000" d="M 0 0 C 0 .55 -.446 .996 -.996 .996 C -1.547 .996 -1.993 .55 -1.993 0 C -1.993 -.55 -1.547 -.996 -.996 -.996 C -.446 -.996 0 -.55 0 0 Z "/>
<path transform="matrix(1,0,0,-1,344.64289,132.01831)" d="M 0 0 C 0 .55 -.446 .996 -.996 .996 C -1.547 .996 -1.993 .55 -1.993 0 C -1.993 -.55 -1.547 -.996 -.996 -.996 C -.446 -.996 0 -.55 0 0 Z "/>
<path transform="matrix(1,0,0,-1,344.64289,132.01831)" stroke-width=".797" stroke-linecap="butt" stroke-miterlimit="10" stroke-linejoin="miter" fill="none" stroke="#000000" d="M 0 0 C 0 .55 -.446 .996 -.996 .996 C -1.547 .996 -1.993 .55 -1.993 0 C -1.993 -.55 -1.547 -.996 -.996 -.996 C -.446 -.996 0 -.55 0 0 Z "/>
<path transform="matrix(1,0,0,-1,371.15669,132.01831)" d="M 0 0 C 0 .55 -.446 .996 -.996 .996 C -1.547 .996 -1.993 .55 -1.993 0 C -1.993 -.55 -1.547 -.996 -.996 -.996 C -.446 -.996 0 -.55 0 0 Z "/>
<path transform="matrix(1,0,0,-1,371.15669,132.01831)" stroke-width=".797" stroke-linecap="butt" stroke-miterlimit="10" stroke-linejoin="miter" fill="none" stroke="#000000" d="M 0 0 C 0 .55 -.446 .996 -.996 .996 C -1.547 .996 -1.993 .55 -1.993 0 C -1.993 -.55 -1.547 -.996 -.996 -.996 C -.446 -.996 0 -.55 0 0 Z "/>
<path transform="matrix(1,0,0,-1,397.6704,132.01831)" d="M 0 0 C 0 .55 -.446 .996 -.996 .996 C -1.547 .996 -1.993 .55 -1.993 0 C -1.993 -.55 -1.547 -.996 -.996 -.996 C -.446 -.996 0 -.55 0 0 Z "/>
<path transform="matrix(1,0,0,-1,397.6704,132.01831)" stroke-width=".797" stroke-linecap="butt" stroke-miterlimit="10" stroke-linejoin="miter" fill="none" stroke="#000000" d="M 0 0 C 0 .55 -.446 .996 -.996 .996 C -1.547 .996 -1.993 .55 -1.993 0 C -1.993 -.55 -1.547 -.996 -.996 -.996 C -.446 -.996 0 -.55 0 0 Z "/>
<path transform="matrix(1,0,0,-1,424.1842,132.01831)" d="M 0 0 C 0 .55 -.446 .996 -.996 .996 C -1.547 .996 -1.993 .55 -1.993 0 C -1.993 -.55 -1.547 -.996 -.996 -.996 C -.446 -.996 0 -.55 0 0 Z "/>
<path transform="matrix(1,0,0,-1,424.1842,132.01831)" stroke-width=".797" stroke-linecap="butt" stroke-miterlimit="10" stroke-linejoin="miter" fill="none" stroke="#000000" d="M 0 0 C 0 .55 -.446 .996 -.996 .996 C -1.547 .996 -1.993 .55 -1.993 0 C -1.993 -.55 -1.547 -.996 -.996 -.996 C -.446 -.996 0 -.55 0 0 Z "/>
<text xml:space="preserve" transform="matrix(1 0 -0 1 -67.7461 419.704)" font-size="8.966" font-family="CMMI9" font-style="italic"><tspan y="-265.815" x="494.613">&#x03c9;</tspan></text>
<text xml:space="preserve" transform="matrix(1 0 -0 1 -67.7461 419.704)" font-size="8.966" font-family="CMSY9" font-style="italic"><tspan y="-295.213" x="308.857">|</tspan></text>
<text xml:space="preserve" transform="matrix(1 0 -0 1 -67.7461 419.704)" font-size="8.966" font-family="CMMI9" font-style="italic"><tspan y="-295.213" x="311.42127">S</tspan></text>
<text xml:space="preserve" transform="matrix(1 0 -0 1 -67.7461 419.704)" font-size="8.966" font-family="CMR9"><tspan y="-295.213" x="317.556">(</tspan></text>
<text xml:space="preserve" transform="matrix(1 0 -0 1 -67.7461 419.704)" font-size="8.966" font-family="CMMI9" font-style="italic"><tspan y="-295.213" x="321.1424 325.4192">j&#x03c9;</tspan></text>
<text xml:space="preserve" transform="matrix(1 0 -0 1 -67.7461 419.704)" font-size="8.966" font-family="CMR9"><tspan y="-295.213" x="331.476">)</tspan></text>
<text xml:space="preserve" transform="matrix(1 0 -0 1 -67.7461 419.704)" font-size="8.966" font-family="CMSY9" font-style="italic"><tspan y="-295.213" x="335.0624">|</tspan></text>
<text xml:space="preserve" transform="matrix(1 0 -0 1 -67.7461 419.704)" font-size="8.966" font-family="CMR9"><tspan y="-223.057" x="272.454 276.0404 281.16 287.81278 292.93238 298.31196 302.40943 306.5069 310.0933 313.69764 318.81724 329.57649 334.176 340.0667 343.6531 348.7727 355.94557 360.55409 364.15843 366.7227 371.3312 373.89549 379.01509 383.6236 389.25425 393.3517 397.96025 402.82875 406.41514 408.9794 413.83903 418.95863 423.56715 428.68675 432.31797 435.3933 438.9797 441.54399 449.22785 456.3917 460.02293 462.5872 467.1957 472.3153 476.92384">(d)Spectrumoftheoriginalcontinuous-timesignal</tspan></text>
<text xml:space="preserve" transform="matrix(1 0 -0 1 -67.7461 419.704)" font-size="8.966" font-family="CMMI9" font-style="italic"><tspan y="-223.057" x="482.514">s</tspan></text>
<text xml:space="preserve" transform="matrix(1 0 -0 1 -67.7461 419.704)" font-size="8.966" font-family="CMR9"><tspan y="-223.057" x="486.80873">(</tspan></text>
<text xml:space="preserve" transform="matrix(1 0 -0 1 -67.7461 419.704)" font-size="8.966" font-family="CMMI9" font-style="italic"><tspan y="-223.057" x="490.3951">t</tspan></text>
<text xml:space="preserve" transform="matrix(1 0 -0 1 -67.7461 419.704)" font-size="8.966" font-family="CMR9"><tspan y="-223.057" x="493.7215">)</tspan></text>
</g>
</svg>
