<?xml version="1.0" encoding="UTF-8" standalone="no"?>
<!DOCTYPE svg PUBLIC "-//W3C//DTD SVG 1.1//EN" "http://www.w3.org/Graphics/SVG/1.1/DTD/svg11.dtd">
<svg xmlns="http://www.w3.org/2000/svg" xmlns:xlink="http://www.w3.org/1999/xlink" version="1.1" width="473.62779pt" height="94.11798pt" viewBox="0 0 473.62779 94.11798">
<g enable-background="new">
<path transform="matrix(1,0,0,-1,7.3918039,48.17867)" stroke-width=".398" stroke-linecap="butt" stroke-miterlimit="10" stroke-linejoin="miter" fill="none" stroke="#000000" d="M 0 0 L 123.252 0 "/>
<path transform="matrix(1,0,0,-1,132.63588,48.17865)" d="M 0 0 L -3.188 1.594 L -1.993 0 L -3.188 -1.594 "/>
<path transform="matrix(1,0,0,-1,7.3918039,73.56897)" stroke-width=".398" stroke-linecap="butt" stroke-miterlimit="10" stroke-linejoin="miter" fill="none" stroke="#000000" d="M 0 0 L 0 66.561 "/>
<path transform="matrix(0,-1,-1,-0,7.3918039,5.0150687)" d="M 0 0 L -3.188 1.594 L -1.993 0 L -3.188 -1.594 "/>
<clipPath id="cp0">
<path transform="matrix(1,0,0,-1,7.3918039,73.56897)" d="M 0 0 L 125.244 0 L 125.244 68.554 L 0 68.554 Z "/>
</clipPath>
<g clip-path="url(#cp0)">
<path transform="matrix(1,0,0,-1,7.3918039,48.17867)" stroke-width=".398" stroke-linecap="butt" stroke-miterlimit="10" stroke-linejoin="miter" fill="none" stroke="#000000" d="M 0 0 L 1.265 1.878 L 2.53 3.746 L 3.795 5.593 L 5.06 7.41 L 6.325 9.186 L 7.591 10.912 L 8.856 12.578 L 10.121 14.175 L 11.386 15.695 L 12.651 17.127 L 13.916 18.467 L 15.181 19.706 L 16.446 20.836 L 17.711 21.852 L 18.976 22.748 L 20.241 23.521 L 21.507 24.164 L 22.772 24.673 L 24.037 25.049 L 25.302 25.287 L 26.567 25.387 L 27.832 25.346 L 29.097 25.168 L 30.362 24.852 L 31.627 24.399 L 32.892 23.812 L 34.157 23.095 L 35.423 22.251 L 36.688 21.286 L 37.953 20.204 L 39.218 19.01 L 40.483 17.714 L 41.748 16.32 L 43.013 14.837 L 44.278 13.272 L 45.543 11.634 L 46.808 9.933 L 48.073 8.177 L 49.339 6.377 L 50.604 4.541 L 51.869 2.681 L 53.134 .805 L 54.399 -1.073 L 55.664 -2.947 L 56.929 -4.804 L 58.194 -6.636 L 59.459 -8.43 L 60.724 -10.179 L 61.989 -11.872 L 63.255 -13.5 L 64.52 -15.053 L 65.785 -16.524 L 67.05 -17.905 L 68.315 -19.188 L 69.58 -20.365 L 70.845 -21.43 L 72.11 -22.379 L 73.375 -23.205 L 74.64 -23.904 L 75.906 -24.471 L 77.171 -24.905 L 78.436 -25.202 L 79.701 -25.361 L 80.966 -25.38 L 82.231 -25.261 L 83.496 -25.004 L 84.761 -24.609 L 86.026 -24.08 L 87.291 -23.418 L 88.556 -22.629 L 89.822 -21.715 L 91.087 -20.682 L 92.352 -19.536 L 93.617 -18.283 L 94.882 -16.929 L 96.147 -15.483 L 97.412 -13.952 L 98.677 -12.345 L 99.942 -10.67 L 101.207 -8.936 L 102.472 -7.153 L 103.738 -5.332 L 105.003 -3.481 L 106.268 -1.611 L 107.533 .267 L 108.798 2.145 L 110.063 4.011 L 111.328 5.854 L 112.593 7.665 L 113.858 9.435 L 115.123 11.153 L 116.388 12.81 L 117.654 14.396 L 118.919 15.904 L 120.184 17.325 L 121.449 18.649 L 122.714 19.873 L 123.979 20.988 L 125.244 21.988 "/>
</g>
<text xml:space="preserve" transform="matrix(1 0 -0 1 -58.9642 628.397)" font-size="8.966" font-family="CMMI9" font-style="italic"><tspan y="-583.738" x="184.751">t</tspan><tspan y="-613.13699" x="69.87601">x</tspan></text>
<text xml:space="preserve" transform="matrix(1 0 -0 1 -58.9642 628.397)" font-size="8.966" font-family="CMR9"><tspan y="-613.13699" x="75.10319">(</tspan></text>
<text xml:space="preserve" transform="matrix(1 0 -0 1 -58.9642 628.397)" font-size="8.966" font-family="CMMI9" font-style="italic"><tspan y="-613.13699" x="78.68959">t</tspan></text>
<text xml:space="preserve" transform="matrix(1 0 -0 1 -58.9642 628.397)" font-size="8.966" font-family="CMR9"><tspan y="-613.13699" x="82.015979">)</tspan><tspan y="-540.98" x="65.26101 68.84741 73.45593">(a)</tspan></text>
<text xml:space="preserve" transform="matrix(1 0 -0 1 -58.9642 628.397)" font-size="8.966" font-family="CMMI9" font-style="italic"><tspan y="-540.98" x="80.10801">x</tspan></text>
<text xml:space="preserve" transform="matrix(1 0 -0 1 -58.9642 628.397)" font-size="8.966" font-family="CMR9"><tspan y="-540.98" x="85.33519">(</tspan></text>
<text xml:space="preserve" transform="matrix(1 0 -0 1 -58.9642 628.397)" font-size="8.966" font-family="CMMI9" font-style="italic"><tspan y="-540.98" x="88.92159">t</tspan></text>
<text xml:space="preserve" transform="matrix(1 0 -0 1 -58.9642 628.397)" font-size="8.966" font-family="CMR9"><tspan y="-540.98" x="92.24798 95.83438 102.49608 106.593547 111.202068 116.06166 119.64806 122.21234 127.08094 132.20053 136.80905 141.91963 145.55086 148.62619 152.21259 154.77686 162.46073 169.63355 173.26477 175.82904 180.43756 185.55715 190.16567">):continuous-timesignal</tspan></text>
<text xml:space="preserve" transform="matrix(1 0 -0 1 -58.9642 628.397)" font-size="9.963" font-family="CMBSY10" font-weight="bold" font-style="italic"><tspan y="-583.12698" x="208.022">&#x00d7;</tspan></text>
<path transform="matrix(1,0,0,-1,174.3918,48.17867)" stroke-width=".398" stroke-linecap="butt" stroke-miterlimit="10" stroke-linejoin="miter" fill="none" stroke="#000000" d="M 0 0 L 123.255 0 "/>
<path transform="matrix(1,0,0,-1,299.63945,48.17865)" d="M 0 0 L -3.188 1.594 L -1.993 0 L -3.188 -1.594 "/>
<path transform="matrix(1,0,0,-1,174.3918,73.56897)" stroke-width=".398" stroke-linecap="butt" stroke-miterlimit="10" stroke-linejoin="miter" fill="none" stroke="#000000" d="M 0 0 L 0 66.561 "/>
<path transform="matrix(0,-1,-1,-0,174.3918,5.0150687)" d="M 0 0 L -3.188 1.594 L -1.993 0 L -3.188 -1.594 "/>
<clipPath id="cp1">
<path transform="matrix(1,0,0,-1,174.3918,73.56897)" d="M 0 0 L 125.248 0 L 125.248 68.554 L 0 68.554 Z "/>
</clipPath>
<g clip-path="url(#cp1)">
<path transform="matrix(1,0,0,-1,174.3918,48.17867)" stroke-width=".398" stroke-linecap="butt" stroke-miterlimit="10" stroke-linejoin="miter" fill="none" stroke="#ffffff" d="M 0 0 L .125 .186 L .251 .372 L .376 .559 L .501 .745 L .627 .931 L .752 1.117 L .878 1.303 L 1.003 1.489 L 1.128 1.675 L 1.254 1.861 L 1.379 2.047 L 1.504 2.233 L 1.63 2.418 L 1.755 2.604 L 1.881 2.788 L 2.006 2.973 L 2.131 3.159 L 2.257 3.343 L 2.382 3.528 L 2.507 3.712 L 2.633 3.897 L 2.758 4.08 L 2.884 4.264 L 3.009 4.448 L 3.134 4.631 L 3.26 4.815 L 3.385 4.997 L 3.51 5.18 L 3.636 5.362 L 3.761 5.544 L 3.887 5.726 L 4.012 5.907 L 4.137 6.088 L 4.263 6.269 L 4.388 6.449 L 4.513 6.629 L 4.639 6.808 L 4.764 6.988 L 4.89 7.167 L 5.015 7.345 L 5.14 7.523 L 5.266 7.701 L 5.391 7.879 L 5.516 8.055 L 5.642 8.232 L 5.767 8.408 L 5.893 8.584 L 6.018 8.759 L 6.143 8.933 L 6.269 9.108 L 6.394 9.281 L 6.519 9.454 L 6.645 9.627 L 6.77 9.799 L 6.896 9.971 L 7.021 10.142 L 7.146 10.312 L 7.272 10.482 L 7.397 10.651 L 7.522 10.82 L 7.648 10.989 L 7.773 11.156 L 7.898 11.323 L 8.024 11.49 L 8.149 11.655 L 8.275 11.821 L 8.4 11.985 L 8.525 12.149 L 8.651 12.313 L 8.776 12.475 L 8.901 12.638 L 9.027 12.798 L 9.152 12.959 L 9.278 13.119 L 9.403 13.278 L 9.528 13.437 L 9.654 13.594 L 9.779 13.751 L 9.904 13.907 L 10.03 14.062 L 10.155 14.217 L 10.281 14.371 L 10.406 14.525 L 10.531 14.677 L 10.657 14.828 L 10.782 14.98 L 10.907 15.129 L 11.033 15.279 L 11.158 15.427 L 11.284 15.574 L 11.409 15.721 L 11.534 15.867 L 11.66 16.013 L 11.785 16.156 L 11.91 16.3 L 12.036 16.442 L 12.161 16.584 L 12.287 16.724 L 12.412 16.864 L 12.537 17.003 L 12.663 17.141 L 12.788 17.278 L 12.913 17.414 L 13.039 17.549 L 13.164 17.683 L 13.29 17.816 L 13.415 17.949 L 13.54 18.08 L 13.666 18.21 L 13.791 18.339 L 13.916 18.468 L 14.042 18.595 L 14.167 18.721 L 14.292 18.847 L 14.418 18.971 L 14.543 19.094 L 14.669 19.217 L 14.794 19.338 L 14.919 19.458 L 15.045 19.577 L 15.17 19.696 L 15.295 19.812 L 15.421 19.928 L 15.546 20.043 L 15.672 20.157 L 15.797 20.271 L 15.922 20.382 L 16.048 20.492 L 16.173 20.601 L 16.299 20.71 L 16.424 20.817 L 16.549 20.923 L 16.675 21.028 L 16.8 21.132 L 16.925 21.235 L 17.051 21.336 L 17.176 21.437 L 17.301 21.536 L 17.427 21.634 L 17.552 21.731 L 17.678 21.826 L 17.803 21.921 L 17.928 22.015 L 18.054 22.107 L 18.179 22.198 L 18.304 22.287 L 18.43 22.376 L 18.555 22.464 L 18.681 22.55 L 18.806 22.635 L 18.931 22.719 L 19.057 22.801 L 19.182 22.883 L 19.307 22.963 L 19.433 23.042 L 19.558 23.119 L 19.684 23.196 L 19.809 23.27 L 19.934 23.345 L 20.06 23.417 L 20.185 23.489 L 20.31 23.559 L 20.436 23.627 L 20.561 23.695 L 20.687 23.761 L 20.812 23.826 L 20.937 23.89 L 21.063 23.952 L 21.188 24.014 L 21.313 24.073 L 21.439 24.132 L 21.564 24.189 L 21.69 24.245 L 21.815 24.3 L 21.94 24.353 L 22.066 24.405 L 22.191 24.455 L 22.316 24.505 L 22.442 24.553 L 22.567 24.6 L 22.693 24.646 L 22.818 24.69 L 22.943 24.732 L 23.069 24.774 L 23.194 24.814 L 23.319 24.853 L 23.445 24.89 L 23.57 24.927 L 23.695 24.961 L 23.821 24.995 L 23.946 25.026 L 24.072 25.057 L 24.197 25.087 L 24.322 25.114 L 24.448 25.142 L 24.573 25.166 L 24.698 25.191 L 24.824 25.213 L 24.949 25.234 L 25.075 25.254 L 25.2 25.272 L 25.325 25.29 L 25.451 25.305 L 25.576 25.32 L 25.701 25.333 L 25.827 25.345 L 25.952 25.356 L 26.078 25.364 L 26.203 25.372 L 26.328 25.378 L 26.454 25.383 L 26.579 25.387 L 26.704 25.388 L 26.83 25.39 L 26.955 25.389 L 27.081 25.387 L 27.206 25.383 L 27.331 25.378 L 27.457 25.373 L 27.582 25.365 L 27.707 25.357 L 27.833 25.346 L 27.958 25.335 L 28.084 25.322 L 28.209 25.307 L 28.334 25.292 L 28.46 25.275 L 28.585 25.257 L 28.71 25.237 L 28.836 25.216 L 28.961 25.194 L 29.087 25.169 L 29.212 25.145 L 29.337 25.118 L 29.463 25.09 L 29.588 25.061 L 29.713 25.031 L 29.839 24.999 L 29.964 24.965 L 30.09 24.931 L 30.215 24.895 L 30.34 24.858 L 30.466 24.819 L 30.591 24.779 L 30.716 24.738 L 30.842 24.695 L 30.967 24.652 L 31.093 24.606 L 31.218 24.559 L 31.343 24.512 L 31.469 24.462 L 31.594 24.413 L 31.719 24.36 L 31.845 24.307 L 31.97 24.252 L 32.095 24.197 L 32.221 24.14 L 32.346 24.081 L 32.472 24.022 L 32.597 23.961 L 32.722 23.899 L 32.848 23.835 L 32.973 23.77 L 33.098 23.705 L 33.224 23.636 L 33.349 23.568 L 33.475 23.498 L 33.6 23.426 L 33.725 23.355 L 33.851 23.28 L 33.976 23.206 L 34.101 23.129 L 34.227 23.052 L 34.352 22.974 L 34.478 22.893 L 34.603 22.812 L 34.728 22.729 L 34.854 22.647 L 34.979 22.561 L 35.104 22.475 L 35.23 22.388 L 35.355 22.3 L 35.481 22.21 L 35.606 22.119 L 35.731 22.027 L 35.857 21.934 L 35.982 21.839 L 36.107 21.744 L 36.233 21.647 L 36.358 21.549 L 36.484 21.45 L 36.609 21.349 L 36.734 21.248 L 36.86 21.145 L 36.985 21.042 L 37.11 20.937 L 37.236 20.831 L 37.361 20.724 L 37.487 20.616 L 37.612 20.507 L 37.737 20.396 L 37.863 20.285 L 37.988 20.172 L 38.113 20.058 L 38.239 19.944 L 38.364 19.828 L 38.49 19.712 L 38.615 19.593 L 38.74 19.474 L 38.866 19.354 L 38.991 19.233 L 39.116 19.111 L 39.242 18.987 L 39.367 18.863 L 39.493 18.738 L 39.618 18.612 L 39.743 18.485 L 39.869 18.356 L 39.994 18.228 L 40.119 18.097 L 40.245 17.966 L 40.37 17.834 L 40.495 17.701 L 40.621 17.567 L 40.746 17.432 L 40.872 17.296 L 40.997 17.159 L 41.122 17.021 L 41.248 16.883 L 41.373 16.743 L 41.498 16.603 L 41.624 16.461 L 41.749 16.32 L 41.875 16.175 L 42 16.032 L 42.125 15.886 L 42.251 15.741 L 42.376 15.594 L 42.501 15.447 L 42.627 15.299 L 42.752 15.149 L 42.878 15 L 43.003 14.849 L 43.128 14.697 L 43.254 14.545 L 43.379 14.391 L 43.504 14.238 L 43.63 14.083 L 43.755 13.928 L 43.881 13.772 L 44.006 13.615 L 44.131 13.458 L 44.257 13.299 L 44.382 13.14 L 44.507 12.98 L 44.633 12.82 L 44.758 12.659 L 44.884 12.497 L 45.009 12.335 L 45.134 12.171 L 45.26 12.007 L 45.385 11.843 L 45.51 11.678 L 45.636 11.512 L 45.761 11.345 L 45.887 11.178 L 46.012 11.011 L 46.137 10.843 L 46.263 10.674 L 46.388 10.505 L 46.513 10.335 L 46.639 10.164 L 46.764 9.994 L 46.89 9.822 L 47.015 9.65 L 47.14 9.477 L 47.266 9.304 L 47.391 9.13 L 47.516 8.956 L 47.642 8.782 L 47.767 8.607 L 47.892 8.431 L 48.018 8.256 L 48.143 8.079 L 48.269 7.902 L 48.394 7.725 L 48.519 7.548 L 48.645 7.369 L 48.77 7.191 L 48.895 7.012 L 49.021 6.832 L 49.146 6.653 L 49.272 6.473 L 49.397 6.292 L 49.522 6.111 L 49.648 5.93 L 49.773 5.749 L 49.898 5.568 L 50.024 5.386 L 50.149 5.204 L 50.275 5.021 L 50.4 4.839 L 50.525 4.655 L 50.651 4.472 L 50.776 4.289 L 50.901 4.105 L 51.027 3.921 L 51.152 3.737 L 51.278 3.553 L 51.403 3.368 L 51.528 3.183 L 51.654 2.998 L 51.779 2.813 L 51.904 2.628 L 52.03 2.442 L 52.155 2.257 L 52.281 2.072 L 52.406 1.886 L 52.531 1.7 L 52.657 1.514 L 52.782 1.328 L 52.907 1.142 L 53.033 .956 L 53.158 .77 L 53.284 .583 L 53.409 .397 L 53.534 .211 L 53.66 .025 L 53.785 -.161 L 53.91 -.348 L 54.036 -.534 L 54.161 -.72 L 54.287 -.906 L 54.412 -1.092 L 54.537 -1.278 L 54.663 -1.465 L 54.788 -1.65 L 54.913 -1.836 L 55.039 -2.022 L 55.164 -2.208 L 55.29 -2.394 L 55.415 -2.578 L 55.54 -2.764 L 55.666 -2.949 L 55.791 -3.134 L 55.916 -3.319 L 56.042 -3.504 L 56.167 -3.688 L 56.292 -3.872 L 56.418 -4.056 L 56.543 -4.24 L 56.669 -4.424 L 56.794 -4.607 L 56.919 -4.79 L 57.045 -4.973 L 57.17 -5.156 L 57.295 -5.338 L 57.421 -5.52 L 57.546 -5.701 L 57.672 -5.882 L 57.797 -6.064 L 57.922 -6.244 L 58.048 -6.425 L 58.173 -6.605 L 58.298 -6.785 L 58.424 -6.964 L 58.549 -7.143 L 58.675 -7.322 L 58.8 -7.5 L 58.925 -7.678 L 59.051 -7.856 L 59.176 -8.032 L 59.301 -8.209 L 59.427 -8.384 L 59.552 -8.56 L 59.678 -8.735 L 59.803 -8.909 L 59.928 -9.084 L 60.054 -9.258 L 60.179 -9.431 L 60.304 -9.604 L 60.43 -9.776 L 60.555 -9.948 L 60.681 -10.119 L 60.806 -10.29 L 60.931 -10.46 L 61.057 -10.629 L 61.182 -10.798 L 61.307 -10.967 L 61.433 -11.134 L 61.558 -11.301 L 61.684 -11.468 L 61.809 -11.634 L 61.934 -11.799 L 62.06 -11.964 L 62.185 -12.128 L 62.31 -12.291 L 62.436 -12.454 L 62.561 -12.616 L 62.687 -12.777 L 62.812 -12.938 L 62.937 -13.098 L 63.063 -13.257 L 63.188 -13.416 L 63.313 -13.573 L 63.439 -13.73 L 63.564 -13.886 L 63.689 -14.042 L 63.815 -14.197 L 63.94 -14.351 L 64.066 -14.505 L 64.191 -14.657 L 64.316 -14.809 L 64.442 -14.96 L 64.567 -15.11 L 64.692 -15.26 L 64.818 -15.407 L 64.943 -15.555 L 65.069 -15.702 L 65.194 -15.848 L 65.319 -15.993 L 65.445 -16.137 L 65.57 -16.281 L 65.695 -16.423 L 65.821 -16.565 L 65.946 -16.706 L 66.072 -16.845 L 66.197 -16.985 L 66.322 -17.122 L 66.448 -17.26 L 66.573 -17.396 L 66.698 -17.531 L 66.824 -17.666 L 66.949 -17.798 L 67.075 -17.931 L 67.2 -18.062 L 67.325 -18.193 L 67.451 -18.322 L 67.576 -18.45 L 67.701 -18.579 L 67.827 -18.705 L 67.952 -18.83 L 68.078 -18.954 L 68.203 -19.078 L 68.328 -19.201 L 68.454 -19.322 L 68.579 -19.443 L 68.704 -19.561 L 68.83 -19.68 L 68.955 -19.797 L 69.081 -19.913 L 69.206 -20.028 L 69.331 -20.141 L 69.457 -20.255 L 69.582 -20.367 L 69.707 -20.478 L 69.833 -20.587 L 69.958 -20.695 L 70.084 -20.804 L 70.209 -20.909 L 70.334 -21.014 L 70.46 -21.118 L 70.585 -21.221 L 70.71 -21.323 L 70.836 -21.423 L 70.961 -21.523 L 71.087 -21.621 L 71.212 -21.718 L 71.337 -21.814 L 71.463 -21.909 L 71.588 -22.003 L 71.713 -22.094 L 71.839 -22.186 L 71.964 -22.276 L 72.09 -22.365 L 72.215 -22.453 L 72.34 -22.539 L 72.466 -22.625 L 72.591 -22.707 L 72.716 -22.79 L 72.842 -22.872 L 72.967 -22.952 L 73.092 -23.031 L 73.218 -23.109 L 73.343 -23.186 L 73.469 -23.26 L 73.594 -23.335 L 73.719 -23.407 L 73.845 -23.479 L 73.97 -23.55 L 74.095 -23.618 L 74.221 -23.686 L 74.346 -23.753 L 74.472 -23.818 L 74.597 -23.882 L 74.722 -23.944 L 74.848 -24.006 L 74.973 -24.066 L 75.098 -24.125 L 75.224 -24.182 L 75.349 -24.237 L 75.475 -24.293 L 75.6 -24.346 L 75.725 -24.399 L 75.851 -24.449 L 75.976 -24.498 L 76.101 -24.547 L 76.227 -24.594 L 76.352 -24.64 L 76.478 -24.684 L 76.603 -24.727 L 76.728 -24.768 L 76.854 -24.808 L 76.979 -24.848 L 77.104 -24.885 L 77.23 -24.922 L 77.355 -24.956 L 77.481 -24.99 L 77.606 -25.022 L 77.731 -25.053 L 77.857 -25.083 L 77.982 -25.111 L 78.107 -25.138 L 78.233 -25.163 L 78.358 -25.187 L 78.484 -25.211 L 78.609 -25.231 L 78.734 -25.252 L 78.86 -25.27 L 78.985 -25.288 L 79.11 -25.303 L 79.236 -25.318 L 79.361 -25.332 L 79.487 -25.343 L 79.612 -25.354 L 79.737 -25.363 L 79.863 -25.371 L 79.988 -25.377 L 80.113 -25.382 L 80.239 -25.387 L 80.364 -25.388 L 80.49 -25.39 L 80.615 -25.389 L 80.74 -25.387 L 80.866 -25.384 L 80.991 -25.379 L 81.116 -25.374 L 81.242 -25.366 L 81.367 -25.358 L 81.492 -25.348 L 81.618 -25.336 L 81.743 -25.324 L 81.869 -25.309 L 81.994 -25.294 L 82.119 -25.277 L 82.245 -25.259 L 82.37 -25.24 L 82.495 -25.219 L 82.621 -25.197 L 82.746 -25.173 L 82.872 -25.149 L 82.997 -25.122 L 83.122 -25.094 L 83.248 -25.065 L 83.373 -25.034 L 83.498 -25.004 L 83.624 -24.97 L 83.749 -24.936 L 83.875 -24.9 L 84 -24.863 L 84.125 -24.825 L 84.251 -24.785 L 84.376 -24.744 L 84.501 -24.701 L 84.627 -24.658 L 84.752 -24.613 L 84.878 -24.566 L 85.003 -24.519 L 85.128 -24.469 L 85.254 -24.419 L 85.379 -24.367 L 85.504 -24.314 L 85.63 -24.26 L 85.755 -24.204 L 85.881 -24.148 L 86.006 -24.089 L 86.131 -24.03 L 86.257 -23.969 L 86.382 -23.907 L 86.507 -23.844 L 86.633 -23.778 L 86.758 -23.713 L 86.884 -23.645 L 87.009 -23.577 L 87.134 -23.507 L 87.26 -23.436 L 87.385 -23.364 L 87.51 -23.29 L 87.636 -23.216 L 87.761 -23.14 L 87.886 -23.062 L 88.012 -22.984 L 88.137 -22.904 L 88.263 -22.823 L 88.388 -22.741 L 88.513 -22.657 L 88.639 -22.573 L 88.764 -22.487 L 88.889 -22.4 L 89.015 -22.311 L 89.14 -22.222 L 89.266 -22.131 L 89.391 -22.04 L 89.516 -21.946 L 89.642 -21.852 L 89.767 -21.757 L 89.892 -21.659 L 90.018 -21.562 L 90.143 -21.463 L 90.269 -21.363 L 90.394 -21.262 L 90.519 -21.159 L 90.645 -21.057 L 90.77 -20.951 L 90.895 -20.845 L 91.021 -20.738 L 91.146 -20.63 L 91.272 -20.522 L 91.397 -20.411 L 91.522 -20.3 L 91.648 -20.187 L 91.773 -20.074 L 91.898 -19.959 L 92.024 -19.843 L 92.149 -19.727 L 92.275 -19.608 L 92.4 -19.49 L 92.525 -19.37 L 92.651 -19.249 L 92.776 -19.127 L 92.901 -19.004 L 93.027 -18.88 L 93.152 -18.755 L 93.278 -18.629 L 93.403 -18.502 L 93.528 -18.373 L 93.654 -18.245 L 93.779 -18.114 L 93.904 -17.984 L 94.03 -17.851 L 94.155 -17.718 L 94.281 -17.585 L 94.406 -17.45 L 94.531 -17.315 L 94.657 -17.177 L 94.782 -17.04 L 94.907 -16.901 L 95.033 -16.762 L 95.158 -16.621 L 95.284 -16.48 L 95.409 -16.338 L 95.534 -16.194 L 95.66 -16.051 L 95.785 -15.906 L 95.91 -15.76 L 96.036 -15.614 L 96.161 -15.467 L 96.287 -15.319 L 96.412 -15.17 L 96.537 -15.019 L 96.663 -14.869 L 96.788 -14.718 L 96.913 -14.566 L 97.039 -14.412 L 97.164 -14.258 L 97.289 -14.104 L 97.415 -13.948 L 97.54 -13.793 L 97.666 -13.636 L 97.791 -13.479 L 97.916 -13.32 L 98.042 -13.161 L 98.167 -13.002 L 98.292 -12.841 L 98.418 -12.68 L 98.543 -12.518 L 98.669 -12.356 L 98.794 -12.193 L 98.919 -12.029 L 99.045 -11.865 L 99.17 -11.699 L 99.295 -11.534 L 99.421 -11.368 L 99.546 -11.201 L 99.672 -11.034 L 99.797 -10.865 L 99.922 -10.697 L 100.048 -10.527 L 100.173 -10.357 L 100.298 -10.187 L 100.424 -10.016 L 100.549 -9.845 L 100.675 -9.673 L 100.8 -9.501 L 100.925 -9.327 L 101.051 -9.154 L 101.176 -8.979 L 101.301 -8.805 L 101.427 -8.63 L 101.552 -8.454 L 101.678 -8.279 L 101.803 -8.102 L 101.928 -7.926 L 102.054 -7.749 L 102.179 -7.571 L 102.304 -7.393 L 102.43 -7.214 L 102.555 -7.036 L 102.681 -6.856 L 102.806 -6.677 L 102.931 -6.497 L 103.057 -6.316 L 103.182 -6.136 L 103.307 -5.955 L 103.433 -5.774 L 103.558 -5.592 L 103.684 -5.41 L 103.809 -5.228 L 103.934 -5.046 L 104.06 -4.863 L 104.185 -4.68 L 104.31 -4.497 L 104.436 -4.313 L 104.561 -4.129 L 104.687 -3.946 L 104.812 -3.762 L 104.937 -3.577 L 105.063 -3.393 L 105.188 -3.208 L 105.313 -3.023 L 105.439 -2.838 L 105.564 -2.652 L 105.689 -2.467 L 105.815 -2.282 L 105.94 -2.096 L 106.066 -1.911 L 106.191 -1.725 L 106.316 -1.539 L 106.442 -1.353 L 106.567 -1.166 L 106.692 -.981 L 106.818 -.795 L 106.943 -.608 L 107.069 -.422 L 107.194 -.236 L 107.319 -.05 L 107.445 .136 L 107.57 .323 L 107.695 .509 L 107.821 .695 L 107.946 .881 L 108.072 1.067 L 108.197 1.254 L 108.322 1.44 L 108.448 1.626 L 108.573 1.812 L 108.698 1.997 L 108.824 2.183 L 108.949 2.369 L 109.075 2.554 L 109.2 2.739 L 109.325 2.924 L 109.451 3.11 L 109.576 3.294 L 109.701 3.479 L 109.827 3.663 L 109.952 3.848 L 110.078 4.031 L 110.203 4.216 L 110.328 4.399 L 110.454 4.582 L 110.579 4.765 L 110.704 4.949 L 110.83 5.131 L 110.955 5.313 L 111.081 5.495 L 111.206 5.677 L 111.331 5.858 L 111.457 6.04 L 111.582 6.22 L 111.707 6.401 L 111.833 6.581 L 111.958 6.761 L 112.084 6.94 L 112.209 7.119 L 112.334 7.298 L 112.46 7.476 L 112.585 7.654 L 112.71 7.832 L 112.836 8.008 L 112.961 8.185 L 113.086 8.362 L 113.212 8.537 L 113.337 8.712 L 113.463 8.887 L 113.588 9.061 L 113.713 9.235 L 113.839 9.408 L 113.964 9.581 L 114.089 9.753 L 114.215 9.925 L 114.34 10.096 L 114.466 10.267 L 114.591 10.437 L 114.716 10.607 L 114.842 10.776 L 114.967 10.944 L 115.092 11.112 L 115.218 11.279 L 115.343 11.446 L 115.469 11.611 L 115.594 11.777 L 115.719 11.942 L 115.845 12.106 L 115.97 12.269 L 116.095 12.432 L 116.221 12.594 L 116.346 12.756 L 116.472 12.916 L 116.597 13.077 L 116.722 13.236 L 116.848 13.394 L 116.973 13.552 L 117.098 13.709 L 117.224 13.866 L 117.349 14.021 L 117.475 14.176 L 117.6 14.33 L 117.725 14.484 L 117.851 14.636 L 117.976 14.788 L 118.101 14.94 L 118.227 15.089 L 118.352 15.239 L 118.478 15.388 L 118.603 15.535 L 118.728 15.683 L 118.854 15.828 L 118.979 15.974 L 119.104 16.118 L 119.23 16.262 L 119.355 16.404 L 119.481 16.546 L 119.606 16.687 L 119.731 16.827 L 119.857 16.966 L 119.982 17.104 L 120.107 17.241 L 120.233 17.378 L 120.358 17.513 L 120.484 17.648 L 120.609 17.781 L 120.734 17.913 L 120.86 18.045 L 120.985 18.175 L 121.11 18.305 L 121.236 18.433 L 121.361 18.562 L 121.486 18.688 L 121.612 18.813 L 121.737 18.938 L 121.863 19.061 L 121.988 19.184 L 122.113 19.306 L 122.239 19.426 L 122.364 19.545 L 122.489 19.664 L 122.615 19.781 L 122.74 19.897 L 122.866 20.013 L 122.991 20.127 L 123.116 20.24 L 123.242 20.352 L 123.367 20.463 L 123.492 20.573 L 123.618 20.681 L 123.743 20.789 L 123.869 20.895 L 123.994 21 L 124.119 21.104 L 124.245 21.207 L 124.37 21.31 L 124.495 21.41 L 124.621 21.51 L 124.746 21.607 L 124.872 21.705 L 124.997 21.801 L 125.122 21.896 L 125.248 21.99 "/>
<path transform="matrix(1,0,0,-1,174.3918,48.17867)" stroke-width=".797" stroke-linecap="butt" stroke-miterlimit="10" stroke-linejoin="miter" fill="none" stroke="#000000" d="M 0 0 L 0 25.39 M 10.437 0 L 10.437 25.39 M 20.874 0 L 20.874 25.39 M 31.311 0 L 31.311 25.39 M 41.748 0 L 41.748 25.39 M 52.185 0 L 52.185 25.39 M 62.622 0 L 62.622 25.39 M 73.059 0 L 73.059 25.39 M 83.497 0 L 83.497 25.39 M 93.934 0 L 93.934 25.39 M 104.371 0 L 104.371 25.39 M 114.808 0 L 114.808 25.39 M 125.245 0 L 125.245 25.39 "/>
</g>
<path transform="matrix(1,0,0,-1,175.3881,22.788269)" d="M 0 0 C 0 .55 -.446 .996 -.996 .996 C -1.547 .996 -1.993 .55 -1.993 0 C -1.993 -.55 -1.547 -.996 -.996 -.996 C -.446 -.996 0 -.55 0 0 Z "/>
<path transform="matrix(1,0,0,-1,175.3881,22.788269)" stroke-width=".797" stroke-linecap="butt" stroke-miterlimit="10" stroke-linejoin="miter" fill="none" stroke="#000000" d="M 0 0 C 0 .55 -.446 .996 -.996 .996 C -1.547 .996 -1.993 .55 -1.993 0 C -1.993 -.55 -1.547 -.996 -.996 -.996 C -.446 -.996 0 -.55 0 0 Z "/>
<path transform="matrix(1,0,0,-1,185.8251,22.788269)" d="M 0 0 C 0 .55 -.446 .996 -.996 .996 C -1.546 .996 -1.993 .55 -1.993 0 C -1.993 -.55 -1.546 -.996 -.996 -.996 C -.446 -.996 0 -.55 0 0 Z "/>
<path transform="matrix(1,0,0,-1,185.8251,22.788269)" stroke-width=".797" stroke-linecap="butt" stroke-miterlimit="10" stroke-linejoin="miter" fill="none" stroke="#000000" d="M 0 0 C 0 .55 -.446 .996 -.996 .996 C -1.546 .996 -1.993 .55 -1.993 0 C -1.993 -.55 -1.546 -.996 -.996 -.996 C -.446 -.996 0 -.55 0 0 Z "/>
<path transform="matrix(1,0,0,-1,196.2622,22.788269)" d="M 0 0 C 0 .55 -.446 .996 -.996 .996 C -1.546 .996 -1.993 .55 -1.993 0 C -1.993 -.55 -1.546 -.996 -.996 -.996 C -.446 -.996 0 -.55 0 0 Z "/>
<path transform="matrix(1,0,0,-1,196.2622,22.788269)" stroke-width=".797" stroke-linecap="butt" stroke-miterlimit="10" stroke-linejoin="miter" fill="none" stroke="#000000" d="M 0 0 C 0 .55 -.446 .996 -.996 .996 C -1.546 .996 -1.993 .55 -1.993 0 C -1.993 -.55 -1.546 -.996 -.996 -.996 C -.446 -.996 0 -.55 0 0 Z "/>
<path transform="matrix(1,0,0,-1,206.6993,22.788269)" d="M 0 0 C 0 .55 -.446 .996 -.996 .996 C -1.547 .996 -1.993 .55 -1.993 0 C -1.993 -.55 -1.547 -.996 -.996 -.996 C -.446 -.996 0 -.55 0 0 Z "/>
<path transform="matrix(1,0,0,-1,206.6993,22.788269)" stroke-width=".797" stroke-linecap="butt" stroke-miterlimit="10" stroke-linejoin="miter" fill="none" stroke="#000000" d="M 0 0 C 0 .55 -.446 .996 -.996 .996 C -1.547 .996 -1.993 .55 -1.993 0 C -1.993 -.55 -1.547 -.996 -.996 -.996 C -.446 -.996 0 -.55 0 0 Z "/>
<path transform="matrix(1,0,0,-1,217.13629,22.788269)" d="M 0 0 C 0 .55 -.446 .996 -.996 .996 C -1.547 .996 -1.993 .55 -1.993 0 C -1.993 -.55 -1.547 -.996 -.996 -.996 C -.446 -.996 0 -.55 0 0 Z "/>
<path transform="matrix(1,0,0,-1,217.13629,22.788269)" stroke-width=".797" stroke-linecap="butt" stroke-miterlimit="10" stroke-linejoin="miter" fill="none" stroke="#000000" d="M 0 0 C 0 .55 -.446 .996 -.996 .996 C -1.547 .996 -1.993 .55 -1.993 0 C -1.993 -.55 -1.547 -.996 -.996 -.996 C -.446 -.996 0 -.55 0 0 Z "/>
<path transform="matrix(1,0,0,-1,227.5734,22.788269)" d="M 0 0 C 0 .55 -.446 .996 -.996 .996 C -1.547 .996 -1.993 .55 -1.993 0 C -1.993 -.55 -1.547 -.996 -.996 -.996 C -.446 -.996 0 -.55 0 0 Z "/>
<path transform="matrix(1,0,0,-1,227.5734,22.788269)" stroke-width=".797" stroke-linecap="butt" stroke-miterlimit="10" stroke-linejoin="miter" fill="none" stroke="#000000" d="M 0 0 C 0 .55 -.446 .996 -.996 .996 C -1.547 .996 -1.993 .55 -1.993 0 C -1.993 -.55 -1.547 -.996 -.996 -.996 C -.446 -.996 0 -.55 0 0 Z "/>
<path transform="matrix(1,0,0,-1,238.0105,22.788269)" d="M 0 0 C 0 .55 -.446 .996 -.996 .996 C -1.547 .996 -1.993 .55 -1.993 0 C -1.993 -.55 -1.547 -.996 -.996 -.996 C -.446 -.996 0 -.55 0 0 Z "/>
<path transform="matrix(1,0,0,-1,238.0105,22.788269)" stroke-width=".797" stroke-linecap="butt" stroke-miterlimit="10" stroke-linejoin="miter" fill="none" stroke="#000000" d="M 0 0 C 0 .55 -.446 .996 -.996 .996 C -1.547 .996 -1.993 .55 -1.993 0 C -1.993 -.55 -1.547 -.996 -.996 -.996 C -.446 -.996 0 -.55 0 0 Z "/>
<path transform="matrix(1,0,0,-1,248.4476,22.788269)" d="M 0 0 C 0 .55 -.446 .996 -.996 .996 C -1.547 .996 -1.993 .55 -1.993 0 C -1.993 -.55 -1.547 -.996 -.996 -.996 C -.446 -.996 0 -.55 0 0 Z "/>
<path transform="matrix(1,0,0,-1,248.4476,22.788269)" stroke-width=".797" stroke-linecap="butt" stroke-miterlimit="10" stroke-linejoin="miter" fill="none" stroke="#000000" d="M 0 0 C 0 .55 -.446 .996 -.996 .996 C -1.547 .996 -1.993 .55 -1.993 0 C -1.993 -.55 -1.547 -.996 -.996 -.996 C -.446 -.996 0 -.55 0 0 Z "/>
<path transform="matrix(1,0,0,-1,258.88459,22.788269)" d="M 0 0 C 0 .55 -.446 .996 -.996 .996 C -1.547 .996 -1.993 .55 -1.993 0 C -1.993 -.55 -1.547 -.996 -.996 -.996 C -.446 -.996 0 -.55 0 0 Z "/>
<path transform="matrix(1,0,0,-1,258.88459,22.788269)" stroke-width=".797" stroke-linecap="butt" stroke-miterlimit="10" stroke-linejoin="miter" fill="none" stroke="#000000" d="M 0 0 C 0 .55 -.446 .996 -.996 .996 C -1.547 .996 -1.993 .55 -1.993 0 C -1.993 -.55 -1.547 -.996 -.996 -.996 C -.446 -.996 0 -.55 0 0 Z "/>
<path transform="matrix(1,0,0,-1,269.32173,22.788269)" d="M 0 0 C 0 .55 -.446 .996 -.996 .996 C -1.547 .996 -1.993 .55 -1.993 0 C -1.993 -.55 -1.547 -.996 -.996 -.996 C -.446 -.996 0 -.55 0 0 Z "/>
<path transform="matrix(1,0,0,-1,269.32173,22.788269)" stroke-width=".797" stroke-linecap="butt" stroke-miterlimit="10" stroke-linejoin="miter" fill="none" stroke="#000000" d="M 0 0 C 0 .55 -.446 .996 -.996 .996 C -1.547 .996 -1.993 .55 -1.993 0 C -1.993 -.55 -1.547 -.996 -.996 -.996 C -.446 -.996 0 -.55 0 0 Z "/>
<path transform="matrix(1,0,0,-1,279.7588,22.788269)" d="M 0 0 C 0 .55 -.446 .996 -.996 .996 C -1.546 .996 -1.993 .55 -1.993 0 C -1.993 -.55 -1.546 -.996 -.996 -.996 C -.446 -.996 0 -.55 0 0 Z "/>
<path transform="matrix(1,0,0,-1,279.7588,22.788269)" stroke-width=".797" stroke-linecap="butt" stroke-miterlimit="10" stroke-linejoin="miter" fill="none" stroke="#000000" d="M 0 0 C 0 .55 -.446 .996 -.996 .996 C -1.546 .996 -1.993 .55 -1.993 0 C -1.993 -.55 -1.546 -.996 -.996 -.996 C -.446 -.996 0 -.55 0 0 Z "/>
<path transform="matrix(1,0,0,-1,290.1958,22.788269)" d="M 0 0 C 0 .55 -.446 .996 -.996 .996 C -1.547 .996 -1.993 .55 -1.993 0 C -1.993 -.55 -1.547 -.996 -.996 -.996 C -.446 -.996 0 -.55 0 0 Z "/>
<path transform="matrix(1,0,0,-1,290.1958,22.788269)" stroke-width=".797" stroke-linecap="butt" stroke-miterlimit="10" stroke-linejoin="miter" fill="none" stroke="#000000" d="M 0 0 C 0 .55 -.446 .996 -.996 .996 C -1.547 .996 -1.993 .55 -1.993 0 C -1.993 -.55 -1.547 -.996 -.996 -.996 C -.446 -.996 0 -.55 0 0 Z "/>
<path transform="matrix(1,0,0,-1,300.6329,22.788269)" d="M 0 0 C 0 .55 -.446 .996 -.996 .996 C -1.547 .996 -1.993 .55 -1.993 0 C -1.993 -.55 -1.547 -.996 -.996 -.996 C -.446 -.996 0 -.55 0 0 Z "/>
<path transform="matrix(1,0,0,-1,300.6329,22.788269)" stroke-width=".797" stroke-linecap="butt" stroke-miterlimit="10" stroke-linejoin="miter" fill="none" stroke="#000000" d="M 0 0 C 0 .55 -.446 .996 -.996 .996 C -1.547 .996 -1.993 .55 -1.993 0 C -1.993 -.55 -1.547 -.996 -.996 -.996 C -.446 -.996 0 -.55 0 0 Z "/>
<text xml:space="preserve" transform="matrix(1 0 -0 1 -58.9642 628.397)" font-size="8.966" font-family="CMMI9" font-style="italic"><tspan y="-583.738" x="351.754">t</tspan><tspan y="-613.13699" x="236.876">s</tspan></text>
<text xml:space="preserve" transform="matrix(1 0 -0 1 -58.9642 628.397)" font-size="8.966" font-family="CMR9"><tspan y="-613.13699" x="241.17072">(</tspan></text>
<text xml:space="preserve" transform="matrix(1 0 -0 1 -58.9642 628.397)" font-size="8.966" font-family="CMMI9" font-style="italic"><tspan y="-613.13699" x="244.75711">t</tspan></text>
<text xml:space="preserve" transform="matrix(1 0 -0 1 -58.9642 628.397)" font-size="8.966" font-family="CMR9"><tspan y="-613.13699" x="248.0835">)</tspan><tspan y="-540.98" x="250.916 254.5024 259.62199">(b)</tspan></text>
<text xml:space="preserve" transform="matrix(1 0 -0 1 -58.9642 628.397)" font-size="8.966" font-family="CMMI9" font-style="italic"><tspan y="-540.98" x="266.275">s</tspan></text>
<text xml:space="preserve" transform="matrix(1 0 -0 1 -58.9642 628.397)" font-size="8.966" font-family="CMR9"><tspan y="-540.98" x="270.5697">(</tspan></text>
<text xml:space="preserve" transform="matrix(1 0 -0 1 -58.9642 628.397)" font-size="8.966" font-family="CMMI9" font-style="italic"><tspan y="-540.98" x="274.1561">t</tspan></text>
<text xml:space="preserve" transform="matrix(1 0 -0 1 -58.9642 628.397)" font-size="8.966" font-family="CMR9"><tspan y="-540.98" x="277.48249 281.06889 287.73057 290.29484 297.9787 303.0983 308.2179 310.78218 314.4134 321.57725 325.16365 328.76799 333.3765 335.94078">):impulsetrain</tspan></text>
<text xml:space="preserve" transform="matrix(1 0 -0 1 -58.9642 628.397)" font-size="9.963" font-family="CMBX10" font-weight="bold"><tspan y="-583.12698" x="375.022">=</tspan></text>
<path transform="matrix(1,0,0,-1,341.39179,47.972677)" stroke-width=".398" stroke-linecap="butt" stroke-miterlimit="10" stroke-linejoin="miter" fill="none" stroke="#000000" d="M 0 0 L 123.252 0 "/>
<path transform="matrix(1,0,0,-1,466.63664,47.972658)" d="M 0 0 L -3.188 1.594 L -1.993 0 L -3.188 -1.594 "/>
<path transform="matrix(1,0,0,-1,341.39179,73.362979)" stroke-width=".398" stroke-linecap="butt" stroke-miterlimit="10" stroke-linejoin="miter" fill="none" stroke="#000000" d="M 0 0 L 0 66.561 "/>
<path transform="matrix(0,-1,-1,-0,341.39179,4.809075)" d="M 0 0 L -3.188 1.594 L -1.993 0 L -3.188 -1.594 "/>
<clipPath id="cp2">
<path transform="matrix(1,0,0,-1,341.39179,73.362979)" d="M 0 0 L 125.245 0 L 125.245 68.554 L 0 68.554 Z "/>
</clipPath>
<g clip-path="url(#cp2)">
<path transform="matrix(1,0,0,-1,341.39179,47.972677)" stroke-width=".797" stroke-linecap="butt" stroke-miterlimit="10" stroke-linejoin="miter" fill="none" stroke="#000000" d="M 0 0 L 0 0 M 10.437 0 L 10.437 14.563 M 20.874 0 L 20.874 23.859 M 31.311 0 L 31.311 24.525 M 41.748 0 L 41.748 16.321 M 52.185 0 L 52.185 2.213 M 62.622 0 L 62.622 -12.695 M 73.059 0 L 73.059 -23.012 M 83.497 0 L 83.497 -25.005 M 93.934 0 L 93.934 -17.954 M 104.371 0 L 104.371 -4.409 M 114.808 0 L 114.808 10.73 M 125.245 0 L 125.245 21.989 "/>
<path transform="matrix(1,0,0,-1,341.39179,47.972677)" stroke-width=".398" stroke-linecap="butt" stroke-dasharray=".398,.996" stroke-miterlimit="10" stroke-linejoin="miter" fill="none" stroke="#000000" d="M 0 0 L 1.265 1.878 L 2.53 3.746 L 3.795 5.593 L 5.06 7.41 L 6.325 9.186 L 7.591 10.912 L 8.856 12.578 L 10.121 14.175 L 11.386 15.695 L 12.651 17.127 L 13.916 18.467 L 15.181 19.706 L 16.446 20.836 L 17.711 21.852 L 18.976 22.748 L 20.241 23.521 L 21.507 24.164 L 22.772 24.673 L 24.037 25.049 L 25.302 25.287 L 26.567 25.387 L 27.832 25.346 L 29.097 25.168 L 30.362 24.852 L 31.627 24.399 L 32.892 23.812 L 34.157 23.095 L 35.423 22.251 L 36.688 21.286 L 37.953 20.204 L 39.218 19.01 L 40.483 17.714 L 41.748 16.32 L 43.013 14.837 L 44.278 13.272 L 45.543 11.634 L 46.808 9.933 L 48.073 8.177 L 49.339 6.377 L 50.604 4.541 L 51.869 2.681 L 53.134 .805 L 54.399 -1.073 L 55.664 -2.947 L 56.929 -4.804 L 58.194 -6.636 L 59.459 -8.43 L 60.724 -10.179 L 61.989 -11.872 L 63.255 -13.5 L 64.52 -15.053 L 65.785 -16.524 L 67.05 -17.905 L 68.315 -19.188 L 69.58 -20.365 L 70.845 -21.43 L 72.11 -22.379 L 73.375 -23.205 L 74.64 -23.904 L 75.906 -24.471 L 77.171 -24.905 L 78.436 -25.202 L 79.701 -25.361 L 80.966 -25.38 L 82.231 -25.261 L 83.496 -25.004 L 84.761 -24.609 L 86.026 -24.08 L 87.291 -23.418 L 88.556 -22.629 L 89.822 -21.715 L 91.087 -20.682 L 92.352 -19.536 L 93.617 -18.283 L 94.882 -16.929 L 96.147 -15.483 L 97.412 -13.952 L 98.677 -12.345 L 99.942 -10.67 L 101.207 -8.936 L 102.472 -7.153 L 103.738 -5.332 L 105.003 -3.481 L 106.268 -1.611 L 107.533 .267 L 108.798 2.145 L 110.063 4.011 L 111.328 5.854 L 112.593 7.665 L 113.858 9.435 L 115.123 11.153 L 116.388 12.81 L 117.654 14.396 L 118.919 15.904 L 120.184 17.325 L 121.449 18.649 L 122.714 19.873 L 123.979 20.988 L 125.244 21.988 "/>
</g>
<path transform="matrix(1,0,0,-1,342.3881,47.972677)" d="M 0 0 C 0 .55 -.446 .996 -.996 .996 C -1.547 .996 -1.993 .55 -1.993 0 C -1.993 -.55 -1.547 -.996 -.996 -.996 C -.446 -.996 0 -.55 0 0 Z "/>
<path transform="matrix(1,0,0,-1,342.3881,47.972677)" stroke-width=".797" stroke-linecap="butt" stroke-miterlimit="10" stroke-linejoin="miter" fill="none" stroke="#000000" d="M 0 0 C 0 .55 -.446 .996 -.996 .996 C -1.547 .996 -1.993 .55 -1.993 0 C -1.993 -.55 -1.547 -.996 -.996 -.996 C -.446 -.996 0 -.55 0 0 Z "/>
<path transform="matrix(1,0,0,-1,352.82508,33.409276)" d="M 0 0 C 0 .55 -.446 .996 -.996 .996 C -1.546 .996 -1.993 .55 -1.993 0 C -1.993 -.55 -1.546 -.996 -.996 -.996 C -.446 -.996 0 -.55 0 0 Z "/>
<path transform="matrix(1,0,0,-1,352.82508,33.409276)" stroke-width=".797" stroke-linecap="butt" stroke-miterlimit="10" stroke-linejoin="miter" fill="none" stroke="#000000" d="M 0 0 C 0 .55 -.446 .996 -.996 .996 C -1.546 .996 -1.993 .55 -1.993 0 C -1.993 -.55 -1.546 -.996 -.996 -.996 C -.446 -.996 0 -.55 0 0 Z "/>
<path transform="matrix(1,0,0,-1,363.26219,24.113377)" d="M 0 0 C 0 .55 -.446 .996 -.996 .996 C -1.546 .996 -1.993 .55 -1.993 0 C -1.993 -.55 -1.546 -.996 -.996 -.996 C -.446 -.996 0 -.55 0 0 Z "/>
<path transform="matrix(1,0,0,-1,363.26219,24.113377)" stroke-width=".797" stroke-linecap="butt" stroke-miterlimit="10" stroke-linejoin="miter" fill="none" stroke="#000000" d="M 0 0 C 0 .55 -.446 .996 -.996 .996 C -1.546 .996 -1.993 .55 -1.993 0 C -1.993 -.55 -1.546 -.996 -.996 -.996 C -.446 -.996 0 -.55 0 0 Z "/>
<path transform="matrix(1,0,0,-1,373.69929,23.447377)" d="M 0 0 C 0 .55 -.446 .996 -.996 .996 C -1.547 .996 -1.993 .55 -1.993 0 C -1.993 -.55 -1.547 -.996 -.996 -.996 C -.446 -.996 0 -.55 0 0 Z "/>
<path transform="matrix(1,0,0,-1,373.69929,23.447377)" stroke-width=".797" stroke-linecap="butt" stroke-miterlimit="10" stroke-linejoin="miter" fill="none" stroke="#000000" d="M 0 0 C 0 .55 -.446 .996 -.996 .996 C -1.547 .996 -1.993 .55 -1.993 0 C -1.993 -.55 -1.547 -.996 -.996 -.996 C -.446 -.996 0 -.55 0 0 Z "/>
<path transform="matrix(1,0,0,-1,384.1363,31.651978)" d="M 0 0 C 0 .55 -.446 .996 -.996 .996 C -1.547 .996 -1.993 .55 -1.993 0 C -1.993 -.55 -1.547 -.996 -.996 -.996 C -.446 -.996 0 -.55 0 0 Z "/>
<path transform="matrix(1,0,0,-1,384.1363,31.651978)" stroke-width=".797" stroke-linecap="butt" stroke-miterlimit="10" stroke-linejoin="miter" fill="none" stroke="#000000" d="M 0 0 C 0 .55 -.446 .996 -.996 .996 C -1.547 .996 -1.993 .55 -1.993 0 C -1.993 -.55 -1.547 -.996 -.996 -.996 C -.446 -.996 0 -.55 0 0 Z "/>
<path transform="matrix(1,0,0,-1,394.5734,45.759675)" d="M 0 0 C 0 .55 -.446 .996 -.996 .996 C -1.547 .996 -1.993 .55 -1.993 0 C -1.993 -.55 -1.547 -.996 -.996 -.996 C -.446 -.996 0 -.55 0 0 Z "/>
<path transform="matrix(1,0,0,-1,394.5734,45.759675)" stroke-width=".797" stroke-linecap="butt" stroke-miterlimit="10" stroke-linejoin="miter" fill="none" stroke="#000000" d="M 0 0 C 0 .55 -.446 .996 -.996 .996 C -1.547 .996 -1.993 .55 -1.993 0 C -1.993 -.55 -1.547 -.996 -.996 -.996 C -.446 -.996 0 -.55 0 0 Z "/>
<path transform="matrix(1,0,0,-1,405.0105,60.667779)" d="M 0 0 C 0 .55 -.446 .996 -.996 .996 C -1.547 .996 -1.993 .55 -1.993 0 C -1.993 -.55 -1.547 -.996 -.996 -.996 C -.446 -.996 0 -.55 0 0 Z "/>
<path transform="matrix(1,0,0,-1,405.0105,60.667779)" stroke-width=".797" stroke-linecap="butt" stroke-miterlimit="10" stroke-linejoin="miter" fill="none" stroke="#000000" d="M 0 0 C 0 .55 -.446 .996 -.996 .996 C -1.547 .996 -1.993 .55 -1.993 0 C -1.993 -.55 -1.547 -.996 -.996 -.996 C -.446 -.996 0 -.55 0 0 Z "/>
<path transform="matrix(1,0,0,-1,415.44758,70.98418)" d="M 0 0 C 0 .55 -.446 .996 -.996 .996 C -1.547 .996 -1.993 .55 -1.993 0 C -1.993 -.55 -1.547 -.996 -.996 -.996 C -.446 -.996 0 -.55 0 0 Z "/>
<path transform="matrix(1,0,0,-1,415.44758,70.98418)" stroke-width=".797" stroke-linecap="butt" stroke-miterlimit="10" stroke-linejoin="miter" fill="none" stroke="#000000" d="M 0 0 C 0 .55 -.446 .996 -.996 .996 C -1.547 .996 -1.993 .55 -1.993 0 C -1.993 -.55 -1.547 -.996 -.996 -.996 C -.446 -.996 0 -.55 0 0 Z "/>
<path transform="matrix(1,0,0,-1,425.88459,72.97758)" d="M 0 0 C 0 .55 -.446 .996 -.996 .996 C -1.547 .996 -1.993 .55 -1.993 0 C -1.993 -.55 -1.547 -.996 -.996 -.996 C -.446 -.996 0 -.55 0 0 Z "/>
<path transform="matrix(1,0,0,-1,425.88459,72.97758)" stroke-width=".797" stroke-linecap="butt" stroke-miterlimit="10" stroke-linejoin="miter" fill="none" stroke="#000000" d="M 0 0 C 0 .55 -.446 .996 -.996 .996 C -1.547 .996 -1.993 .55 -1.993 0 C -1.993 -.55 -1.547 -.996 -.996 -.996 C -.446 -.996 0 -.55 0 0 Z "/>
<path transform="matrix(1,0,0,-1,436.3217,65.92618)" d="M 0 0 C 0 .55 -.446 .996 -.996 .996 C -1.547 .996 -1.993 .55 -1.993 0 C -1.993 -.55 -1.547 -.996 -.996 -.996 C -.446 -.996 0 -.55 0 0 Z "/>
<path transform="matrix(1,0,0,-1,436.3217,65.92618)" stroke-width=".797" stroke-linecap="butt" stroke-miterlimit="10" stroke-linejoin="miter" fill="none" stroke="#000000" d="M 0 0 C 0 .55 -.446 .996 -.996 .996 C -1.547 .996 -1.993 .55 -1.993 0 C -1.993 -.55 -1.547 -.996 -.996 -.996 C -.446 -.996 0 -.55 0 0 Z "/>
<path transform="matrix(1,0,0,-1,446.7588,52.381677)" d="M 0 0 C 0 .55 -.446 .996 -.996 .996 C -1.546 .996 -1.993 .55 -1.993 0 C -1.993 -.55 -1.546 -.996 -.996 -.996 C -.446 -.996 0 -.55 0 0 Z "/>
<path transform="matrix(1,0,0,-1,446.7588,52.381677)" stroke-width=".797" stroke-linecap="butt" stroke-miterlimit="10" stroke-linejoin="miter" fill="none" stroke="#000000" d="M 0 0 C 0 .55 -.446 .996 -.996 .996 C -1.546 .996 -1.993 .55 -1.993 0 C -1.993 -.55 -1.546 -.996 -.996 -.996 C -.446 -.996 0 -.55 0 0 Z "/>
<path transform="matrix(1,0,0,-1,457.1958,37.242177)" d="M 0 0 C 0 .55 -.446 .996 -.996 .996 C -1.547 .996 -1.993 .55 -1.993 0 C -1.993 -.55 -1.547 -.996 -.996 -.996 C -.446 -.996 0 -.55 0 0 Z "/>
<path transform="matrix(1,0,0,-1,457.1958,37.242177)" stroke-width=".797" stroke-linecap="butt" stroke-miterlimit="10" stroke-linejoin="miter" fill="none" stroke="#000000" d="M 0 0 C 0 .55 -.446 .996 -.996 .996 C -1.547 .996 -1.993 .55 -1.993 0 C -1.993 -.55 -1.547 -.996 -.996 -.996 C -.446 -.996 0 -.55 0 0 Z "/>
<path transform="matrix(1,0,0,-1,467.63288,25.983876)" d="M 0 0 C 0 .55 -.446 .996 -.996 .996 C -1.547 .996 -1.993 .55 -1.993 0 C -1.993 -.55 -1.547 -.996 -.996 -.996 C -.446 -.996 0 -.55 0 0 Z "/>
<path transform="matrix(1,0,0,-1,467.63288,25.983876)" stroke-width=".797" stroke-linecap="butt" stroke-miterlimit="10" stroke-linejoin="miter" fill="none" stroke="#000000" d="M 0 0 C 0 .55 -.446 .996 -.996 .996 C -1.547 .996 -1.993 .55 -1.993 0 C -1.993 -.55 -1.547 -.996 -.996 -.996 C -.446 -.996 0 -.55 0 0 Z "/>
<text xml:space="preserve" transform="matrix(1 0 -0 1 -58.9642 628.397)" font-size="8.966" font-family="CMMI9" font-style="italic"><tspan y="-583.944" x="518.752">t</tspan><tspan y="-613.342" x="403.876">x</tspan></text>
<text xml:space="preserve" transform="matrix(1 0 -0 1 -58.9642 628.397)" font-size="5.978" font-family="CMMI6" font-style="italic"><tspan y="-612.346" x="409.099">s</tspan></text>
<text xml:space="preserve" transform="matrix(1 0 -0 1 -58.9642 628.397)" font-size="8.966" font-family="CMR9"><tspan y="-613.342" x="413.091">(</tspan></text>
<text xml:space="preserve" transform="matrix(1 0 -0 1 -58.9642 628.397)" font-size="8.966" font-family="CMMI9" font-style="italic"><tspan y="-613.342" x="416.6774">t</tspan></text>
<text xml:space="preserve" transform="matrix(1 0 -0 1 -58.9642 628.397)" font-size="8.966" font-family="CMR9"><tspan y="-613.342" x="420.00379">)</tspan><tspan y="-540.774" x="413.13603 416.7224 420.8199">(c)</tspan></text>
<text xml:space="preserve" transform="matrix(1 0 -0 1 -58.9642 628.397)" font-size="8.966" font-family="CMMI9" font-style="italic"><tspan y="-540.774" x="427.471">x</tspan></text>
<text xml:space="preserve" transform="matrix(1 0 -0 1 -58.9642 628.397)" font-size="5.978" font-family="CMMI6" font-style="italic"><tspan y="-539.778" x="432.695">s</tspan></text>
<text xml:space="preserve" transform="matrix(1 0 -0 1 -58.9642 628.397)" font-size="8.966" font-family="CMR9"><tspan y="-540.774" x="436.687">(</tspan></text>
<text xml:space="preserve" transform="matrix(1 0 -0 1 -58.9642 628.397)" font-size="8.966" font-family="CMMI9" font-style="italic"><tspan y="-540.774" x="440.2734">t</tspan></text>
<text xml:space="preserve" transform="matrix(1 0 -0 1 -58.9642 628.397)" font-size="8.966" font-family="CMR9"><tspan y="-540.774" x="443.5998 447.1862 453.84797 457.4792 462.0877 469.77159 474.89118 477.45545 481.55293 489.7389 493.37013 495.9344 500.5429 505.6625 510.27104">):sampledsignal</tspan></text>
</g>
</svg>
