<?xml version="1.0" encoding="UTF-8" standalone="no"?>
<!DOCTYPE svg PUBLIC "-//W3C//DTD SVG 1.1//EN" "http://www.w3.org/Graphics/SVG/1.1/DTD/svg11.dtd">
<svg xmlns="http://www.w3.org/2000/svg" xmlns:xlink="http://www.w3.org/1999/xlink" version="1.1" width="442.8604pt" height="99.53003pt" viewBox="0 0 442.8604 99.53003">
<g enable-background="new">
<path transform="matrix(1,0,0,-1,7.735405,52.51772)" stroke-width=".398" stroke-linecap="butt" stroke-miterlimit="10" stroke-linejoin="miter" fill="none" stroke="#000000" d="M 0 0 L 137.427 0 "/>
<path transform="matrix(1,0,0,-1,147.15454,52.51764)" d="M 0 0 L -3.188 1.594 L -1.993 0 L -3.188 -1.594 "/>
<path transform="matrix(1,0,0,-1,7.735405,77.90802)" stroke-width=".398" stroke-linecap="butt" stroke-miterlimit="10" stroke-linejoin="miter" fill="none" stroke="#000000" d="M 0 0 L 0 66.561 "/>
<path transform="matrix(0,-1,-1,-0,7.735405,9.354118)" d="M 0 0 L -3.188 1.594 L -1.993 0 L -3.188 -1.594 "/>
<clipPath id="cp0">
<path transform="matrix(1,0,0,-1,7.735405,77.90802)" d="M 0 0 L 139.419 0 L 139.419 68.554 L 0 68.554 Z "/>
</clipPath>
<g clip-path="url(#cp0)">
<path transform="matrix(1,0,0,-1,7.735405,52.51772)" stroke-width=".797" stroke-linecap="butt" stroke-miterlimit="10" stroke-linejoin="miter" fill="none" stroke="#000000" d="M 0 0 L 0 0 M 11.618 0 L 11.618 14.563 M 23.237 0 L 23.237 23.859 M 34.855 0 L 34.855 24.525 M 46.473 0 L 46.473 16.321 M 58.091 0 L 58.091 2.213 M 69.71 0 L 69.71 -12.695 M 81.328 0 L 81.328 -23.012 M 92.946 0 L 92.946 -25.005 M 104.564 0 L 104.564 -17.954 M 116.183 0 L 116.183 -4.409 M 127.801 0 L 127.801 10.73 M 139.419 0 L 139.419 21.989 "/>
<path transform="matrix(1,0,0,-1,7.735405,52.51772)" stroke-width=".398" stroke-linecap="butt" stroke-dasharray=".398,.996" stroke-miterlimit="10" stroke-linejoin="miter" fill="none" stroke="#000000" d="M 0 0 L 1.408 1.878 L 2.817 3.746 L 4.225 5.593 L 5.633 7.41 L 7.041 9.186 L 8.45 10.912 L 9.858 12.578 L 11.266 14.175 L 12.674 15.695 L 14.083 17.127 L 15.491 18.467 L 16.899 19.706 L 18.307 20.836 L 19.716 21.852 L 21.124 22.748 L 22.532 23.521 L 23.941 24.164 L 25.349 24.673 L 26.757 25.049 L 28.165 25.287 L 29.574 25.387 L 30.982 25.346 L 32.39 25.168 L 33.798 24.852 L 35.207 24.399 L 36.615 23.812 L 38.023 23.095 L 39.431 22.251 L 40.84 21.286 L 42.248 20.204 L 43.656 19.01 L 45.065 17.714 L 46.473 16.32 L 47.881 14.837 L 49.289 13.272 L 50.698 11.634 L 52.106 9.933 L 53.514 8.177 L 54.922 6.377 L 56.331 4.541 L 57.739 2.681 L 59.147 .805 L 60.555 -1.073 L 61.964 -2.947 L 63.372 -4.804 L 64.78 -6.636 L 66.188 -8.43 L 67.597 -10.179 L 69.005 -11.872 L 70.413 -13.5 L 71.822 -15.053 L 73.23 -16.524 L 74.638 -17.905 L 76.046 -19.188 L 77.455 -20.365 L 78.863 -21.43 L 80.271 -22.379 L 81.679 -23.205 L 83.088 -23.904 L 84.496 -24.471 L 85.904 -24.905 L 87.313 -25.202 L 88.721 -25.361 L 90.129 -25.38 L 91.537 -25.261 L 92.946 -25.004 L 94.354 -24.609 L 95.762 -24.08 L 97.17 -23.418 L 98.579 -22.629 L 99.987 -21.715 L 101.395 -20.682 L 102.803 -19.536 L 104.212 -18.283 L 105.62 -16.929 L 107.028 -15.483 L 108.436 -13.952 L 109.845 -12.345 L 111.253 -10.67 L 112.661 -8.936 L 114.07 -7.153 L 115.478 -5.332 L 116.886 -3.481 L 118.294 -1.611 L 119.703 .267 L 121.111 2.145 L 122.519 4.011 L 123.927 5.854 L 125.336 7.665 L 126.744 9.435 L 128.152 11.153 L 129.56 12.81 L 130.969 14.396 L 132.377 15.904 L 133.785 17.325 L 135.194 18.649 L 136.602 19.873 L 138.01 20.988 L 139.418 21.988 "/>
</g>
<path transform="matrix(1,0,0,-1,8.731705,52.51772)" d="M 0 0 C 0 .55 -.446 .996 -.996 .996 C -1.547 .996 -1.993 .55 -1.993 0 C -1.993 -.55 -1.547 -.996 -.996 -.996 C -.446 -.996 0 -.55 0 0 Z "/>
<path transform="matrix(1,0,0,-1,8.731705,52.51772)" stroke-width=".797" stroke-linecap="butt" stroke-miterlimit="10" stroke-linejoin="miter" fill="none" stroke="#000000" d="M 0 0 C 0 .55 -.446 .996 -.996 .996 C -1.547 .996 -1.993 .55 -1.993 0 C -1.993 -.55 -1.547 -.996 -.996 -.996 C -.446 -.996 0 -.55 0 0 Z "/>
<path transform="matrix(1,0,0,-1,20.349905,37.95432)" d="M 0 0 C 0 .55 -.446 .996 -.996 .996 C -1.547 .996 -1.993 .55 -1.993 0 C -1.993 -.55 -1.547 -.996 -.996 -.996 C -.446 -.996 0 -.55 0 0 Z "/>
<path transform="matrix(1,0,0,-1,20.349905,37.95432)" stroke-width=".797" stroke-linecap="butt" stroke-miterlimit="10" stroke-linejoin="miter" fill="none" stroke="#000000" d="M 0 0 C 0 .55 -.446 .996 -.996 .996 C -1.547 .996 -1.993 .55 -1.993 0 C -1.993 -.55 -1.547 -.996 -.996 -.996 C -.446 -.996 0 -.55 0 0 Z "/>
<path transform="matrix(1,0,0,-1,31.968205,28.65842)" d="M 0 0 C 0 .55 -.446 .996 -.996 .996 C -1.547 .996 -1.993 .55 -1.993 0 C -1.993 -.55 -1.547 -.996 -.996 -.996 C -.446 -.996 0 -.55 0 0 Z "/>
<path transform="matrix(1,0,0,-1,31.968205,28.65842)" stroke-width=".797" stroke-linecap="butt" stroke-miterlimit="10" stroke-linejoin="miter" fill="none" stroke="#000000" d="M 0 0 C 0 .55 -.446 .996 -.996 .996 C -1.547 .996 -1.993 .55 -1.993 0 C -1.993 -.55 -1.547 -.996 -.996 -.996 C -.446 -.996 0 -.55 0 0 Z "/>
<path transform="matrix(1,0,0,-1,43.586507,27.99242)" d="M 0 0 C 0 .55 -.446 .996 -.996 .996 C -1.547 .996 -1.993 .55 -1.993 0 C -1.993 -.55 -1.547 -.996 -.996 -.996 C -.446 -.996 0 -.55 0 0 Z "/>
<path transform="matrix(1,0,0,-1,43.586507,27.99242)" stroke-width=".797" stroke-linecap="butt" stroke-miterlimit="10" stroke-linejoin="miter" fill="none" stroke="#000000" d="M 0 0 C 0 .55 -.446 .996 -.996 .996 C -1.547 .996 -1.993 .55 -1.993 0 C -1.993 -.55 -1.547 -.996 -.996 -.996 C -.446 -.996 0 -.55 0 0 Z "/>
<path transform="matrix(1,0,0,-1,55.204706,36.19702)" d="M 0 0 C 0 .55 -.446 .996 -.996 .996 C -1.547 .996 -1.993 .55 -1.993 0 C -1.993 -.55 -1.547 -.996 -.996 -.996 C -.446 -.996 0 -.55 0 0 Z "/>
<path transform="matrix(1,0,0,-1,55.204706,36.19702)" stroke-width=".797" stroke-linecap="butt" stroke-miterlimit="10" stroke-linejoin="miter" fill="none" stroke="#000000" d="M 0 0 C 0 .55 -.446 .996 -.996 .996 C -1.547 .996 -1.993 .55 -1.993 0 C -1.993 -.55 -1.547 -.996 -.996 -.996 C -.446 -.996 0 -.55 0 0 Z "/>
<path transform="matrix(1,0,0,-1,66.823009,50.304719)" d="M 0 0 C 0 .55 -.446 .996 -.996 .996 C -1.547 .996 -1.993 .55 -1.993 0 C -1.993 -.55 -1.547 -.996 -.996 -.996 C -.446 -.996 0 -.55 0 0 Z "/>
<path transform="matrix(1,0,0,-1,66.823009,50.304719)" stroke-width=".797" stroke-linecap="butt" stroke-miterlimit="10" stroke-linejoin="miter" fill="none" stroke="#000000" d="M 0 0 C 0 .55 -.446 .996 -.996 .996 C -1.547 .996 -1.993 .55 -1.993 0 C -1.993 -.55 -1.547 -.996 -.996 -.996 C -.446 -.996 0 -.55 0 0 Z "/>
<path transform="matrix(1,0,0,-1,78.44131,65.21282)" d="M 0 0 C 0 .55 -.446 .996 -.996 .996 C -1.547 .996 -1.993 .55 -1.993 0 C -1.993 -.55 -1.547 -.996 -.996 -.996 C -.446 -.996 0 -.55 0 0 Z "/>
<path transform="matrix(1,0,0,-1,78.44131,65.21282)" stroke-width=".797" stroke-linecap="butt" stroke-miterlimit="10" stroke-linejoin="miter" fill="none" stroke="#000000" d="M 0 0 C 0 .55 -.446 .996 -.996 .996 C -1.547 .996 -1.993 .55 -1.993 0 C -1.993 -.55 -1.547 -.996 -.996 -.996 C -.446 -.996 0 -.55 0 0 Z "/>
<path transform="matrix(1,0,0,-1,90.0595,75.52922)" d="M 0 0 C 0 .55 -.446 .996 -.996 .996 C -1.547 .996 -1.993 .55 -1.993 0 C -1.993 -.55 -1.547 -.996 -.996 -.996 C -.446 -.996 0 -.55 0 0 Z "/>
<path transform="matrix(1,0,0,-1,90.0595,75.52922)" stroke-width=".797" stroke-linecap="butt" stroke-miterlimit="10" stroke-linejoin="miter" fill="none" stroke="#000000" d="M 0 0 C 0 .55 -.446 .996 -.996 .996 C -1.547 .996 -1.993 .55 -1.993 0 C -1.993 -.55 -1.547 -.996 -.996 -.996 C -.446 -.996 0 -.55 0 0 Z "/>
<path transform="matrix(1,0,0,-1,101.6778,77.52262)" d="M 0 0 C 0 .55 -.446 .996 -.996 .996 C -1.547 .996 -1.993 .55 -1.993 0 C -1.993 -.55 -1.547 -.996 -.996 -.996 C -.446 -.996 0 -.55 0 0 Z "/>
<path transform="matrix(1,0,0,-1,101.6778,77.52262)" stroke-width=".797" stroke-linecap="butt" stroke-miterlimit="10" stroke-linejoin="miter" fill="none" stroke="#000000" d="M 0 0 C 0 .55 -.446 .996 -.996 .996 C -1.547 .996 -1.993 .55 -1.993 0 C -1.993 -.55 -1.547 -.996 -.996 -.996 C -.446 -.996 0 -.55 0 0 Z "/>
<path transform="matrix(1,0,0,-1,113.296009,70.47122)" d="M 0 0 C 0 .55 -.446 .996 -.996 .996 C -1.547 .996 -1.993 .55 -1.993 0 C -1.993 -.55 -1.547 -.996 -.996 -.996 C -.446 -.996 0 -.55 0 0 Z "/>
<path transform="matrix(1,0,0,-1,113.296009,70.47122)" stroke-width=".797" stroke-linecap="butt" stroke-miterlimit="10" stroke-linejoin="miter" fill="none" stroke="#000000" d="M 0 0 C 0 .55 -.446 .996 -.996 .996 C -1.547 .996 -1.993 .55 -1.993 0 C -1.993 -.55 -1.547 -.996 -.996 -.996 C -.446 -.996 0 -.55 0 0 Z "/>
<path transform="matrix(1,0,0,-1,124.91431,56.92672)" d="M 0 0 C 0 .55 -.446 .996 -.996 .996 C -1.547 .996 -1.993 .55 -1.993 0 C -1.993 -.55 -1.547 -.996 -.996 -.996 C -.446 -.996 0 -.55 0 0 Z "/>
<path transform="matrix(1,0,0,-1,124.91431,56.92672)" stroke-width=".797" stroke-linecap="butt" stroke-miterlimit="10" stroke-linejoin="miter" fill="none" stroke="#000000" d="M 0 0 C 0 .55 -.446 .996 -.996 .996 C -1.547 .996 -1.993 .55 -1.993 0 C -1.993 -.55 -1.547 -.996 -.996 -.996 C -.446 -.996 0 -.55 0 0 Z "/>
<path transform="matrix(1,0,0,-1,136.5326,41.78722)" d="M 0 0 C 0 .55 -.446 .996 -.996 .996 C -1.547 .996 -1.993 .55 -1.993 0 C -1.993 -.55 -1.547 -.996 -.996 -.996 C -.446 -.996 0 -.55 0 0 Z "/>
<path transform="matrix(1,0,0,-1,136.5326,41.78722)" stroke-width=".797" stroke-linecap="butt" stroke-miterlimit="10" stroke-linejoin="miter" fill="none" stroke="#000000" d="M 0 0 C 0 .55 -.446 .996 -.996 .996 C -1.547 .996 -1.993 .55 -1.993 0 C -1.993 -.55 -1.547 -.996 -.996 -.996 C -.446 -.996 0 -.55 0 0 Z "/>
<path transform="matrix(1,0,0,-1,148.15082,30.52892)" d="M 0 0 C 0 .55 -.446 .996 -.996 .996 C -1.547 .996 -1.993 .55 -1.993 0 C -1.993 -.55 -1.547 -.996 -.996 -.996 C -.446 -.996 0 -.55 0 0 Z "/>
<path transform="matrix(1,0,0,-1,148.15082,30.52892)" stroke-width=".797" stroke-linecap="butt" stroke-miterlimit="10" stroke-linejoin="miter" fill="none" stroke="#000000" d="M 0 0 C 0 .55 -.446 .996 -.996 .996 C -1.547 .996 -1.993 .55 -1.993 0 C -1.993 -.55 -1.547 -.996 -.996 -.996 C -.446 -.996 0 -.55 0 0 Z "/>
<text xml:space="preserve" transform="matrix(1 0 -0 1 -69.3966 768.841)" font-size="8.966" font-family="CMMI9" font-style="italic"><tspan y="-719.843" x="209.702">t</tspan><tspan y="-749.241" x="80.65199">x</tspan></text>
<text xml:space="preserve" transform="matrix(1 0 -0 1 -69.3966 768.841)" font-size="5.978" font-family="CMMI6" font-style="italic"><tspan y="-748.24508" x="85.87499">s</tspan></text>
<text xml:space="preserve" transform="matrix(1 0 -0 1 -69.3966 768.841)" font-size="8.966" font-family="CMR9"><tspan y="-749.241" x="89.86699">(</tspan></text>
<text xml:space="preserve" transform="matrix(1 0 -0 1 -69.3966 768.841)" font-size="8.966" font-family="CMMI9" font-style="italic"><tspan y="-749.241" x="93.45339">t</tspan></text>
<text xml:space="preserve" transform="matrix(1 0 -0 1 -69.3966 768.841)" font-size="8.966" font-family="CMR9"><tspan y="-749.241" x="96.77978">)</tspan><tspan y="-676.67306" x="96.74299 100.32939 104.93791">(a)</tspan></text>
<text xml:space="preserve" transform="matrix(1 0 -0 1 -69.3966 768.841)" font-size="8.966" font-family="CMMI9" font-style="italic"><tspan y="-676.67306" x="111.58999">x</tspan></text>
<text xml:space="preserve" transform="matrix(1 0 -0 1 -69.3966 768.841)" font-size="5.978" font-family="CMMI6" font-style="italic"><tspan y="-675.67709" x="116.81399">s</tspan></text>
<text xml:space="preserve" transform="matrix(1 0 -0 1 -69.3966 768.841)" font-size="8.966" font-family="CMR9"><tspan y="-676.67306" x="120.805988">(</tspan></text>
<text xml:space="preserve" transform="matrix(1 0 -0 1 -69.3966 768.841)" font-size="8.966" font-family="CMMI9" font-style="italic"><tspan y="-676.67306" x="124.39239">t</tspan></text>
<text xml:space="preserve" transform="matrix(1 0 -0 1 -69.3966 768.841)" font-size="8.966" font-family="CMR9"><tspan y="-676.67306" x="127.71877 131.30518 137.96697 141.59819 146.20671 153.89058 159.01016 161.57444 165.67189 173.85784 177.48906 180.05333 184.66185 189.78144 194.38996">):sampledsignal</tspan></text>
<path transform="matrix(1,0,0,-1,210.20708,54.849718)" stroke-width=".199" stroke-linecap="butt" stroke-miterlimit="10" stroke-linejoin="miter" fill="none" stroke="#929292" d="M 0 0 L 0 4.252 M 28.073 0 L 28.073 4.252 M 98.257 0 L 98.257 4.252 M 182.478 0 L 182.478 4.252 "/>
<path transform="matrix(1,0,0,-1,222.11788,27.333313)" stroke-width=".199" stroke-linecap="butt" stroke-miterlimit="10" stroke-linejoin="miter" fill="none" stroke="#929292" d="M 0 0 L 4.252 0 "/>
<path transform="matrix(1,0,0,-1,196.17038,52.723714)" stroke-width=".398" stroke-linecap="butt" stroke-miterlimit="10" stroke-linejoin="miter" fill="none" stroke="#000000" d="M 0 0 L 236.632 0 "/>
<path transform="matrix(1,0,0,-1,434.79505,52.723695)" d="M 0 0 L -3.188 1.594 L -1.993 0 L -3.188 -1.594 "/>
<path transform="matrix(1,0,0,-1,224.24388,78.11401)" stroke-width=".398" stroke-linecap="butt" stroke-miterlimit="10" stroke-linejoin="miter" fill="none" stroke="#000000" d="M 0 0 L 0 66.561 "/>
<path transform="matrix(0,-1,-1,-0,224.2439,9.560112)" d="M 0 0 L -3.188 1.594 L -1.993 0 L -3.188 -1.594 "/>
<text xml:space="preserve" transform="matrix(1 0 -0 1 -69.3966 768.841)" font-size="8.966" font-family="CMSY9" font-style="italic"><tspan y="-702.8" x="269.635">&#x2212;</tspan></text>
<text xml:space="preserve" transform="matrix(1 0 -0 1 -69.3966 768.841)" font-size="8.966" font-family="CMMI9" font-style="italic"><tspan y="-702.8" x="276.79887">&#x03c9;</tspan></text>
<text xml:space="preserve" transform="matrix(1 0 -0 1 -69.3966 768.841)" font-size="5.978" font-family="CMMI6" font-style="italic"><tspan y="-701.804" x="282.536">m</tspan></text>
<text xml:space="preserve" transform="matrix(1 0 -0 1 -69.3966 768.841)" font-size="8.966" font-family="CMMI9" font-style="italic"><tspan y="-702.8" x="301.29203">&#x03c9;</tspan></text>
<text xml:space="preserve" transform="matrix(1 0 -0 1 -69.3966 768.841)" font-size="5.978" font-family="CMMI6" font-style="italic"><tspan y="-701.804" x="307.02503">m</tspan></text>
<text xml:space="preserve" transform="matrix(1 0 -0 1 -69.3966 768.841)" font-size="8.966" font-family="CMMI9" font-style="italic"><tspan y="-702.8" x="372.997">&#x03c9;</tspan></text>
<text xml:space="preserve" transform="matrix(1 0 -0 1 -69.3966 768.841)" font-size="5.978" font-family="CMMI6" font-style="italic"><tspan y="-701.804" x="378.73">s</tspan></text>
<text xml:space="preserve" transform="matrix(1 0 -0 1 -69.3966 768.841)" font-size="8.966" font-family="CMR9"><tspan y="-702.8" x="454.91203">2</tspan></text>
<text xml:space="preserve" transform="matrix(1 0 -0 1 -69.3966 768.841)" font-size="8.966" font-family="CMMI9" font-style="italic"><tspan y="-702.8" x="459.52055">&#x03c9;</tspan></text>
<text xml:space="preserve" transform="matrix(1 0 -0 1 -69.3966 768.841)" font-size="5.978" font-family="CMMI6" font-style="italic"><tspan y="-701.804" x="465.25303">s</tspan></text>
<text xml:space="preserve" transform="matrix(1 0 -0 1 -69.3966 768.841)" font-size="5.978" font-family="CMR6"><tspan y="-742.989" x="285.62303">1</tspan></text>
<path transform="matrix(1,0,0,-1,215.38339,27.283997)" stroke-width=".379" stroke-linecap="butt" stroke-miterlimit="10" stroke-linejoin="miter" fill="none" stroke="#000000" d="M 0 0 L 5.339 0 "/>
<text xml:space="preserve" transform="matrix(1 0 -0 1 -69.3966 768.841)" font-size="5.978" font-family="CMMI6" font-style="italic"><tspan y="-736.273" x="284.78">T</tspan></text>
<clipPath id="cp1">
<path transform="matrix(1,0,0,-1,196.17038,78.11401)" d="M 0 0 L 238.625 0 L 238.625 68.554 L 0 68.554 Z "/>
</clipPath>
<g clip-path="url(#cp1)">
<path transform="matrix(1,0,0,-1,210.20708,52.723714)" stroke-width=".797" stroke-linecap="butt" stroke-miterlimit="10" stroke-linejoin="miter" fill="none" stroke="#000000" d="M 0 0 L 0 25.39 M 28.073 0 L 28.073 25.39 M 84.22 0 L 84.22 25.39 M 112.294 0 L 112.294 25.39 M 168.441 0 L 168.441 25.39 M 196.514 0 L 196.514 25.39 "/>
</g>
<path transform="matrix(1,0,0,-1,211.20339,27.333313)" d="M 0 0 C 0 .55 -.446 .996 -.996 .996 C -1.547 .996 -1.993 .55 -1.993 0 C -1.993 -.55 -1.547 -.996 -.996 -.996 C -.446 -.996 0 -.55 0 0 Z "/>
<path transform="matrix(1,0,0,-1,211.20339,27.333313)" stroke-width=".797" stroke-linecap="butt" stroke-miterlimit="10" stroke-linejoin="miter" fill="none" stroke="#000000" d="M 0 0 C 0 .55 -.446 .996 -.996 .996 C -1.547 .996 -1.993 .55 -1.993 0 C -1.993 -.55 -1.547 -.996 -.996 -.996 C -.446 -.996 0 -.55 0 0 Z "/>
<path transform="matrix(1,0,0,-1,239.27689,27.333313)" d="M 0 0 C 0 .55 -.446 .996 -.996 .996 C -1.546 .996 -1.993 .55 -1.993 0 C -1.993 -.55 -1.546 -.996 -.996 -.996 C -.446 -.996 0 -.55 0 0 Z "/>
<path transform="matrix(1,0,0,-1,239.27689,27.333313)" stroke-width=".797" stroke-linecap="butt" stroke-miterlimit="10" stroke-linejoin="miter" fill="none" stroke="#000000" d="M 0 0 C 0 .55 -.446 .996 -.996 .996 C -1.546 .996 -1.993 .55 -1.993 0 C -1.993 -.55 -1.546 -.996 -.996 -.996 C -.446 -.996 0 -.55 0 0 Z "/>
<path transform="matrix(1,0,0,-1,295.4239,27.333313)" d="M 0 0 C 0 .55 -.446 .996 -.996 .996 C -1.547 .996 -1.993 .55 -1.993 0 C -1.993 -.55 -1.547 -.996 -.996 -.996 C -.446 -.996 0 -.55 0 0 Z "/>
<path transform="matrix(1,0,0,-1,295.4239,27.333313)" stroke-width=".797" stroke-linecap="butt" stroke-miterlimit="10" stroke-linejoin="miter" fill="none" stroke="#000000" d="M 0 0 C 0 .55 -.446 .996 -.996 .996 C -1.547 .996 -1.993 .55 -1.993 0 C -1.993 -.55 -1.547 -.996 -.996 -.996 C -.446 -.996 0 -.55 0 0 Z "/>
<path transform="matrix(1,0,0,-1,323.49739,27.333313)" d="M 0 0 C 0 .55 -.446 .996 -.996 .996 C -1.547 .996 -1.993 .55 -1.993 0 C -1.993 -.55 -1.547 -.996 -.996 -.996 C -.446 -.996 0 -.55 0 0 Z "/>
<path transform="matrix(1,0,0,-1,323.49739,27.333313)" stroke-width=".797" stroke-linecap="butt" stroke-miterlimit="10" stroke-linejoin="miter" fill="none" stroke="#000000" d="M 0 0 C 0 .55 -.446 .996 -.996 .996 C -1.547 .996 -1.993 .55 -1.993 0 C -1.993 -.55 -1.547 -.996 -.996 -.996 C -.446 -.996 0 -.55 0 0 Z "/>
<path transform="matrix(1,0,0,-1,379.64439,27.333313)" d="M 0 0 C 0 .55 -.446 .996 -.996 .996 C -1.547 .996 -1.993 .55 -1.993 0 C -1.993 -.55 -1.547 -.996 -.996 -.996 C -.446 -.996 0 -.55 0 0 Z "/>
<path transform="matrix(1,0,0,-1,379.64439,27.333313)" stroke-width=".797" stroke-linecap="butt" stroke-miterlimit="10" stroke-linejoin="miter" fill="none" stroke="#000000" d="M 0 0 C 0 .55 -.446 .996 -.996 .996 C -1.547 .996 -1.993 .55 -1.993 0 C -1.993 -.55 -1.547 -.996 -.996 -.996 C -.446 -.996 0 -.55 0 0 Z "/>
<path transform="matrix(1,0,0,-1,407.7179,27.333313)" d="M 0 0 C 0 .55 -.446 .996 -.996 .996 C -1.547 .996 -1.993 .55 -1.993 0 C -1.993 -.55 -1.547 -.996 -.996 -.996 C -.446 -.996 0 -.55 0 0 Z "/>
<path transform="matrix(1,0,0,-1,407.7179,27.333313)" stroke-width=".797" stroke-linecap="butt" stroke-miterlimit="10" stroke-linejoin="miter" fill="none" stroke="#000000" d="M 0 0 C 0 .55 -.446 .996 -.996 .996 C -1.547 .996 -1.993 .55 -1.993 0 C -1.993 -.55 -1.547 -.996 -.996 -.996 C -.446 -.996 0 -.55 0 0 Z "/>
<text xml:space="preserve" transform="matrix(1 0 -0 1 -69.3966 768.841)" font-size="8.966" font-family="CMMI9" font-style="italic"><tspan y="-719.637" x="494.614">&#x03c9;</tspan></text>
<text xml:space="preserve" transform="matrix(1 0 -0 1 -69.3966 768.841)" font-size="8.966" font-family="CMSY9" font-style="italic"><tspan y="-749.03506" x="297.16004">|</tspan></text>
<text xml:space="preserve" transform="matrix(1 0 -0 1 -69.3966 768.841)" font-size="8.966" font-family="CMMI9" font-style="italic"><tspan y="-749.03506" x="299.7243">X</tspan></text>
<text xml:space="preserve" transform="matrix(1 0 -0 1 -69.3966 768.841)" font-size="5.978" font-family="CMMI6" font-style="italic"><tspan y="-748.03909" x="307.33204">s</tspan></text>
<text xml:space="preserve" transform="matrix(1 0 -0 1 -69.3966 768.841)" font-size="8.966" font-family="CMR9"><tspan y="-749.03506" x="311.32405">(</tspan></text>
<text xml:space="preserve" transform="matrix(1 0 -0 1 -69.3966 768.841)" font-size="8.966" font-family="CMMI9" font-style="italic"><tspan y="-749.03506" x="314.91044 319.18724">j&#x03c9;</tspan></text>
<text xml:space="preserve" transform="matrix(1 0 -0 1 -69.3966 768.841)" font-size="8.966" font-family="CMR9"><tspan y="-749.03506" x="325.24406">)</tspan></text>
<text xml:space="preserve" transform="matrix(1 0 -0 1 -69.3966 768.841)" font-size="8.966" font-family="CMSY9" font-style="italic"><tspan y="-749.03506" x="328.83045">|</tspan></text>
<g id="Layer-1" data-name="TouchUp_TextEdit">
</g>
<text xml:space="preserve" transform="matrix(1 0 -0 1 -69.3966 768.841)" font-size="8.966" font-family="CMR9"><tspan y="-677.085" x="303.2 306.7864 311.906">(b)</tspan></text>
<text xml:space="preserve" transform="matrix(1 0 -0 1 -69.3966 768.841)" font-size="8.966" font-family="MinionPro"><tspan y="-677.085" x="315.46504"> </tspan></text>
<text xml:space="preserve" transform="matrix(1 0 -0 1 -69.3966 768.841)" font-size="8.966" font-family="CMR9"><tspan y="-677.085" x="318.54005 323.65965 328.77925 332.8767 336.97419 340.56059 344.16493 349.28453">Spectrum</tspan></text>
<text xml:space="preserve" transform="matrix(1 0 -0 1 -69.3966 768.841)" font-size="8.966" font-family="MinionPro"><tspan y="-677.085" x="356.91404"> </tspan></text>
<text xml:space="preserve" transform="matrix(1 0 -0 1 -69.3966 768.841)" font-size="8.966" font-family="CMR9"><tspan y="-677.085" x="359.98905 364.59757">of</tspan></text>
<text xml:space="preserve" transform="matrix(1 0 -0 1 -69.3966 768.841)" font-size="8.966" font-family="MinionPro"><tspan y="-677.085" x="367.40406"> </tspan></text>
<text xml:space="preserve" transform="matrix(1 0 -0 1 -69.3966 768.841)" font-size="8.966" font-family="CMR9"><tspan y="-677.085" x="370.47908 374.06547 379.18507">the</tspan></text>
<text xml:space="preserve" transform="matrix(1 0 -0 1 -69.3966 768.841)" font-size="8.966" font-family="MinionPro"><tspan y="-677.085" x="383.26408"> </tspan></text>
<text xml:space="preserve" transform="matrix(1 0 -0 1 -69.3966 768.841)" font-size="8.966" font-family="CMR9"><tspan y="-677.085" x="386.33909 389.9703 394.57884 402.2627 407.3823 409.94657 414.04405">sampled</tspan></text>
<text xml:space="preserve" transform="matrix(1 0 -0 1 -69.3966 768.841)" font-size="8.966" font-family="MinionPro"><tspan y="-677.085" x="419.11808"> </tspan></text>
<text xml:space="preserve" transform="matrix(1 0 -0 1 -69.3966 768.841)" font-size="8.966" font-family="CMR9"><tspan y="-677.085" x="422.18507 425.81629 428.38056 432.98908 438.10868 442.7172">signal</tspan></text>
<text xml:space="preserve" transform="matrix(1 0 -0 1 -69.3966 768.841)" font-size="8.966" font-family="MinionPro"><tspan y="-677.085" x="445.23606"> </tspan></text>
<text xml:space="preserve" transform="matrix(1 0 -0 1 -69.3966 768.841)" font-size="8.966" font-family="CMMI9" font-style="italic"><tspan y="-677.085" x="448.30906">x</tspan></text>
<text xml:space="preserve" transform="matrix(1 0 -0 1 -69.3966 768.841)" font-size="5.978" font-family="CMMI6" font-style="italic"><tspan y="-676.08908" x="453.52705">s</tspan></text>
<text xml:space="preserve" transform="matrix(1 0 -0 1 -69.3966 768.841)" font-size="8.966" font-family="CMR9"><tspan y="-677.085" x="457.01805">(</tspan></text>
<text xml:space="preserve" transform="matrix(1 0 -0 1 -69.3966 768.841)" font-size="8.966" font-family="CMMI9" font-style="italic"><tspan y="-677.085" x="460.59504">t</tspan></text>
<text xml:space="preserve" transform="matrix(1 0 -0 1 -69.3966 768.841)" font-size="8.966" font-family="CMR9"><tspan y="-677.085" x="463.92143">)</tspan></text>
</g>
</svg>
