<?xml version="1.0" encoding="UTF-8" standalone="no"?>
<svg
   xmlns:dc="http://purl.org/dc/elements/1.1/"
   xmlns:cc="http://creativecommons.org/ns#"
   xmlns:rdf="http://www.w3.org/1999/02/22-rdf-syntax-ns#"
   xmlns:svg="http://www.w3.org/2000/svg"
   xmlns="http://www.w3.org/2000/svg"
   xmlns:sodipodi="http://sodipodi.sourceforge.net/DTD/sodipodi-0.dtd"
   xmlns:inkscape="http://www.inkscape.org/namespaces/inkscape"
   version="1.1"
   width="469.34083pt"
   height="71.22302pt"
   viewBox="0 0 469.34083 71.22302"
   id="svg190"
   sodipodi:docname="ex2b_1.svg"
   inkscape:version="1.0.1 (c497b03c, 2020-09-10)">
  <metadata
     id="metadata196">
    <rdf:RDF>
      <cc:Work
         rdf:about="">
        <dc:format>image/svg+xml</dc:format>
        <dc:type
           rdf:resource="http://purl.org/dc/dcmitype/StillImage" />
      </cc:Work>
    </rdf:RDF>
  </metadata>
  <defs
     id="defs194" />
  <sodipodi:namedview
     pagecolor="#ffffff"
     bordercolor="#666666"
     borderopacity="1"
     objecttolerance="10"
     gridtolerance="10"
     guidetolerance="10"
     inkscape:pageopacity="0"
     inkscape:pageshadow="2"
     inkscape:window-width="1920"
     inkscape:window-height="1027"
     id="namedview192"
     showgrid="false"
     showguides="false"
     inkscape:zoom="1.4372921"
     inkscape:cx="59.86918"
     inkscape:cy="-22.065717"
     inkscape:window-x="1440"
     inkscape:window-y="182"
     inkscape:window-maximized="1"
     inkscape:current-layer="g188" />
  <g
     enable-background="new"
     id="g188">
    <path
       transform="matrix(1,0,0,-1,24.913697,55.40499)"
       stroke-width=".199"
       stroke-linecap="butt"
       stroke-miterlimit="10"
       stroke-linejoin="miter"
       fill="none"
       stroke="#929292"
       d="M 0 0 L 0 4.252 "
       id="path10" />
    <path
       transform="matrix(1,0,0,-1,10.997795,53.27899)"
       stroke-width=".398"
       stroke-linecap="butt"
       stroke-miterlimit="10"
       stroke-linejoin="miter"
       fill="none"
       stroke="#000000"
       d="M 0 0 L 123.25 0 "
       id="path12" />
    <path
       transform="matrix(1,0,0,-1,136.24079,53.27899)"
       d="M 0 0 L -3.188 1.594 L -1.993 0 L -3.188 -1.594 "
       id="path14" />
    <path
       transform="matrix(1,0,0,-1,10.997795,53.27899)"
       stroke-width=".398"
       stroke-linecap="butt"
       stroke-miterlimit="10"
       stroke-linejoin="miter"
       fill="none"
       stroke="#000000"
       d="M 0 0 L 0 38.215 "
       id="path16" />
    <path
       transform="matrix(0,-1,-1,-0,10.997795,13.071342)"
       d="M 0 0 L -3.188 1.594 L -1.993 0 L -3.188 -1.594 "
       id="path18" />
    <text
       xml:space="preserve"
       transform="matrix(1 0 -0 1 -65.7442 671.138)"
       font-size="8.966"
       font-family="CMR9"
       id="text22"><tspan
         y="-606.435"
         x="88.354"
         id="tspan20">0</tspan></text>
    <clipPath
       id="cp0">
      <path
         transform="matrix(1,0,0,-1,10.997795,53.27899)"
         d="M 0 0 L 125.243 0 L 125.243 40.208 L 0 40.208 Z "
         id="path24" />
    </clipPath>
    <g
       clip-path="url(#cp0)"
       id="g45">
      <path
         transform="matrix(1,0,0,-1,10.997795,53.27899)"
         stroke-width=".797"
         stroke-linecap="butt"
         stroke-miterlimit="10"
         stroke-linejoin="miter"
         fill="none"
         stroke="#000000"
         d="M 0 0 L 0 0 M 13.916 0 L 13.916 40.208 M 27.832 0 L 27.832 0 M 41.748 0 L 41.748 0 M 55.664 0 L 55.664 0 M 69.579 0 L 69.579 0 M 83.495 0 L 83.495 0 M 97.411 0 L 97.411 0 M 111.327 0 L 111.327 0 M 125.243 0 L 125.243 0 "
         id="path27" />
      <text
         xml:space="preserve"
         transform="matrix(1 0 -0 1 -65.7442 671.138)"
         font-size="8.966"
         font-family="CMMI9"
         font-style="italic"
         id="text31"><tspan
           y="-651.804"
           x="173.558"
           id="tspan29">δ</tspan></text>
      <text
         xml:space="preserve"
         transform="matrix(1 0 -0 1 -65.7442 671.138)"
         font-size="8.966"
         font-family="CMR9"
         id="text35"><tspan
           y="-651.804"
           x="177.983"
           id="tspan33">[</tspan></text>
      <text
         xml:space="preserve"
         transform="matrix(1 0 -0 1 -65.7442 671.138)"
         font-size="8.966"
         font-family="CMMI9"
         font-style="italic"
         id="text39"><tspan
           y="-651.804"
           x="180.54727"
           id="tspan37">n</tspan></text>
      <text
         xml:space="preserve"
         transform="matrix(1 0 -0 1 -65.7442 671.138)"
         font-size="8.966"
         font-family="CMR9"
         id="text43"><tspan
           y="-651.804"
           x="186.10619"
           id="tspan41">]</tspan></text>
    </g>
    <path
       transform="matrix(1,0,0,-1,11.994095,53.27899)"
       d="M 0 0 C 0 .55 -.446 .996 -.996 .996 C -1.547 .996 -1.993 .55 -1.993 0 C -1.993 -.55 -1.547 -.996 -.996 -.996 C -.446 -.996 0 -.55 0 0 Z "
       id="path47" />
    <path
       transform="matrix(1,0,0,-1,11.994095,53.27899)"
       stroke-width=".797"
       stroke-linecap="butt"
       stroke-miterlimit="10"
       stroke-linejoin="miter"
       fill="none"
       stroke="#000000"
       d="M 0 0 C 0 .55 -.446 .996 -.996 .996 C -1.547 .996 -1.993 .55 -1.993 0 C -1.993 -.55 -1.547 -.996 -.996 -.996 C -.446 -.996 0 -.55 0 0 Z "
       id="path49" />
    <path
       transform="matrix(1,0,0,-1,25.909996,13.071293)"
       d="M 0 0 C 0 .55 -.446 .996 -.996 .996 C -1.547 .996 -1.993 .55 -1.993 0 C -1.993 -.55 -1.547 -.996 -.996 -.996 C -.446 -.996 0 -.55 0 0 Z "
       id="path51" />
    <path
       transform="matrix(1,0,0,-1,25.909996,13.071293)"
       stroke-width=".797"
       stroke-linecap="butt"
       stroke-miterlimit="10"
       stroke-linejoin="miter"
       fill="none"
       stroke="#000000"
       d="M 0 0 C 0 .55 -.446 .996 -.996 .996 C -1.547 .996 -1.993 .55 -1.993 0 C -1.993 -.55 -1.547 -.996 -.996 -.996 C -.446 -.996 0 -.55 0 0 Z "
       id="path53" />
    <path
       transform="matrix(1,0,0,-1,39.825899,53.27899)"
       d="M 0 0 C 0 .55 -.446 .996 -.996 .996 C -1.547 .996 -1.993 .55 -1.993 0 C -1.993 -.55 -1.547 -.996 -.996 -.996 C -.446 -.996 0 -.55 0 0 Z "
       id="path55" />
    <path
       transform="matrix(1,0,0,-1,39.825899,53.27899)"
       stroke-width=".797"
       stroke-linecap="butt"
       stroke-miterlimit="10"
       stroke-linejoin="miter"
       fill="none"
       stroke="#000000"
       d="M 0 0 C 0 .55 -.446 .996 -.996 .996 C -1.547 .996 -1.993 .55 -1.993 0 C -1.993 -.55 -1.547 -.996 -.996 -.996 C -.446 -.996 0 -.55 0 0 Z "
       id="path57" />
    <path
       transform="matrix(1,0,0,-1,53.741697,53.27899)"
       d="M 0 0 C 0 .55 -.446 .996 -.996 .996 C -1.547 .996 -1.993 .55 -1.993 0 C -1.993 -.55 -1.547 -.996 -.996 -.996 C -.446 -.996 0 -.55 0 0 Z "
       id="path59" />
    <path
       transform="matrix(1,0,0,-1,53.741697,53.27899)"
       stroke-width=".797"
       stroke-linecap="butt"
       stroke-miterlimit="10"
       stroke-linejoin="miter"
       fill="none"
       stroke="#000000"
       d="M 0 0 C 0 .55 -.446 .996 -.996 .996 C -1.547 .996 -1.993 .55 -1.993 0 C -1.993 -.55 -1.547 -.996 -.996 -.996 C -.446 -.996 0 -.55 0 0 Z "
       id="path61" />
    <path
       transform="matrix(1,0,0,-1,67.65759,53.27899)"
       d="M 0 0 C 0 .55 -.446 .996 -.996 .996 C -1.547 .996 -1.993 .55 -1.993 0 C -1.993 -.55 -1.547 -.996 -.996 -.996 C -.446 -.996 0 -.55 0 0 Z "
       id="path63" />
    <path
       transform="matrix(1,0,0,-1,67.65759,53.27899)"
       stroke-width=".797"
       stroke-linecap="butt"
       stroke-miterlimit="10"
       stroke-linejoin="miter"
       fill="none"
       stroke="#000000"
       d="M 0 0 C 0 .55 -.446 .996 -.996 .996 C -1.547 .996 -1.993 .55 -1.993 0 C -1.993 -.55 -1.547 -.996 -.996 -.996 C -.446 -.996 0 -.55 0 0 Z "
       id="path65" />
    <path
       transform="matrix(1,0,0,-1,81.573497,53.27899)"
       d="M 0 0 C 0 .55 -.446 .996 -.996 .996 C -1.547 .996 -1.993 .55 -1.993 0 C -1.993 -.55 -1.547 -.996 -.996 -.996 C -.446 -.996 0 -.55 0 0 Z "
       id="path67" />
    <path
       transform="matrix(1,0,0,-1,81.573497,53.27899)"
       stroke-width=".797"
       stroke-linecap="butt"
       stroke-miterlimit="10"
       stroke-linejoin="miter"
       fill="none"
       stroke="#000000"
       d="M 0 0 C 0 .55 -.446 .996 -.996 .996 C -1.547 .996 -1.993 .55 -1.993 0 C -1.993 -.55 -1.547 -.996 -.996 -.996 C -.446 -.996 0 -.55 0 0 Z "
       id="path69" />
    <path
       transform="matrix(1,0,0,-1,95.489398,53.27899)"
       d="M 0 0 C 0 .55 -.446 .996 -.996 .996 C -1.547 .996 -1.993 .55 -1.993 0 C -1.993 -.55 -1.547 -.996 -.996 -.996 C -.446 -.996 0 -.55 0 0 Z "
       id="path71" />
    <path
       transform="matrix(1,0,0,-1,95.489398,53.27899)"
       stroke-width=".797"
       stroke-linecap="butt"
       stroke-miterlimit="10"
       stroke-linejoin="miter"
       fill="none"
       stroke="#000000"
       d="M 0 0 C 0 .55 -.446 .996 -.996 .996 C -1.547 .996 -1.993 .55 -1.993 0 C -1.993 -.55 -1.547 -.996 -.996 -.996 C -.446 -.996 0 -.55 0 0 Z "
       id="path73" />
    <path
       transform="matrix(1,0,0,-1,109.4053,53.27899)"
       d="M 0 0 C 0 .55 -.446 .996 -.996 .996 C -1.547 .996 -1.993 .55 -1.993 0 C -1.993 -.55 -1.547 -.996 -.996 -.996 C -.446 -.996 0 -.55 0 0 Z "
       id="path75" />
    <path
       transform="matrix(1,0,0,-1,109.4053,53.27899)"
       stroke-width=".797"
       stroke-linecap="butt"
       stroke-miterlimit="10"
       stroke-linejoin="miter"
       fill="none"
       stroke="#000000"
       d="M 0 0 C 0 .55 -.446 .996 -.996 .996 C -1.547 .996 -1.993 .55 -1.993 0 C -1.993 -.55 -1.547 -.996 -.996 -.996 C -.446 -.996 0 -.55 0 0 Z "
       id="path77" />
    <path
       transform="matrix(1,0,0,-1,123.3212,53.27899)"
       d="M 0 0 C 0 .55 -.446 .996 -.996 .996 C -1.547 .996 -1.993 .55 -1.993 0 C -1.993 -.55 -1.547 -.996 -.996 -.996 C -.446 -.996 0 -.55 0 0 Z "
       id="path79" />
    <path
       transform="matrix(1,0,0,-1,123.3212,53.27899)"
       stroke-width=".797"
       stroke-linecap="butt"
       stroke-miterlimit="10"
       stroke-linejoin="miter"
       fill="none"
       stroke="#000000"
       d="M 0 0 C 0 .55 -.446 .996 -.996 .996 C -1.547 .996 -1.993 .55 -1.993 0 C -1.993 -.55 -1.547 -.996 -.996 -.996 C -.446 -.996 0 -.55 0 0 Z "
       id="path81" />
    <path
       transform="matrix(1,0,0,-1,137.23709,53.27899)"
       d="M 0 0 C 0 .55 -.446 .996 -.996 .996 C -1.547 .996 -1.993 .55 -1.993 0 C -1.993 -.55 -1.547 -.996 -.996 -.996 C -.446 -.996 0 -.55 0 0 Z "
       id="path83" />
    <path
       transform="matrix(1,0,0,-1,137.23709,53.27899)"
       stroke-width=".797"
       stroke-linecap="butt"
       stroke-miterlimit="10"
       stroke-linejoin="miter"
       fill="none"
       stroke="#000000"
       d="M 0 0 C 0 .55 -.446 .996 -.996 .996 C -1.547 .996 -1.993 .55 -1.993 0 C -1.993 -.55 -1.547 -.996 -.996 -.996 C -.446 -.996 0 -.55 0 0 Z "
       id="path85" />
    <text
       xml:space="preserve"
       transform="matrix(1 0 -0 1 -65.7442 671.138)"
       font-size="8.966"
       font-family="CMMI9"
       font-style="italic"
       id="text89"><tspan
         y="-621.379"
         x="192.905"
         id="tspan87">n</tspan></text>
    <path
       transform="matrix(1,0,0,-1,169.1768,40.04901)"
       stroke-width=".709"
       stroke-linecap="round"
       stroke-linejoin="round"
       fill="none"
       stroke="#000000"
       d="M 37.205 -25.512 L 88.229007 -25.512 L 88.229007 25.512 L 37.205 25.512 Z "
       id="path91" />
    <text
       xml:space="preserve"
       font-size="8.966px"
       font-family="CMR9"
       id="text97"
       x="-56.584095"
       y="37.306931"><tspan
         sodipodi:role="line"
         id="tspan218"
         x="232.49724"
         y="37.306931"
         style="text-align:center;text-anchor:middle"><tspan
           id="tspan95"
           x="232.49724"
           style="text-align:center;text-anchor:middle">LTI </tspan></tspan><tspan
         sodipodi:role="line"
         id="tspan220"
         x="232.49724"
         y="48.514431"><tspan
           x="232.49724"
           id="tspan222"><tspan
   style="text-align:center;text-anchor:middle"
   id="tspan224">Syste</tspan>m</tspan></tspan></text>
    <path
       transform="matrix(1,0,0,-1,169.1768,40.04901)"
       stroke-width="1.196"
       stroke-linecap="butt"
       stroke-miterlimit="10"
       stroke-linejoin="miter"
       fill="none"
       stroke="#000000"
       d="M 0 0 L 33.464 0 "
       id="path99" />
    <path
       transform="matrix(1,0,0,-1,199.25315,37.93201)"
       d="M 0 0 L 6.775 -2.117 L 0 -4.234 Z "
       id="path101" />
    <path
       transform="matrix(1,0,0,-1,257.7607,40.04901)"
       stroke-width="1.196"
       stroke-linecap="butt"
       stroke-miterlimit="10"
       stroke-linejoin="miter"
       fill="none"
       stroke="#000000"
       d="M 0 0 L 33.464 0 "
       id="path103" />
    <path
       transform="matrix(1,0,0,-1,287.8371,37.93201)"
       d="M 0 0 L 6.775 -2.117 L 0 -4.234 Z "
       id="path105" />
    <path
       transform="matrix(1,0,0,-1,341.46369,55.40499)"
       stroke-width=".199"
       stroke-linecap="butt"
       stroke-miterlimit="10"
       stroke-linejoin="miter"
       fill="none"
       stroke="#929292"
       d="M 0 0 L 0 4.252 "
       id="path107" />
    <path
       transform="matrix(1,0,0,-1,327.5478,53.27899)"
       stroke-width=".398"
       stroke-linecap="butt"
       stroke-miterlimit="10"
       stroke-linejoin="miter"
       fill="none"
       stroke="#000000"
       d="M 0 0 L 123.25 0 "
       id="path109" />
    <path
       transform="matrix(1,0,0,-1,452.79078,53.27899)"
       d="M 0 0 L -3.188 1.594 L -1.993 0 L -3.188 -1.594 "
       id="path111" />
    <path
       transform="matrix(1,0,0,-1,327.5478,53.27899)"
       stroke-width=".398"
       stroke-linecap="butt"
       stroke-miterlimit="10"
       stroke-linejoin="miter"
       fill="none"
       stroke="#000000"
       d="M 0 0 L 0 38.215 "
       id="path113" />
    <path
       transform="matrix(0,-1,-1,-0,327.5478,13.071342)"
       d="M 0 0 L -3.188 1.594 L -1.993 0 L -3.188 -1.594 "
       id="path115" />
    <text
       xml:space="preserve"
       transform="matrix(1 0 -0 1 -65.7442 671.138)"
       font-size="8.966"
       font-family="CMR9"
       id="text119"><tspan
         y="-606.435"
         x="404.904"
         id="tspan117">0</tspan></text>
    <clipPath
       id="cp1">
      <path
         transform="matrix(1,0,0,-1,327.5478,53.27899)"
         d="M 0 0 L 125.243 0 L 125.243 40.208 L 0 40.208 Z "
         id="path121" />
    </clipPath>
    <g
       clip-path="url(#cp1)"
       id="g142">
      <path
         transform="matrix(1,0,0,-1,327.5478,53.27899)"
         stroke-width=".797"
         stroke-linecap="butt"
         stroke-miterlimit="10"
         stroke-linejoin="miter"
         fill="none"
         stroke="#000000"
         d="M 0 0 L 0 0 M 13.916 0 L 13.916 24.125 M 27.832 0 L 27.832 32.166 M 41.748 0 L 41.748 40.208 M 55.664 0 L 55.664 12.062 M 69.579 0 L 69.579 0 M 83.495 0 L 83.495 0 M 97.411 0 L 97.411 0 M 111.327 0 L 111.327 0 M 125.243 0 L 125.243 0 "
         id="path124" />
      <text
         xml:space="preserve"
         transform="matrix(1 0 -0 1 -65.7442 671.138)"
         font-size="8.966"
         font-family="CMMI9"
         font-style="italic"
         id="text128"><tspan
           y="-651.804"
           x="489.666"
           id="tspan126">h</tspan></text>
      <text
         xml:space="preserve"
         transform="matrix(1 0 -0 1 -65.7442 671.138)"
         font-size="8.966"
         font-family="CMR9"
         id="text132"><tspan
           y="-651.804"
           x="494.97386"
           id="tspan130">[</tspan></text>
      <text
         xml:space="preserve"
         transform="matrix(1 0 -0 1 -65.7442 671.138)"
         font-size="8.966"
         font-family="CMMI9"
         font-style="italic"
         id="text136"><tspan
           y="-651.804"
           x="497.53498"
           id="tspan134">n</tspan></text>
      <text
         xml:space="preserve"
         transform="matrix(1 0 -0 1 -65.7442 671.138)"
         font-size="8.966"
         font-family="CMR9"
         id="text140"><tspan
           y="-651.804"
           x="503.0939"
           id="tspan138">]</tspan></text>
    </g>
    <path
       transform="matrix(1,0,0,-1,328.5441,53.27899)"
       d="M 0 0 C 0 .55 -.446 .996 -.996 .996 C -1.547 .996 -1.993 .55 -1.993 0 C -1.993 -.55 -1.547 -.996 -.996 -.996 C -.446 -.996 0 -.55 0 0 Z "
       id="path144" />
    <path
       transform="matrix(1,0,0,-1,328.5441,53.27899)"
       stroke-width=".797"
       stroke-linecap="butt"
       stroke-miterlimit="10"
       stroke-linejoin="miter"
       fill="none"
       stroke="#000000"
       d="M 0 0 C 0 .55 -.446 .996 -.996 .996 C -1.547 .996 -1.993 .55 -1.993 0 C -1.993 -.55 -1.547 -.996 -.996 -.996 C -.446 -.996 0 -.55 0 0 Z "
       id="path146" />
    <path
       transform="matrix(1,0,0,-1,342.46,29.154393)"
       d="M 0 0 C 0 .55 -.446 .996 -.996 .996 C -1.547 .996 -1.993 .55 -1.993 0 C -1.993 -.55 -1.547 -.996 -.996 -.996 C -.446 -.996 0 -.55 0 0 Z "
       id="path148" />
    <path
       transform="matrix(1,0,0,-1,342.46,29.154393)"
       stroke-width=".797"
       stroke-linecap="butt"
       stroke-miterlimit="10"
       stroke-linejoin="miter"
       fill="none"
       stroke="#000000"
       d="M 0 0 C 0 .55 -.446 .996 -.996 .996 C -1.547 .996 -1.993 .55 -1.993 0 C -1.993 -.55 -1.547 -.996 -.996 -.996 C -.446 -.996 0 -.55 0 0 Z "
       id="path150" />
    <path
       transform="matrix(1,0,0,-1,356.3759,21.112793)"
       d="M 0 0 C 0 .55 -.446 .996 -.996 .996 C -1.547 .996 -1.993 .55 -1.993 0 C -1.993 -.55 -1.547 -.996 -.996 -.996 C -.446 -.996 0 -.55 0 0 Z "
       id="path152" />
    <path
       transform="matrix(1,0,0,-1,356.3759,21.112793)"
       stroke-width=".797"
       stroke-linecap="butt"
       stroke-miterlimit="10"
       stroke-linejoin="miter"
       fill="none"
       stroke="#000000"
       d="M 0 0 C 0 .55 -.446 .996 -.996 .996 C -1.547 .996 -1.993 .55 -1.993 0 C -1.993 -.55 -1.547 -.996 -.996 -.996 C -.446 -.996 0 -.55 0 0 Z "
       id="path154" />
    <path
       transform="matrix(1,0,0,-1,370.2917,13.071293)"
       d="M 0 0 C 0 .55 -.446 .996 -.996 .996 C -1.547 .996 -1.993 .55 -1.993 0 C -1.993 -.55 -1.547 -.996 -.996 -.996 C -.446 -.996 0 -.55 0 0 Z "
       id="path156" />
    <path
       transform="matrix(1,0,0,-1,370.2917,13.071293)"
       stroke-width=".797"
       stroke-linecap="butt"
       stroke-miterlimit="10"
       stroke-linejoin="miter"
       fill="none"
       stroke="#000000"
       d="M 0 0 C 0 .55 -.446 .996 -.996 .996 C -1.547 .996 -1.993 .55 -1.993 0 C -1.993 -.55 -1.547 -.996 -.996 -.996 C -.446 -.996 0 -.55 0 0 Z "
       id="path158" />
    <path
       transform="matrix(1,0,0,-1,384.20759,41.21669)"
       d="M 0 0 C 0 .55 -.446 .996 -.996 .996 C -1.547 .996 -1.993 .55 -1.993 0 C -1.993 -.55 -1.547 -.996 -.996 -.996 C -.446 -.996 0 -.55 0 0 Z "
       id="path160" />
    <path
       transform="matrix(1,0,0,-1,384.20759,41.21669)"
       stroke-width=".797"
       stroke-linecap="butt"
       stroke-miterlimit="10"
       stroke-linejoin="miter"
       fill="none"
       stroke="#000000"
       d="M 0 0 C 0 .55 -.446 .996 -.996 .996 C -1.547 .996 -1.993 .55 -1.993 0 C -1.993 -.55 -1.547 -.996 -.996 -.996 C -.446 -.996 0 -.55 0 0 Z "
       id="path162" />
    <path
       transform="matrix(1,0,0,-1,398.12348,53.27899)"
       d="M 0 0 C 0 .55 -.446 .996 -.996 .996 C -1.547 .996 -1.993 .55 -1.993 0 C -1.993 -.55 -1.547 -.996 -.996 -.996 C -.446 -.996 0 -.55 0 0 Z "
       id="path164" />
    <path
       transform="matrix(1,0,0,-1,398.12348,53.27899)"
       stroke-width=".797"
       stroke-linecap="butt"
       stroke-miterlimit="10"
       stroke-linejoin="miter"
       fill="none"
       stroke="#000000"
       d="M 0 0 C 0 .55 -.446 .996 -.996 .996 C -1.547 .996 -1.993 .55 -1.993 0 C -1.993 -.55 -1.547 -.996 -.996 -.996 C -.446 -.996 0 -.55 0 0 Z "
       id="path166" />
    <path
       transform="matrix(1,0,0,-1,412.0394,53.27899)"
       d="M 0 0 C 0 .55 -.446 .996 -.996 .996 C -1.547 .996 -1.993 .55 -1.993 0 C -1.993 -.55 -1.547 -.996 -.996 -.996 C -.446 -.996 0 -.55 0 0 Z "
       id="path168" />
    <path
       transform="matrix(1,0,0,-1,412.0394,53.27899)"
       stroke-width=".797"
       stroke-linecap="butt"
       stroke-miterlimit="10"
       stroke-linejoin="miter"
       fill="none"
       stroke="#000000"
       d="M 0 0 C 0 .55 -.446 .996 -.996 .996 C -1.547 .996 -1.993 .55 -1.993 0 C -1.993 -.55 -1.547 -.996 -.996 -.996 C -.446 -.996 0 -.55 0 0 Z "
       id="path170" />
    <path
       transform="matrix(1,0,0,-1,425.9553,53.27899)"
       d="M 0 0 C 0 .55 -.446 .996 -.996 .996 C -1.547 .996 -1.993 .55 -1.993 0 C -1.993 -.55 -1.547 -.996 -.996 -.996 C -.446 -.996 0 -.55 0 0 Z "
       id="path172" />
    <path
       transform="matrix(1,0,0,-1,425.9553,53.27899)"
       stroke-width=".797"
       stroke-linecap="butt"
       stroke-miterlimit="10"
       stroke-linejoin="miter"
       fill="none"
       stroke="#000000"
       d="M 0 0 C 0 .55 -.446 .996 -.996 .996 C -1.547 .996 -1.993 .55 -1.993 0 C -1.993 -.55 -1.547 -.996 -.996 -.996 C -.446 -.996 0 -.55 0 0 Z "
       id="path174" />
    <path
       transform="matrix(1,0,0,-1,439.8712,53.27899)"
       d="M 0 0 C 0 .55 -.446 .996 -.996 .996 C -1.547 .996 -1.993 .55 -1.993 0 C -1.993 -.55 -1.547 -.996 -.996 -.996 C -.446 -.996 0 -.55 0 0 Z "
       id="path176" />
    <path
       transform="matrix(1,0,0,-1,439.8712,53.27899)"
       stroke-width=".797"
       stroke-linecap="butt"
       stroke-miterlimit="10"
       stroke-linejoin="miter"
       fill="none"
       stroke="#000000"
       d="M 0 0 C 0 .55 -.446 .996 -.996 .996 C -1.547 .996 -1.993 .55 -1.993 0 C -1.993 -.55 -1.547 -.996 -.996 -.996 C -.446 -.996 0 -.55 0 0 Z "
       id="path178" />
    <path
       transform="matrix(1,0,0,-1,453.7871,53.27899)"
       d="M 0 0 C 0 .55 -.446 .996 -.996 .996 C -1.547 .996 -1.993 .55 -1.993 0 C -1.993 -.55 -1.547 -.996 -.996 -.996 C -.446 -.996 0 -.55 0 0 Z "
       id="path180" />
    <path
       transform="matrix(1,0,0,-1,453.7871,53.27899)"
       stroke-width=".797"
       stroke-linecap="butt"
       stroke-miterlimit="10"
       stroke-linejoin="miter"
       fill="none"
       stroke="#000000"
       d="M 0 0 C 0 .55 -.446 .996 -.996 .996 C -1.547 .996 -1.993 .55 -1.993 0 C -1.993 -.55 -1.547 -.996 -.996 -.996 C -.446 -.996 0 -.55 0 0 Z "
       id="path182" />
    <text
       xml:space="preserve"
       transform="matrix(1 0 -0 1 -65.7442 671.138)"
       font-size="8.966"
       font-family="CMMI9"
       font-style="italic"
       id="text186"><tspan
         y="-621.379"
         x="509.455"
         id="tspan184">n</tspan></text>
  </g>
</svg>
