<svg xmlns="http://www.w3.org/2000/svg" xmlns:xlink="http://www.w3.org/1999/xlink" version="1.1" width="398.04447pt" height="109.54828pt" viewBox="0 0 398.04447 109.54828">
<defs>
<clipPath id="clip_0">
<path transform="matrix(1,0,0,-1,12.277,80.52789)" d="M0 0H167.76599V68.55635H0Z"/>
</clipPath>
<clipPath id="clip_1">
<path transform="matrix(1,0,0,-1,216.164,77.855899)" d="M0 0H167.76599V68.55635H0Z"/>
</clipPath>
</defs>
<path transform="matrix(1,0,0,-1,12.277,80.52789)" stroke-width=".19925" stroke-linecap="butt" stroke-miterlimit="10" stroke-linejoin="miter" fill="none" stroke="#929292" d=""/>
<path transform="matrix(1,0,0,-1,12.277,80.52789)" stroke-width=".19925" stroke-linecap="butt" stroke-miterlimit="10" stroke-linejoin="miter" fill="none" stroke="#929292" d=""/>
<path transform="matrix(1,0,0,-1,12.277,80.52789)" stroke-width=".3985" stroke-linecap="butt" stroke-miterlimit="10" stroke-linejoin="miter" fill="none" stroke="#000000" d="M0 26.36783H165.77347"/>
<path transform="matrix(1,0,0,-1,178.05048,54.160066)" d="M1.99252 0-1.19551 1.59401 0 0-1.19551-1.59401"/>
<path transform="matrix(1,0,0,-1,12.277,80.52789)" stroke-width=".3985" stroke-linecap="butt" stroke-miterlimit="10" stroke-linejoin="miter" fill="none" stroke="#000000" d="M0 0V66.56383"/>
<path transform="matrix(0,-1,-1,-0,12.277,13.964066)" d="M1.99252 0-1.19551 1.59401 0 0-1.19551-1.59401"/>
<g clip-path="url(#clip_0)">
<path transform="matrix(1,0,0,-1,12.277,80.52789)" stroke-width=".3985" stroke-linecap="butt" stroke-dasharray=".3985,1.99255" stroke-miterlimit="10" stroke-linejoin="miter" fill="none" stroke="#000000" d="M0 26.36783 1.69455 28.4427 3.38913 30.50493 5.08371 32.54132 6.77829 34.54053 8.47285 36.48752 10.16743 38.37283 11.86201 40.18297 13.5566 41.90797 15.25116 43.5359 16.94574 45.05812 18.64032 46.46327 20.3349 47.74448 22.02948 48.89279 23.72404 49.9019 25.41862 50.76466 27.1132 51.47632 28.80777 52.03162 30.50235 52.42793 32.19693 52.66287 33.89151 52.73433 35.58609 52.64178 37.28065 52.3868 38.97523 51.97124 40.66982 51.39537 42.3644 50.66524 44.05896 49.78323 45.75354 48.75674 47.44812 47.5913 49.1427 46.29399 50.83728 44.87303 52.53185 43.33815 54.22643 41.69623 55.921 39.96097 57.61559 38.14026 59.31015 36.24678 61.00473 34.2924 62.69931 32.28873 64.39389 30.24811 66.08846 28.18324 67.78304 26.10782 69.47762 24.03372 71.1722 21.97388 72.86678 19.9412 74.56134 17.94858 76.25592 16.0079 77.95049 14.13182 79.64507 12.3317 81.33963 10.61858 83.03421 9.00276 84.72879 7.4953 86.42337 6.10466 88.11795 4.8398 89.81252 3.70888 91.5071 2.71773 93.20168 1.87369 94.89624 1.18126 96.59082 .64572 98.2854 .26921 99.97998 .05536 101.67456 .00368 103.36913 .11679 105.0637 .39102 106.75829 .82846 108.45287 1.42307 110.14743 2.17348 111.84201 3.07263 113.53659 4.11758 115.23117 5.29913 116.92575 6.6133 118.62032 8.0485 120.3149 9.59814 122.00948 11.25061 123.70406 12.99854 125.39862 14.8282 127.0932 16.73038 128.78778 18.69162 130.48236 20.70085 132.17693 22.74515 133.8715 24.81212 135.56609 26.88751 137.26067 28.96057 138.95525 31.01805 140.64981 33.04626 142.34439 35.03334 144.03897 36.96584 145.73354 38.83348 147.42812 40.62358 149.1227 42.3251 150.81728 43.92747 152.51186 45.4212 154.20642 46.7963 155.90099 48.04507 157.59557 49.15912 159.29015 50.13184 160.98473 50.9574 162.67929 51.62952 164.37387 52.14632 166.06845 52.50177 167.76303 52.6961"/>
<path transform="matrix(1,0,0,-1,12.277,80.52789)" stroke-width=".79701" stroke-linecap="butt" stroke-miterlimit="10" stroke-linejoin="miter" fill="none" stroke="#000000" d="M0 26.36783V26.36783M13.9805 26.36783V42.32458M27.961 26.36783V51.77374M41.9415 26.36783V50.86116M55.922 26.36783V39.96017M69.9025 26.36783V23.51561M83.883 26.36783V8.23387M97.8635 26.36783V.34804M111.844 26.36783V3.07343M125.8245 26.36783V15.29991M139.805 26.36783V32.03954M153.78549 26.36783V46.4659M167.76599 26.36783V52.69662"/>
<text xml:space="preserve" transform="matrix(1 0 -0 1 -122.488 676.2989)" font-size="9.9626" font-family="CMMI10" font-style="italic"><tspan y="-680.884" x="86.528">y</tspan></text>
<text xml:space="preserve" transform="matrix(1 0 -0 1 -122.488 676.2989)" font-size="9.9626" font-family="CMR10"><tspan y="-680.884" x="91.769">[</tspan></text>
<text xml:space="preserve" transform="matrix(1 0 -0 1 -122.488 676.2989)" font-size="9.9626" font-family="CMMI10" font-style="italic"><tspan y="-680.884" x="94.536998">n</tspan></text>
<text xml:space="preserve" transform="matrix(1 0 -0 1 -122.488 676.2989)" font-size="9.9626" font-family="CMR10"><tspan y="-680.884" x="100.517">]</tspan></text>
</g>
<path transform="matrix(1,0,0,-1,12.277,80.52789)" d="M.99628 26.36783C.99628 26.91806 .55023 27.3641 0 27.3641-.55023 27.3641-.99628 26.91806-.99628 26.36783-.99628 25.81758-.55023 25.37155 0 25.37155 .55023 25.37155 .99628 25.81758 .99628 26.36783ZM0 26.36783"/>
<path transform="matrix(1,0,0,-1,12.277,80.52789)" stroke-width=".79701" stroke-linecap="butt" stroke-miterlimit="10" stroke-linejoin="miter" fill="none" stroke="#000000" d="M.99628 26.36783C.99628 26.91806 .55023 27.3641 0 27.3641-.55023 27.3641-.99628 26.91806-.99628 26.36783-.99628 25.81758-.55023 25.37155 0 25.37155 .55023 25.37155 .99628 25.81758 .99628 26.36783ZM0 26.36783"/>
<path transform="matrix(1,0,0,-1,12.277,80.52789)" d="M14.97678 42.32458C14.97678 42.87482 14.53073 43.32086 13.9805 43.32086 13.43025 43.32086 12.98422 42.87482 12.98422 42.32458 12.98422 41.77434 13.43025 41.32831 13.9805 41.32831 14.53073 41.32831 14.97678 41.77434 14.97678 42.32458ZM13.9805 42.32458"/>
<path transform="matrix(1,0,0,-1,12.277,80.52789)" stroke-width=".79701" stroke-linecap="butt" stroke-miterlimit="10" stroke-linejoin="miter" fill="none" stroke="#000000" d="M14.97678 42.32458C14.97678 42.87482 14.53073 43.32086 13.9805 43.32086 13.43025 43.32086 12.98422 42.87482 12.98422 42.32458 12.98422 41.77434 13.43025 41.32831 13.9805 41.32831 14.53073 41.32831 14.97678 41.77434 14.97678 42.32458ZM13.9805 42.32458"/>
<path transform="matrix(1,0,0,-1,12.277,80.52789)" d="M28.95728 51.77374C28.95728 52.32399 28.51123 52.77002 27.961 52.77002 27.41075 52.77002 26.96472 52.32399 26.96472 51.77374 26.96472 51.22351 27.41075 50.77747 27.961 50.77747 28.51123 50.77747 28.95728 51.22351 28.95728 51.77374ZM27.961 51.77374"/>
<path transform="matrix(1,0,0,-1,12.277,80.52789)" stroke-width=".79701" stroke-linecap="butt" stroke-miterlimit="10" stroke-linejoin="miter" fill="none" stroke="#000000" d="M28.95728 51.77374C28.95728 52.32399 28.51123 52.77002 27.961 52.77002 27.41075 52.77002 26.96472 52.32399 26.96472 51.77374 26.96472 51.22351 27.41075 50.77747 27.961 50.77747 28.51123 50.77747 28.95728 51.22351 28.95728 51.77374ZM27.961 51.77374"/>
<path transform="matrix(1,0,0,-1,12.277,80.52789)" d="M42.93777 50.86116C42.93777 51.41139 42.49173 51.85744 41.9415 51.85744 41.39125 51.85744 40.94522 51.41139 40.94522 50.86116 40.94522 50.31093 41.39125 49.86488 41.9415 49.86488 42.49173 49.86488 42.93777 50.31093 42.93777 50.86116ZM41.9415 50.86116"/>
<path transform="matrix(1,0,0,-1,12.277,80.52789)" stroke-width=".79701" stroke-linecap="butt" stroke-miterlimit="10" stroke-linejoin="miter" fill="none" stroke="#000000" d="M42.93777 50.86116C42.93777 51.41139 42.49173 51.85744 41.9415 51.85744 41.39125 51.85744 40.94522 51.41139 40.94522 50.86116 40.94522 50.31093 41.39125 49.86488 41.9415 49.86488 42.49173 49.86488 42.93777 50.31093 42.93777 50.86116ZM41.9415 50.86116"/>
<path transform="matrix(1,0,0,-1,12.277,80.52789)" d="M56.91827 39.96017C56.91827 40.5104 56.47223 40.95645 55.922 40.95645 55.37175 40.95645 54.92572 40.5104 54.92572 39.96017 54.92572 39.40994 55.37175 38.9639 55.922 38.9639 56.47223 38.9639 56.91827 39.40994 56.91827 39.96017ZM55.922 39.96017"/>
<path transform="matrix(1,0,0,-1,12.277,80.52789)" stroke-width=".79701" stroke-linecap="butt" stroke-miterlimit="10" stroke-linejoin="miter" fill="none" stroke="#000000" d="M56.91827 39.96017C56.91827 40.5104 56.47223 40.95645 55.922 40.95645 55.37175 40.95645 54.92572 40.5104 54.92572 39.96017 54.92572 39.40994 55.37175 38.9639 55.922 38.9639 56.47223 38.9639 56.91827 39.40994 56.91827 39.96017ZM55.922 39.96017"/>
<path transform="matrix(1,0,0,-1,12.277,80.52789)" d="M70.89877 23.51561C70.89877 24.06584 70.45273 24.51189 69.9025 24.51189 69.35225 24.51189 68.90622 24.06584 68.90622 23.51561 68.90622 22.96538 69.35225 22.51933 69.9025 22.51933 70.45273 22.51933 70.89877 22.96538 70.89877 23.51561ZM69.9025 23.51561"/>
<path transform="matrix(1,0,0,-1,12.277,80.52789)" stroke-width=".79701" stroke-linecap="butt" stroke-miterlimit="10" stroke-linejoin="miter" fill="none" stroke="#000000" d="M70.89877 23.51561C70.89877 24.06584 70.45273 24.51189 69.9025 24.51189 69.35225 24.51189 68.90622 24.06584 68.90622 23.51561 68.90622 22.96538 69.35225 22.51933 69.9025 22.51933 70.45273 22.51933 70.89877 22.96538 70.89877 23.51561ZM69.9025 23.51561"/>
<path transform="matrix(1,0,0,-1,12.277,80.52789)" d="M84.87927 8.23387C84.87927 8.7841 84.43323 9.23015 83.883 9.23015 83.33275 9.23015 82.88672 8.7841 82.88672 8.23387 82.88672 7.68364 83.33275 7.2376 83.883 7.2376 84.43323 7.2376 84.87927 7.68364 84.87927 8.23387ZM83.883 8.23387"/>
<path transform="matrix(1,0,0,-1,12.277,80.52789)" stroke-width=".79701" stroke-linecap="butt" stroke-miterlimit="10" stroke-linejoin="miter" fill="none" stroke="#000000" d="M84.87927 8.23387C84.87927 8.7841 84.43323 9.23015 83.883 9.23015 83.33275 9.23015 82.88672 8.7841 82.88672 8.23387 82.88672 7.68364 83.33275 7.2376 83.883 7.2376 84.43323 7.2376 84.87927 7.68364 84.87927 8.23387ZM83.883 8.23387"/>
<path transform="matrix(1,0,0,-1,12.277,80.52789)" d="M98.85977 .34804C98.85977 .89827 98.41373 1.34431 97.8635 1.34431 97.31325 1.34431 96.86722 .89827 96.86722 .34804 96.86722-.20218 97.31325-.64822 97.8635-.64822 98.41373-.64822 98.85977-.20218 98.85977 .34804ZM97.8635 .34804"/>
<path transform="matrix(1,0,0,-1,12.277,80.52789)" stroke-width=".79701" stroke-linecap="butt" stroke-miterlimit="10" stroke-linejoin="miter" fill="none" stroke="#000000" d="M98.85977 .34804C98.85977 .89827 98.41373 1.34431 97.8635 1.34431 97.31325 1.34431 96.86722 .89827 96.86722 .34804 96.86722-.20218 97.31325-.64822 97.8635-.64822 98.41373-.64822 98.85977-.20218 98.85977 .34804ZM97.8635 .34804"/>
<path transform="matrix(1,0,0,-1,12.277,80.52789)" d="M112.84027 3.07343C112.84027 3.62366 112.39423 4.0697 111.844 4.0697 111.29375 4.0697 110.84772 3.62366 110.84772 3.07343 110.84772 2.5232 111.29375 2.07715 111.844 2.07715 112.39423 2.07715 112.84027 2.5232 112.84027 3.07343ZM111.844 3.07343"/>
<path transform="matrix(1,0,0,-1,12.277,80.52789)" stroke-width=".79701" stroke-linecap="butt" stroke-miterlimit="10" stroke-linejoin="miter" fill="none" stroke="#000000" d="M112.84027 3.07343C112.84027 3.62366 112.39423 4.0697 111.844 4.0697 111.29375 4.0697 110.84772 3.62366 110.84772 3.07343 110.84772 2.5232 111.29375 2.07715 111.844 2.07715 112.39423 2.07715 112.84027 2.5232 112.84027 3.07343ZM111.844 3.07343"/>
<path transform="matrix(1,0,0,-1,12.277,80.52789)" d="M126.82077 15.29991C126.82077 15.85016 126.37473 16.29619 125.8245 16.29619 125.27425 16.29619 124.82822 15.85016 124.82822 15.29991 124.82822 14.74968 125.27425 14.30363 125.8245 14.30363 126.37473 14.30363 126.82077 14.74968 126.82077 15.29991ZM125.8245 15.29991"/>
<path transform="matrix(1,0,0,-1,12.277,80.52789)" stroke-width=".79701" stroke-linecap="butt" stroke-miterlimit="10" stroke-linejoin="miter" fill="none" stroke="#000000" d="M126.82077 15.29991C126.82077 15.85016 126.37473 16.29619 125.8245 16.29619 125.27425 16.29619 124.82822 15.85016 124.82822 15.29991 124.82822 14.74968 125.27425 14.30363 125.8245 14.30363 126.37473 14.30363 126.82077 14.74968 126.82077 15.29991ZM125.8245 15.29991"/>
<path transform="matrix(1,0,0,-1,12.277,80.52789)" d="M140.80127 32.03954C140.80127 32.58977 140.35523 33.03581 139.805 33.03581 139.25475 33.03581 138.80872 32.58977 138.80872 32.03954 138.80872 31.48929 139.25475 31.04326 139.805 31.04326 140.35523 31.04326 140.80127 31.48929 140.80127 32.03954ZM139.805 32.03954"/>
<path transform="matrix(1,0,0,-1,12.277,80.52789)" stroke-width=".79701" stroke-linecap="butt" stroke-miterlimit="10" stroke-linejoin="miter" fill="none" stroke="#000000" d="M140.80127 32.03954C140.80127 32.58977 140.35523 33.03581 139.805 33.03581 139.25475 33.03581 138.80872 32.58977 138.80872 32.03954 138.80872 31.48929 139.25475 31.04326 139.805 31.04326 140.35523 31.04326 140.80127 31.48929 140.80127 32.03954ZM139.805 32.03954"/>
<path transform="matrix(1,0,0,-1,12.277,80.52789)" d="M154.78177 46.4659C154.78177 47.01614 154.33573 47.46217 153.78549 47.46217 153.23525 47.46217 152.78922 47.01614 152.78922 46.4659 152.78922 45.91566 153.23525 45.46962 153.78549 45.46962 154.33573 45.46962 154.78177 45.91566 154.78177 46.4659ZM153.78549 46.4659"/>
<path transform="matrix(1,0,0,-1,12.277,80.52789)" stroke-width=".79701" stroke-linecap="butt" stroke-miterlimit="10" stroke-linejoin="miter" fill="none" stroke="#000000" d="M154.78177 46.4659C154.78177 47.01614 154.33573 47.46217 153.78549 47.46217 153.23525 47.46217 152.78922 47.01614 152.78922 46.4659 152.78922 45.91566 153.23525 45.46962 153.78549 45.46962 154.33573 45.46962 154.78177 45.91566 154.78177 46.4659ZM153.78549 46.4659"/>
<path transform="matrix(1,0,0,-1,12.277,80.52789)" d="M168.76227 52.69662C168.76227 53.24687 168.31623 53.6929 167.76599 53.6929 167.21575 53.6929 166.76972 53.24687 166.76972 52.69662 166.76972 52.1464 167.21575 51.70035 167.76599 51.70035 168.31623 51.70035 168.76227 52.1464 168.76227 52.69662ZM167.76599 52.69662"/>
<path transform="matrix(1,0,0,-1,12.277,80.52789)" stroke-width=".79701" stroke-linecap="butt" stroke-miterlimit="10" stroke-linejoin="miter" fill="none" stroke="#000000" d="M168.76227 52.69662C168.76227 53.24687 168.31623 53.6929 167.76599 53.6929 167.21575 53.6929 166.76972 53.24687 166.76972 52.69662 166.76972 52.1464 167.21575 51.70035 167.76599 51.70035 168.31623 51.70035 168.76227 52.1464 168.76227 52.69662ZM167.76599 52.69662"/>
<path transform="matrix(1,0,0,-1,12.277,80.52789)" stroke-width=".79701" stroke-linecap="butt" stroke-miterlimit="10" stroke-linejoin="miter" fill="none" stroke="#000000" d=""/>
<text xml:space="preserve" transform="matrix(1 0 -0 1 -122.48801 676.2989)" font-size="9.9626" font-family="CMMI10" font-style="italic"><tspan y="-625.658" x="295.411">t</tspan></text>
<text xml:space="preserve" transform="matrix(1 0 -0 1 -122.488 676.2989)" font-size="9.9626" font-family="CMMI10" font-style="italic"><tspan y="-653.335" x="138.284">x</tspan></text>
<text xml:space="preserve" transform="matrix(1 0 -0 1 -122.488 676.2989)" font-size="6.9738" font-family="CMMI7" font-style="italic"><tspan y="-651.84" x="143.978">s</tspan></text>
<text xml:space="preserve" transform="matrix(1 0 -0 1 -122.488 676.2989)" font-size="9.9626" font-family="CMR10"><tspan y="-653.335" x="148.237">(</tspan></text>
<text xml:space="preserve" transform="matrix(1 0 -0 1 -122.488 676.2989)" font-size="9.9626" font-family="CMMI10" font-style="italic"><tspan y="-653.335" x="152.111">t</tspan></text>
<text xml:space="preserve" transform="matrix(1 0 -0 1 -122.488 676.2989)" font-size="9.9626" font-family="CMR10"><tspan y="-653.335" x="155.709">)</tspan></text>
<text xml:space="preserve" transform="matrix(1 0 -0 1 -122.488 676.2989)" font-size="8.9664" font-family="CMR9"><tspan y="-581.474" x="157.567 161.15357 165.7623">(a)</tspan></text>
<text xml:space="preserve" transform="matrix(1 0 -0 1 -122.488 676.2989)" font-size="8.9664" font-family="CMMI9" font-style="italic"><tspan y="-581.474" x="172.414">x</tspan></text>
<text xml:space="preserve" transform="matrix(1 0 -0 1 -122.488 676.2989)" font-size="5.9776" font-family="CMMI6" font-style="italic"><tspan y="-580.478" x="177.638">s</tspan></text>
<text xml:space="preserve" transform="matrix(1 0 -0 1 -122.488 676.2989)" font-size="8.9664" font-family="CMR9"><tspan y="-581.474" x="181.63">(</tspan></text>
<text xml:space="preserve" transform="matrix(1 0 -0 1 -122.488 676.2989)" font-size="8.9664" font-family="CMMI9" font-style="italic"><tspan y="-581.474" x="185.214">t</tspan></text>
<text xml:space="preserve" transform="matrix(1 0 -0 1 -122.488 676.2989)" font-size="8.9664" font-family="CMR9"><tspan y="-581.474" x="188.541 192.12757 198.7896 202.42099 207.02973 214.71393 219.83374 222.39813 226.49578 234.6821 238.31349 240.87789 245.48662 250.60643 255.21517">):sampledsignal</tspan></text>
<path transform="matrix(1,0,0,-1,216.164,77.855899)" stroke-width=".19925" stroke-linecap="butt" stroke-miterlimit="10" stroke-linejoin="miter" fill="none" stroke="#929292" d=""/>
<path transform="matrix(1,0,0,-1,216.164,77.855899)" stroke-width=".19925" stroke-linecap="butt" stroke-miterlimit="10" stroke-linejoin="miter" fill="none" stroke="#929292" d="M-2.12599 52.73566H2.12599M-2.12599 0H2.12599M-2.12599 32.95978H2.12599M-2.12599 39.55174H2.12599M-2.12599 46.14369H2.12599M-2.12599 52.73566H2.12599M-2.12599 19.77586H2.12599M-2.12599 13.18391H2.12599M-2.12599 6.59195H2.12599"/>
<path transform="matrix(1,0,0,-1,216.164,77.855899)" stroke-width=".3985" stroke-linecap="butt" stroke-miterlimit="10" stroke-linejoin="miter" fill="none" stroke="#000000" d="M0 26.36783H165.77347"/>
<path transform="matrix(1,0,0,-1,381.93748,51.488069)" d="M1.99252 0-1.19551 1.59401 0 0-1.19551-1.59401"/>
<path transform="matrix(1,0,0,-1,216.164,77.855899)" stroke-width=".3985" stroke-linecap="butt" stroke-miterlimit="10" stroke-linejoin="miter" fill="none" stroke="#000000" d="M0 0V66.56383"/>
<path transform="matrix(0,-1,-1,-0,216.164,11.2920689)" d="M1.99252 0-1.19551 1.59401 0 0-1.19551-1.59401"/>
<g clip-path="url(#clip_1)">
<path transform="matrix(1,0,0,-1,216.164,77.855899)" stroke-width=".79701" stroke-linecap="butt" stroke-miterlimit="10" stroke-linejoin="miter" fill="none" stroke="#000000" d="M0 26.36783H2.68423V32.95978H8.27644V39.55174H14.51173V46.14369H22.92801V52.73566H44.6537V46.14369H53.042V39.55174H59.30527V32.95978H64.8695V26.36783H70.26598V19.77586H75.83022V13.18391H82.09348V6.59195H90.48177V0H112.23544V6.59195H120.62373V13.18391H126.887V19.77586H132.45125V26.36783H137.84772V32.95978H143.41194V39.55174H149.6752V46.14369H158.0635V52.73566H167.20677"/>
<path transform="matrix(1,0,0,-1,216.164,77.855899)" stroke-width=".3985" stroke-linecap="butt" stroke-dasharray=".3985,1.99255" stroke-miterlimit="10" stroke-linejoin="miter" fill="none" stroke="#000000" d="M0 26.36783 1.69455 28.4427 3.38913 30.50493 5.08371 32.54132 6.77829 34.54053 8.47285 36.48752 10.16743 38.37283 11.86201 40.18297 13.5566 41.90797 15.25116 43.5359 16.94574 45.05812 18.64032 46.46327 20.3349 47.74448 22.02948 48.89279 23.72404 49.9019 25.41862 50.76466 27.1132 51.47632 28.80777 52.03162 30.50235 52.42793 32.19693 52.66287 33.89151 52.73433 35.58609 52.64178 37.28065 52.3868 38.97523 51.97124 40.66982 51.39537 42.3644 50.66524 44.05896 49.78323 45.75354 48.75674 47.44812 47.5913 49.1427 46.29399 50.83728 44.87303 52.53185 43.33815 54.22643 41.69623 55.921 39.96097 57.61559 38.14026 59.31015 36.24678 61.00473 34.2924 62.69931 32.28873 64.39389 30.24811 66.08846 28.18324 67.78304 26.10782 69.47762 24.03372 71.1722 21.97388 72.86678 19.9412 74.56134 17.94858 76.25592 16.0079 77.95049 14.13182 79.64507 12.3317 81.33963 10.61858 83.03421 9.00276 84.72879 7.4953 86.42337 6.10466 88.11795 4.8398 89.81252 3.70888 91.5071 2.71773 93.20168 1.87369 94.89624 1.18126 96.59082 .64572 98.2854 .26921 99.97998 .05536 101.67456 .00368 103.36913 .11679 105.0637 .39102 106.75829 .82846 108.45287 1.42307 110.14743 2.17348 111.84201 3.07263 113.53659 4.11758 115.23117 5.29913 116.92575 6.6133 118.62032 8.0485 120.3149 9.59814 122.00948 11.25061 123.70406 12.99854 125.39862 14.8282 127.0932 16.73038 128.78778 18.69162 130.48236 20.70085 132.17693 22.74515 133.8715 24.81212 135.56609 26.88751 137.26067 28.96057 138.95525 31.01805 140.64981 33.04626 142.34439 35.03334 144.03897 36.96584 145.73354 38.83348 147.42812 40.62358 149.1227 42.3251 150.81728 43.92747 152.51186 45.4212 154.20642 46.7963 155.90099 48.04507 157.59557 49.15912 159.29015 50.13184 160.98473 50.9574 162.67929 51.62952 164.37387 52.14632 166.06845 52.50177 167.76303 52.6961"/>
<path transform="matrix(1,0,0,-1,216.164,77.855899)" stroke-width=".3985" stroke-linecap="butt" stroke-miterlimit="10" stroke-linejoin="miter" fill="none" stroke="#000000" d="M69.9025 39.25287V33.25865"/>
<path transform="matrix(0,-1,-1,-0,286.0665,38.503396)" stroke-width=".3985" stroke-linecap="butt" stroke-miterlimit="10" stroke-linejoin="miter" fill="none" stroke="#000000" d="M0 2.29141V-2.29141"/>
<path transform="matrix(0,1,1,0,286.0665,44.696866)" stroke-width=".3985" stroke-linecap="butt" stroke-miterlimit="10" stroke-linejoin="miter" fill="none" stroke="#000000" d="M0 2.29141V-2.29141"/>
<text xml:space="preserve" transform="matrix(1 0 -0 1 -122.48801 676.2989)" font-size="7.9701" font-family="CMMI8" font-style="italic"><tspan y="-631.975" x="412.074">W</tspan></text>
</g>
<text xml:space="preserve" transform="matrix(1 0 -0 1 -122.48801 676.2989)" font-size="9.9626" font-family="CMMI10" font-style="italic"><tspan y="-628.33" x="499.299">t</tspan></text>
<text xml:space="preserve" transform="matrix(1 0 -0 1 -122.48799 676.2989)" font-size="9.9626" font-family="CMMI10" font-style="italic"><tspan y="-656.007" x="342.172">x</tspan></text>
<text xml:space="preserve" transform="matrix(1 0 -0 1 -122.48799 676.2989)" font-size="6.9738" font-family="CMMI7" font-style="italic"><tspan y="-654.513" x="347.866">q</tspan></text>
<text xml:space="preserve" transform="matrix(1 0 -0 1 -122.48799 676.2989)" font-size="9.9626" font-family="CMR10"><tspan y="-656.007" x="352.266">(</tspan></text>
<text xml:space="preserve" transform="matrix(1 0 -0 1 -122.48799 676.2989)" font-size="9.9626" font-family="CMMI10" font-style="italic"><tspan y="-656.007" x="356.13999">t</tspan></text>
<text xml:space="preserve" transform="matrix(1 0 -0 1 -122.48799 676.2989)" font-size="9.9626" font-family="CMR10"><tspan y="-656.007" x="359.73799">)</tspan></text>
<text xml:space="preserve" transform="matrix(1 0 -0 1 -122.48801 676.2989)" font-size="8.9664" font-family="CMR9"><tspan y="-581.474" x="350.117 353.70356 358.82337">(b)</tspan></text>
<text xml:space="preserve" transform="matrix(1 0 -0 1 -122.48801 676.2989)" font-size="8.9664" font-family="CMMI9" font-style="italic"><tspan y="-581.474" x="365.476">x</tspan></text>
<text xml:space="preserve" transform="matrix(1 0 -0 1 -122.48801 676.2989)" font-size="5.9776" font-family="CMMI6" font-style="italic"><tspan y="-580.478" x="370.699">q</tspan></text>
<text xml:space="preserve" transform="matrix(1 0 -0 1 -122.48801 676.2989)" font-size="8.9664" font-family="CMR9"><tspan y="-581.474" x="374.823">(</tspan></text>
<text xml:space="preserve" transform="matrix(1 0 -0 1 -122.48801 676.2989)" font-size="8.9664" font-family="CMMI9" font-style="italic"><tspan y="-581.474" x="378.407">t</tspan></text>
<text xml:space="preserve" transform="matrix(1 0 -0 1 -122.48801 676.2989)" font-size="8.9664" font-family="CMR9"><tspan y="-581.474" x="381.73503 385.32157 391.9836 396.8434 401.96324 406.57197 411.43174 415.01829 417.58268 421.68034 425.77799 433.97328 437.60466 440.16905 444.77778 449.89759 454.50633">):quantizedsignal</tspan></text>
<text xml:space="preserve" transform="matrix(1 0 -0 1 -122.48801 676.2989)" font-size="9.9626" font-family="CMR10"><tspan y="-89.36499" x="303.13304">1</tspan></text>
</svg>
