<svg xmlns="http://www.w3.org/2000/svg" xmlns:xlink="http://www.w3.org/1999/xlink" version="1.1" width="263.34754pt" height="102.2486pt" viewBox="0 0 263.34754 102.2486">
<path transform="matrix(1,0,0,-1,50.06871,27.131226)" stroke-width=".3985" stroke-linecap="butt" stroke-miterlimit="10" stroke-linejoin="miter" fill="none" stroke="#000000" d="M0-56.69362V-40.25252M-15.71558-37.42061V-19.27298M0-16.44109V0"/>
<path transform="matrix(1,0,0,-1,50.06871,27.131226)" stroke-width=".797" stroke-linecap="butt" stroke-miterlimit="10" stroke-linejoin="miter" fill="none" stroke="#000000" d="M-11.90572-28.3468C-11.90572-34.92223-6.57541-40.25252 0-40.25252 6.57541-40.25252 11.90572-34.92223 11.90572-28.3468 11.90572-21.77138 6.57541-16.44109 0-16.44109-6.57541-16.44109-11.90572-21.77138-11.90572-28.3468ZM0-28.3468"/>
<path transform="matrix(1,0,0,-1,50.06871,27.131226)" d="M-15.71558-23.48953H-13.73132L-15.71558-19.27298-17.69983-23.48953Z"/>
<path transform="matrix(1,0,0,-1,50.06871,27.131226)" stroke-width=".3985" stroke-linecap="butt" stroke-miterlimit="10" stroke-linejoin="miter" fill="none" stroke="#000000" d="M-15.71558-23.48953H-13.73132L-15.71558-19.27298-17.69983-23.48953Z"/>
<text xml:space="preserve" transform="matrix(1 0 -0 1 -176.2813 674.5872)" font-size="9.9626" font-family="CMMI10" font-style="italic"><tspan y="-616.619" x="181.645">v</tspan></text>
<text xml:space="preserve" transform="matrix(1 0 -0 1 -176.2813 674.5872)" font-size="6.9738" font-family="CMMI7" font-style="italic"><tspan y="-615.124" x="186.474 189.29141">in</tspan></text>
<text xml:space="preserve" transform="matrix(1 0 -0 1 -176.2813 674.5872)" font-size="9.9626" font-family="CMR10"><tspan y="-616.619" x="194.716">(</tspan></text>
<text xml:space="preserve" transform="matrix(1 0 -0 1 -176.2813 674.5872)" font-size="9.9626" font-family="CMMI10" font-style="italic"><tspan y="-616.619" x="198.59">t</tspan></text>
<text xml:space="preserve" transform="matrix(1 0 -0 1 -176.2813 674.5872)" font-size="9.9626" font-family="CMR10"><tspan y="-616.619" x="202.188">)</tspan></text>
<path transform="matrix(1,0,0,-1,50.06871,27.131226)" stroke-width=".3985" stroke-linecap="butt" stroke-miterlimit="10" stroke-linejoin="miter" fill="none" stroke="#000000" d="M0 0H14.17339 19.5593M51.3077 0H56.69362 83.33963M115.08801 0H141.73404L141.73403-24.37833M141.73403-32.31528 141.73404-56.69362H0"/>
<path transform="matrix(1,0,0,-1,50.06871,27.131226)" stroke-width=".797" stroke-linecap="butt" stroke-miterlimit="10" stroke-linejoin="miter" fill="none" stroke="#000000" d="M19.5593 5.95285H51.30768V-5.95285H19.5593Z"/>
<text xml:space="preserve" transform="matrix(1 0 -0 1 -176.28131 674.5872)" font-size="9.9626" font-family="CMMI10" font-style="italic"><tspan y="-657.221" x="257.963">R</tspan></text>
<path transform="matrix(1,0,0,-1,50.06871,27.131226)" stroke-width=".797" stroke-linecap="butt" stroke-linejoin="bevel" fill="none" stroke="#000000" d="M82.94112-.15938C82.94112 3.12814 84.76248 5.79317 87.0093 5.79317 89.2561 5.79317 91.07747 3.12814 91.07747-.15938 91.07747 3.12814 92.89882 5.79317 95.14563 5.79317 97.39244 5.79317 99.2138 3.12814 99.2138-.15938 99.2138 3.12814 101.03517 5.79317 103.28198 5.79317 105.52878 5.79317 107.35014 3.12814 107.35014-.15938 107.35014 3.12814 109.17151 5.79317 111.41832 5.79317 113.66513 5.79317 115.48648 3.12814 115.48648-.15938"/>
<text xml:space="preserve" transform="matrix(1 0 -0 1 -176.2813 674.5872)" font-size="9.9626" font-family="CMMI10" font-style="italic"><tspan y="-657.221" x="322.173">L</tspan></text>
<path transform="matrix(1,0,0,-1,50.06871,27.131226)" stroke-width=".797" stroke-linecap="butt" stroke-miterlimit="10" stroke-linejoin="miter" fill="none" stroke="#000000" d="M153.63974-24.37833H129.82831M153.63974-32.31528H129.82831"/>
<text xml:space="preserve" transform="matrix(1 0 -0 1 -176.28128 674.5873)" font-size="9.9626" font-family="CMMI10" font-style="italic"><tspan y="-616.965" x="382.787">C</tspan></text>
<path transform="matrix(1,0,0,-1,50.06871,27.131226)" stroke-width=".3985" stroke-linecap="butt" stroke-miterlimit="10" stroke-linejoin="miter" fill="none" stroke="#000000" d="M141.73404 0H170.08086"/>
<path transform="matrix(1,0,0,-1,50.06871,27.131226)" d="M171.668 0C171.668 .87656 170.95742 1.58714 170.08086 1.58714 169.20429 1.58714 168.4937 .87656 168.4937 0 168.4937-.87656 169.20429-1.58714 170.08086-1.58714 170.95742-1.58714 171.668-.87656 171.668 0ZM170.08086 0" fill="#ffffff"/>
<path transform="matrix(1,0,0,-1,50.06871,27.131226)" stroke-width=".3985" stroke-linecap="butt" stroke-miterlimit="10" stroke-linejoin="miter" fill="none" stroke="#000000" d="M171.668 0C171.668 .87656 170.95742 1.58714 170.08086 1.58714 169.20429 1.58714 168.4937 .87656 168.4937 0 168.4937-.87656 169.20429-1.58714 170.08086-1.58714 170.95742-1.58714 171.668-.87656 171.668 0ZM170.08086 0"/>
<path transform="matrix(1,0,0,-1,50.06871,27.131226)" d="" fill="#ffffff"/>
<path transform="matrix(1,0,0,-1,50.06871,27.131226)" stroke-width=".3985" stroke-linecap="butt" stroke-miterlimit="10" stroke-linejoin="miter" fill="none" stroke="#000000" d=""/>
<path transform="matrix(1,0,0,-1,50.06871,27.131226)" stroke-width=".3985" stroke-linecap="butt" stroke-miterlimit="10" stroke-linejoin="miter" fill="none" stroke="#000000" d="M141.73404-56.69362H170.08086"/>
<path transform="matrix(1,0,0,-1,50.06871,27.131226)" d="M171.668-56.69362C171.668-55.81705 170.95742-55.10646 170.08086-55.10646 169.20429-55.10646 168.4937-55.81705 168.4937-56.69362 168.4937-57.57018 169.20429-58.28076 170.08086-58.28076 170.95742-58.28076 171.668-57.57018 171.668-56.69362ZM170.08086-56.69362" fill="#ffffff"/>
<path transform="matrix(1,0,0,-1,50.06871,27.131226)" stroke-width=".3985" stroke-linecap="butt" stroke-miterlimit="10" stroke-linejoin="miter" fill="none" stroke="#000000" d="M171.668-56.69362C171.668-55.81705 170.95742-55.10646 170.08086-55.10646 169.20429-55.10646 168.4937-55.81705 168.4937-56.69362 168.4937-57.57018 169.20429-58.28076 170.08086-58.28076 170.95742-58.28076 171.668-57.57018 171.668-56.69362ZM170.08086-56.69362"/>
<path transform="matrix(1,0,0,-1,50.06871,27.131226)" d="" fill="#ffffff"/>
<path transform="matrix(1,0,0,-1,50.06871,27.131226)" stroke-width=".3985" stroke-linecap="butt" stroke-miterlimit="10" stroke-linejoin="miter" fill="none" stroke="#000000" d=""/>
<path transform="matrix(1,0,0,-1,50.06871,27.131226)" stroke-width=".3985" stroke-linecap="butt" stroke-miterlimit="10" stroke-linejoin="miter" fill="none" stroke="#000000" d="M170.08086-51.02432V-8.73318"/>
<path transform="matrix(0,-1,-1,-0,220.14957,37.582597)" d="M4.21463 0 .64343 1.34572 1.8178 0 .64343-1.34572Z"/>
<path transform="matrix(0,-1,-1,-0,220.14957,37.582597)" stroke-width=".3985" stroke-linecap="butt" stroke-miterlimit="10" stroke-linejoin="miter" fill="none" stroke="#000000" d="M4.21463 0 .64343 1.34572 1.8178 0 .64343-1.34572Z"/>
<text xml:space="preserve" transform="matrix(1 0 -0 1 -176.2813 674.5872)" font-size="9.9626" font-family="CMMI10" font-style="italic"><tspan y="-616.619" x="399.949">v</tspan></text>
<text xml:space="preserve" transform="matrix(1 0 -0 1 -176.2813 674.5872)" font-size="6.9738" font-family="CMMI7" font-style="italic"><tspan y="-615.124" x="404.778 408.71125 413.41856">out</tspan></text>
<text xml:space="preserve" transform="matrix(1 0 -0 1 -176.2813 674.5872)" font-size="9.9626" font-family="CMR10"><tspan y="-616.619" x="416.928">(</tspan></text>
<text xml:space="preserve" transform="matrix(1 0 -0 1 -176.2813 674.5872)" font-size="9.9626" font-family="CMMI10" font-style="italic"><tspan y="-616.619" x="420.803">t</tspan></text>
<text xml:space="preserve" transform="matrix(1 0 -0 1 -176.2813 674.5872)" font-size="9.9626" font-family="CMR10"><tspan y="-616.619" x="424.4">)</tspan></text>
<text xml:space="preserve" transform="matrix(1 0 -0 1 -176.2813 674.5872)" font-size="9.9626" font-family="CMR10"><tspan y="-89.365" x="303.133">1</tspan></text>
</svg>
